<svg width="164" height="26" viewBox="0 0 164 26" fill="none" xmlns="http://www.w3.org/2000/svg">
<g opacity="0.6">
<g clip-path="url(#clip0_0_307)">
<mask id="mask0_0_307" style="mask-type:luminance" maskUnits="userSpaceOnUse" x="0" y="1" width="164" height="21">
<path d="M0.796749 1.05786H163.047V21.1299H0.796749V1.05786Z" fill="white"/>
</mask>
<g mask="url(#mask0_0_307)">
<path d="M6.69675 10.214C6.63768 10.1365 6.55963 10.0756 6.47015 10.0372C6.38066 9.99872 6.28277 9.98401 6.18593 9.99447C6.0891 10.0049 5.9966 10.0402 5.91738 10.0969C5.83817 10.1535 5.77492 10.2297 5.73375 10.318L0.85575 20.041C0.811034 20.1297 0.789864 20.2284 0.79427 20.3277C0.798675 20.4269 0.828508 20.5234 0.880908 20.6078C0.933308 20.6923 1.00652 20.7618 1.09352 20.8098C1.18052 20.8578 1.27839 20.8826 1.37775 20.882H8.16975C8.27827 20.8843 8.38516 20.8552 8.47757 20.7983C8.56999 20.7413 8.64401 20.6589 8.69075 20.561C10.1558 17.542 9.26775 12.954 6.69675 10.214ZM10.2727 1.36895C9.05823 3.23234 8.35023 5.38004 8.21854 7.60039C8.08685 9.82073 8.53601 12.0371 9.52175 14.031L12.7957 20.561C12.8443 20.6577 12.9189 20.739 13.0111 20.7957C13.1033 20.8524 13.2095 20.8823 13.3177 20.882H20.1077C20.2067 20.8815 20.3039 20.856 20.3903 20.8077C20.4767 20.7594 20.5494 20.69 20.6015 20.6059C20.6537 20.5219 20.6837 20.4259 20.6886 20.3271C20.6936 20.2283 20.6733 20.1298 20.6297 20.041C20.6297 20.041 11.4937 1.82095 11.2638 1.36595C11.2185 1.27283 11.148 1.19436 11.0601 1.13955C10.9723 1.08475 10.8708 1.05584 10.7673 1.05615C10.6638 1.05647 10.5625 1.08599 10.475 1.14132C10.3875 1.19666 10.3174 1.27556 10.2727 1.36895ZM89.9237 9.16595C89.9237 11.573 91.0437 13.485 95.4257 14.329C98.0407 14.876 98.5878 15.297 98.5878 16.166C98.5878 17.01 98.0387 17.556 96.1977 17.556C93.9727 17.5162 91.7918 16.9278 89.8487 15.843V19.765C91.1687 20.41 92.9117 21.13 96.1487 21.13C100.729 21.13 102.547 19.093 102.547 16.066L89.9237 9.16595ZM102.547 16.066C102.547 13.212 101.028 11.871 96.7457 10.953C94.3808 10.431 93.8077 9.90995 93.8077 9.16595C93.8077 8.22295 94.6547 7.82595 96.2227 7.82595C98.1147 7.82595 99.9827 8.39595 101.75 9.18995V5.44195C100.054 4.67255 98.2084 4.29096 96.3467 4.32495C92.1147 4.32495 89.9237 6.16295 89.9237 9.16595M148.779 4.57295V20.882H152.265V8.44395L153.734 11.746L158.663 20.881H163.045V4.57295H159.56V15.098L158.24 12.045L154.281 4.57295H148.779ZM126.61 4.57395H122.801V20.882H126.61V4.57395ZM118.406 16.066C118.406 13.212 116.888 11.871 112.605 10.953C110.24 10.431 109.668 9.90995 109.668 9.16595C109.668 8.22295 110.514 7.82595 112.082 7.82595C113.975 7.82595 115.842 8.39595 117.61 9.18995V5.44195C115.914 4.67265 114.068 4.29106 112.207 4.32495C107.974 4.32495 105.784 6.16195 105.784 9.16495C105.784 11.573 106.904 13.485 111.286 14.329C113.9 14.876 114.448 15.297 114.448 16.166C114.448 17.01 113.899 17.556 112.057 17.556C109.832 17.5161 107.652 16.9277 105.709 15.843V19.765C107.029 20.41 108.771 21.13 112.008 21.13C116.589 21.13 118.406 19.093 118.406 16.066ZM60.3337 4.57295V20.882H68.1637L69.3958 17.357H64.1677V4.57295H60.3337ZM44.8647 4.57295V8.09795H49.0977V20.882H52.9317V8.09795H57.4617V4.57295H44.8647ZM39.3037 4.57295H34.2797L28.5758 20.882H32.9317L33.7407 18.135C35.7317 18.718 37.8497 18.718 39.8407 18.135L40.6497 20.882H45.0067L39.3037 4.57295ZM36.7927 15.194C36.0828 15.194 35.3777 15.093 34.6967 14.894L36.7927 7.77595L38.8887 14.896C38.2078 15.0944 37.502 15.1948 36.7927 15.194ZM81.6617 4.57295H76.6367L70.9337 20.882H75.2907L76.0997 18.135C78.0917 18.718 80.2098 18.718 82.1998 18.135L83.0097 20.882H87.3658L81.6617 4.57295ZM79.1497 15.194C78.4397 15.194 77.7337 15.093 77.0527 14.894L79.1497 7.77595L81.2457 14.896C80.5648 15.0944 79.859 15.1948 79.1497 15.194ZM140.336 4.57395H135.312L129.608 20.882H133.964L134.773 18.135C136.765 18.7179 138.882 18.7179 140.874 18.135L141.682 20.882H146.04L140.336 4.57395ZM137.822 15.194C137.112 15.1941 136.407 15.0931 135.726 14.894L137.822 7.77695L139.918 14.897C139.237 15.0952 138.531 15.1952 137.822 15.194Z" fill="white"/>
</g>
</g>
</g>
<defs>
<clipPath id="clip0_0_307">
<rect width="163" height="22" fill="white" transform="translate(0.59375 0.09375)"/>
</clipPath>
</defs>
</svg>
