<svg width="696" height="289" viewBox="0 0 696 289" fill="none" xmlns="http://www.w3.org/2000/svg">
<mask id="mask0_0_645" style="mask-type:alpha" maskUnits="userSpaceOnUse" x="0" y="0" width="696" height="289">
<rect width="696" height="288" transform="translate(0 0.719727)" fill="url(#paint0_radial_0_645)"/>
</mask>
<g mask="url(#mask0_0_645)">
<g filter="url(#filter0_dd_0_645)">
<path d="M32 32.7197C32 15.0466 46.3269 0.719727 64 0.719727C81.6731 0.719727 96 15.0466 96 32.7197C96 50.3928 81.6731 64.7197 64 64.7197C46.3269 64.7197 32 50.3928 32 32.7197Z" fill="#09090B"/>
<g clip-path="url(#clip0_0_645)">
<path d="M54.75 36.9298C54.75 37.5944 54.5529 38.244 54.1837 38.7965C53.8145 39.3491 53.2898 39.7797 52.6758 40.0341C52.0619 40.2884 51.3863 40.3549 50.7345 40.2253C50.0827 40.0956 49.484 39.7756 49.0141 39.3057C48.5442 38.8358 48.2242 38.2371 48.0946 37.5853C47.9649 36.9336 48.0315 36.258 48.2858 35.644C48.5401 35.03 48.9707 34.5053 49.5233 34.1361C50.0758 33.7669 50.7255 33.5698 51.39 33.5698H54.75V36.9298ZM56.43 36.9298C56.43 36.0387 56.784 35.1841 57.4141 34.5539C58.0442 33.9238 58.8989 33.5698 59.79 33.5698C60.6811 33.5698 61.5358 33.9238 62.1659 34.5539C62.796 35.1841 63.15 36.0387 63.15 36.9298V45.3298C63.15 46.221 62.796 47.0756 62.1659 47.7057C61.5358 48.3358 60.6811 48.6898 59.79 48.6898C58.8989 48.6898 58.0442 48.3358 57.4141 47.7057C56.784 47.0756 56.43 46.221 56.43 45.3298V36.9298Z" fill="#E01E5A"/>
<path d="M59.79 23.4397C59.1255 23.4397 58.4758 23.2427 57.9233 22.8735C57.3707 22.5043 56.9401 21.9795 56.6858 21.3655C56.4315 20.7516 56.3649 20.076 56.4946 19.4242C56.6242 18.7724 56.9442 18.1738 57.4141 17.7038C57.884 17.2339 58.4827 16.9139 59.1345 16.7843C59.7863 16.6546 60.4619 16.7212 61.0758 16.9755C61.6898 17.2298 62.2145 17.6605 62.5837 18.213C62.9529 18.7656 63.15 19.4152 63.15 20.0797V23.4397H59.79ZM59.79 25.1397C60.6825 25.1397 61.5384 25.4943 62.1694 26.1253C62.8005 26.7564 63.155 27.6123 63.155 28.5047C63.155 29.3972 62.8005 30.2531 62.1694 30.8841C61.5384 31.5152 60.6825 31.8697 59.79 31.8697H51.36C50.9188 31.8697 50.4818 31.7828 50.0742 31.614C49.6665 31.4451 49.2961 31.1976 48.9841 30.8856C48.6721 30.5736 48.4246 30.2032 48.2558 29.7955C48.0869 29.3879 48 28.951 48 28.5097C48 28.0685 48.0869 27.6316 48.2558 27.2239C48.4246 26.8163 48.6721 26.4459 48.9841 26.1339C49.2961 25.8218 49.6665 25.5743 50.0742 25.4055C50.4818 25.2366 50.9188 25.1497 51.36 25.1497H59.79V25.1397Z" fill="#36C5F0"/>
<path d="M73.25 28.5097C73.25 27.8452 73.4471 27.1956 73.8163 26.643C74.1855 26.0905 74.7102 25.6598 75.3242 25.4055C75.9381 25.1512 76.6137 25.0846 77.2655 25.2143C77.9173 25.3439 78.516 25.6639 78.9859 26.1338C79.4558 26.6038 79.7758 27.2024 79.9054 27.8542C80.0351 28.506 79.9686 29.1816 79.7142 29.7955C79.4599 30.4095 79.0293 30.9343 78.4767 31.3035C77.9242 31.6727 77.2746 31.8697 76.61 31.8697H73.25V28.5097ZM71.57 28.5097C71.57 29.4009 71.216 30.2555 70.5859 30.8856C69.9558 31.5157 69.1011 31.8697 68.21 31.8697C67.3189 31.8697 66.4642 31.5157 65.8341 30.8856C65.204 30.2555 64.85 29.4009 64.85 28.5097V20.0797C64.85 19.1886 65.204 18.334 65.8341 17.7038C66.4642 17.0737 67.3189 16.7197 68.21 16.7197C69.1011 16.7197 69.9558 17.0737 70.5859 17.7038C71.216 18.334 71.57 19.1886 71.57 20.0797V28.5097Z" fill="#2EB67D"/>
<path d="M68.21 41.9698C68.8745 41.9698 69.5242 42.1669 70.0767 42.5361C70.6293 42.9053 71.0599 43.43 71.3142 44.044C71.5686 44.658 71.6351 45.3336 71.5054 45.9853C71.3758 46.6371 71.0558 47.2358 70.5859 47.7057C70.116 48.1756 69.5173 48.4956 68.8655 48.6253C68.2137 48.7549 67.5381 48.6884 66.9242 48.4341C66.3102 48.1797 65.7855 47.7491 65.4163 47.1965C65.0471 46.644 64.85 45.9944 64.85 45.3298V41.9698H68.21ZM68.21 40.2898C67.3189 40.2898 66.4642 39.9358 65.8341 39.3057C65.204 38.6756 64.85 37.821 64.85 36.9298C64.85 36.0387 65.204 35.1841 65.8341 34.5539C66.4642 33.9238 67.3189 33.5698 68.21 33.5698H76.64C77.5311 33.5698 78.3858 33.9238 79.0159 34.5539C79.646 35.1841 80 36.0387 80 36.9298C80 37.821 79.646 38.6756 79.0159 39.3057C78.3858 39.9358 77.5311 40.2898 76.64 40.2898H68.21Z" fill="#ECB22E"/>
</g>
</g>
<g filter="url(#filter1_dd_0_645)">
<path d="M32 128.72C32 111.047 46.3269 96.7197 64 96.7197C81.6731 96.7197 96 111.047 96 128.72C96 146.393 81.6731 160.72 64 160.72C46.3269 160.72 32 146.393 32 128.72Z" fill="#09090B"/>
<path d="M49.808 115.173C47.472 115.173 45.688 117.541 45.688 120.57C45.688 123.898 47.464 125.178 49.44 125.968C51.304 126.757 52.192 127.632 52.192 129.349C52.192 131.098 51.216 132.325 49.936 132.325C48.656 132.325 47.552 131.098 47.552 129.21C47.552 128.165 47.92 127.898 47.92 127.312C47.92 126.64 47.576 126.149 47.008 126.149C46.36 126.149 45.688 127.461 45.688 129.328C45.688 132.336 47.616 134.554 49.936 134.554C52.272 134.554 54.056 132.186 54.056 129.157C54.056 125.861 52.28 124.549 50.288 123.76C48.448 123.002 47.56 122.096 47.56 120.378C47.56 118.661 48.512 117.434 49.792 117.434C51.112 117.434 52.176 118.682 52.2 120.41C52.224 121.2 52.632 121.658 53.112 121.658C53.608 121.658 54.064 121.189 54.04 120.346C53.984 117.338 52.104 115.173 49.808 115.173ZM59.208 134.522C60.248 134.522 61.048 134.053 61.048 133.125C61.048 132.421 60.616 131.962 60.2 131.962C59.896 131.962 59.68 132.133 59.184 132.133C57.84 132.133 56.776 130.586 56.776 128.773C56.776 126.821 57.856 125.274 59.224 125.274C60.76 125.274 61.736 126.853 61.736 129.125V133.296C61.736 134.032 62.168 134.522 62.688 134.522C63.184 134.522 63.616 134.021 63.616 133.296V129.04C63.616 125.541 61.816 122.97 59.256 122.97C56.872 122.97 54.896 125.456 54.896 128.773C54.92 131.984 56.872 134.522 59.208 134.522ZM68.744 142.341C71.08 142.341 72.864 139.973 72.864 136.944C72.864 133.616 71.088 132.336 69.096 131.546C67.256 130.757 66.368 129.882 66.368 128.165C66.368 126.448 67.344 125.189 68.6 125.189C69.88 125.189 71.008 126.416 71.008 128.304C71.008 129.36 70.64 129.616 70.64 130.202C70.64 130.874 70.984 131.365 71.528 131.365C72.2 131.365 72.872 130.053 72.872 128.186C72.872 125.178 70.92 122.96 68.6 122.96C66.264 122.96 64.504 125.328 64.504 128.357C64.504 131.653 66.256 132.965 68.256 133.754C70.12 134.512 71.008 135.418 71.008 137.136C71.008 138.885 70.032 140.08 68.776 140.08C67.432 140.08 66.392 138.853 66.368 137.104C66.344 136.314 65.912 135.877 65.456 135.877C64.96 135.877 64.504 136.314 64.528 137.157C64.536 140.218 66.424 142.341 68.744 142.341ZM78.152 134.522C79.36 134.522 80.32 134.053 80.992 133.498C81.64 132.944 81.896 132.474 81.896 131.952C81.896 131.397 81.592 130.906 81.032 130.906C80.36 130.906 79.824 132.25 78.168 132.25C76.72 132.25 75.568 130.704 75.568 128.752C75.568 126.821 76.672 125.253 78.056 125.253C79.552 125.253 80.352 126.565 80.352 127.408C80.352 127.642 80.224 127.76 80.048 127.76H78.232C77.736 127.76 77.368 128.197 77.368 128.784C77.368 129.424 77.736 129.893 78.232 129.893H80.72C81.672 129.893 82.256 129.221 82.256 128.08C82.256 125.221 80.44 122.981 78.024 122.981C75.64 122.981 73.712 125.552 73.712 128.752C73.712 131.952 75.72 134.522 78.152 134.522Z" fill="#52AF38"/>
</g>
<g filter="url(#filter2_dd_0_645)">
<path d="M32 224.72C32 207.047 46.3269 192.72 64 192.72C81.6731 192.72 96 207.047 96 224.72C96 242.393 81.6731 256.72 64 256.72C46.3269 256.72 32 242.393 32 224.72Z" fill="#09090B"/>
<g clip-path="url(#clip1_0_645)">
<path d="M59.44 208.72C59.1422 208.722 58.8574 208.842 58.6476 209.053C58.4377 209.264 58.32 209.55 58.32 209.848V217.768H79.232L69.712 208.72H59.44ZM80 220.16C80 220.012 79.9708 219.866 79.914 219.729C79.8572 219.593 79.774 219.469 79.6691 219.365C79.5643 219.261 79.4399 219.178 79.3031 219.123C79.1663 219.067 79.0198 219.039 78.872 219.04H70.952V239.952L80 230.424V220.16ZM68.56 240.72C68.8578 240.718 69.1426 240.598 69.3525 240.387C69.5623 240.175 69.68 239.89 69.68 239.592V231.672H48.768L58.288 240.712H68.56V240.72ZM48 229.272C48 229.571 48.1188 229.858 48.3304 230.069C48.5419 230.281 48.8288 230.4 49.128 230.4H57.048V209.48L48 219V229.28V229.272Z" fill="#0659A5"/>
</g>
</g>
<g filter="url(#filter3_dd_0_645)">
<path d="M174 64.7197C174 47.0466 188.327 32.7197 206 32.7197C223.673 32.7197 238 47.0466 238 64.7197C238 82.3928 223.673 96.7197 206 96.7197C188.327 96.7197 174 82.3928 174 64.7197Z" fill="#09090B"/>
<g clip-path="url(#clip2_0_645)">
<path d="M205.964 84.2763C211.263 84.2694 216.341 82.2044 220.083 78.5355C223.825 74.8665 225.925 69.894 225.92 64.7111C225.922 62.1451 225.408 59.6039 224.406 57.2324C223.405 54.861 221.936 52.7057 220.083 50.8897C218.229 49.0737 216.029 47.6326 213.607 46.6485C211.184 45.6645 208.587 45.1568 205.964 45.1545C203.34 45.1557 200.742 45.6628 198.318 46.6469C195.894 47.6309 193.692 49.0727 191.837 50.8897C189.983 52.7067 188.513 54.8634 187.512 57.2365C186.51 59.6095 185.996 62.1524 186 64.7198C185.998 69.9027 188.099 74.8743 191.843 78.5416C195.587 82.2089 200.666 84.2717 205.964 84.2763Z" fill="#13B5EA"/>
<path d="M195.556 64.6587L198.96 61.3109C199.047 61.1949 199.088 61.0523 199.076 60.9091C199.065 60.7658 199.001 60.6314 198.896 60.5303C198.792 60.4292 198.654 60.3682 198.507 60.3582C198.361 60.3483 198.215 60.3901 198.098 60.4761L194.693 63.8066L191.271 60.4674C191.154 60.363 191 60.3068 190.842 60.3107C190.684 60.3147 190.533 60.3784 190.422 60.4885C190.31 60.5986 190.247 60.7466 190.244 60.9015C190.242 61.0564 190.301 61.2063 190.409 61.3196L193.822 64.6587L190.418 67.9979C190.35 68.05 190.294 68.1154 190.254 68.19C190.214 68.2646 190.19 68.3466 190.185 68.4307C190.179 68.5148 190.192 68.5992 190.222 68.6782C190.252 68.7572 190.298 68.8292 190.359 68.8894C190.419 68.9496 190.492 68.9967 190.572 69.0276C190.652 69.0585 190.738 69.0726 190.824 69.0689C190.91 69.0652 190.994 69.0438 191.071 69.0061C191.148 68.9684 191.216 68.9152 191.271 68.85L194.684 65.5109L198.089 68.8327C198.174 68.9163 198.282 68.9737 198.399 68.9977C198.517 69.0218 198.64 69.0114 198.752 68.9678C198.863 68.9242 198.96 68.8494 199.028 68.7527C199.097 68.656 199.135 68.5417 199.138 68.424C199.137 68.2673 199.073 68.1172 198.96 68.0066L195.556 64.6587ZM215.804 64.6587C215.804 65.2674 216.302 65.7457 216.916 65.7457C217.21 65.7457 217.493 65.6312 217.701 65.4273C217.91 65.2235 218.027 64.947 218.027 64.6587C218.027 64.3705 217.91 64.094 217.701 63.8901C217.493 63.6863 217.21 63.5718 216.916 63.5718C216.302 63.5718 215.804 64.0587 215.804 64.6587ZM213.707 64.6587C213.707 64.0358 213.896 63.4268 214.25 62.909C214.604 62.3912 215.107 61.9877 215.695 61.7497C216.284 61.5117 216.931 61.4499 217.555 61.5721C218.18 61.6942 218.753 61.9949 219.203 62.436C219.653 62.8771 219.958 63.4388 220.081 64.05C220.205 64.6612 220.14 65.2944 219.895 65.8694C219.65 66.4444 219.236 66.9355 218.706 67.2803C218.175 67.6251 217.552 67.8083 216.916 67.8066C216.064 67.8043 215.248 67.4716 214.646 66.8815C214.044 66.2914 213.707 65.4921 213.707 64.6587ZM212.436 64.6587C212.434 65.528 212.696 66.3782 213.188 67.1017C213.681 67.8252 214.382 68.3894 215.203 68.7228C216.023 69.0562 216.926 69.1439 217.798 68.9748C218.67 68.8056 219.47 68.3872 220.099 67.7725C220.727 67.1579 221.155 66.3746 221.328 65.522C221.5 64.6694 221.411 63.7857 221.07 62.9829C220.729 62.1802 220.152 61.4944 219.413 61.0126C218.673 60.5307 217.804 60.2744 216.916 60.2761C215.727 60.2784 214.587 60.7421 213.747 61.5654C212.907 62.3887 212.436 63.5043 212.436 64.6674M212.124 60.3544H211.938C211.369 60.3544 210.827 60.5283 210.373 60.8761C210.343 60.7411 210.267 60.6202 210.157 60.5333C210.047 60.4464 209.91 60.3986 209.769 60.3979C209.69 60.399 209.611 60.4154 209.538 60.4462C209.465 60.477 209.399 60.5215 209.344 60.5772C209.289 60.6329 209.245 60.6987 209.216 60.7709C209.187 60.8431 209.172 60.9202 209.173 60.9979V68.3892C209.192 68.5346 209.265 68.6683 209.378 68.7647C209.491 68.8612 209.636 68.9139 209.786 68.9128C209.936 68.9118 210.08 68.857 210.192 68.7589C210.303 68.6608 210.374 68.5262 210.391 68.3805V63.8413C210.391 62.3283 210.533 61.7109 211.858 61.5544C211.982 61.537 212.107 61.537 212.116 61.537C212.471 61.5283 212.738 61.2761 212.738 60.9544C212.739 60.8741 212.724 60.7945 212.693 60.7201C212.662 60.6457 212.616 60.5781 212.558 60.5214C212.5 60.4646 212.431 60.4198 212.355 60.3896C212.279 60.3595 212.198 60.3445 212.116 60.3457M200.4 63.9544V63.9022C200.578 63.2156 200.985 62.6071 201.558 62.174C202.131 61.7409 202.836 61.5082 203.56 61.5132C204.284 61.5183 204.985 61.7606 205.551 62.2016C206.118 62.6426 206.517 63.2567 206.684 63.9457H200.4V63.9544ZM207.929 63.8413C207.816 63.2562 207.581 62.6999 207.24 62.2065C206.9 61.713 206.459 61.2929 205.947 60.9718C205.196 60.5116 204.323 60.2784 203.438 60.3016C202.552 60.3248 201.693 60.6033 200.969 61.1022C200.233 61.6184 199.673 62.3382 199.359 63.1689C199.045 63.9996 198.993 64.9031 199.209 65.7631C199.436 66.6164 199.918 67.3838 200.595 67.9664C201.271 68.5491 202.11 68.9205 203.004 69.0327C203.547 69.1022 204.071 69.0674 204.613 68.9283C205.089 68.8169 205.543 68.6289 205.956 68.3718C206.391 68.1022 206.756 67.737 207.111 67.3109L207.12 67.2848C207.369 66.9892 207.324 66.5631 207.058 66.3631C206.827 66.1892 206.453 66.1283 206.151 66.5022L205.938 66.7805C205.566 67.1898 205.091 67.4973 204.56 67.6727C204.03 67.8482 203.462 67.8855 202.912 67.7811C202.362 67.6767 201.85 67.4342 201.425 67.0773C201 66.7204 200.678 66.2615 200.489 65.7457C200.431 65.5814 200.386 65.4127 200.356 65.2413L200.347 65.1544H206.72C207.591 65.1283 208.053 64.5283 207.929 63.8327V63.8413Z" fill="white"/>
</g>
</g>
<g filter="url(#filter4_dd_0_645)">
<path d="M174 160.72C174 143.047 188.327 128.72 206 128.72C223.673 128.72 238 143.047 238 160.72C238 178.393 223.673 192.72 206 192.72C188.327 192.72 174 178.393 174 160.72Z" fill="#09090B"/>
<g clip-path="url(#clip3_0_645)">
<path d="M205.942 179.268C212.25 169.638 221.125 160.29 226 156.927C225.25 156.068 224.075 154.838 222.75 153.505C216.467 157.194 209.125 165.357 202.575 174.616C203.683 176.112 204.858 177.668 205.942 179.268Z" fill="#E31837"/>
<path d="M203.05 153.12C202.117 152.32 201.1 151.579 200.317 150.927C197.038 153.876 193.9 157.295 190.933 161.149C191.767 161.949 192.683 162.912 193.642 163.875C196.642 159.92 199.683 156.172 203.058 153.12H203.05Z" fill="#4974D5"/>
<path d="M208.675 148.527C206.153 146.457 203.524 144.825 200.825 143.653C200.017 144.201 198.875 144.986 198.092 145.579C199.083 146.068 202.783 147.831 205.942 150.66C206.75 149.964 207.892 149.12 208.675 148.527Z" fill="#E31837"/>
<path d="M195.233 147.831C192.05 150.527 188.966 153.58 186 156.972C186.725 157.564 187.442 158.038 188.433 158.897C191.395 155.238 194.516 152.003 197.767 149.223C196.767 148.586 195.833 148.157 195.233 147.831Z" fill="#4974D5"/>
<path d="M211.325 146.868C212.133 146.394 213.075 145.964 213.883 145.535C211.306 143.586 208.652 141.977 205.942 140.72C205.525 140.927 204.258 141.52 203.383 142.009C204.283 142.483 207.267 143.712 211.325 146.868ZM196.492 166.972C197.458 167.994 198.483 169.372 199.475 170.557C206.058 161.46 212.558 154.468 219.683 150.498C218.692 149.609 217.817 148.794 216.708 147.831C212.433 149.757 205.125 154.942 196.5 166.972H196.492Z" fill="#E31837"/>
</g>
</g>
<g filter="url(#filter5_dd_0_645)">
<path d="M174 256.72C174 239.047 188.327 224.72 206 224.72C223.673 224.72 238 239.047 238 256.72C238 274.393 223.673 288.72 206 288.72C188.327 288.72 174 274.393 174 256.72Z" fill="#09090B"/>
<g clip-path="url(#clip4_0_645)">
<path d="M220.007 270.526V270.38L219.993 270.286V269.64L219.973 269.52V269.186L219.953 269.033L219.92 268.833V268.72L219.907 268.6V268.56L219.887 268.426V268.34L219.867 268.14L219.847 268.046L219.813 267.846L219.8 267.746L219.767 267.553V267.5L219.753 267.366V267.32L219.733 267.233V267.066L219.72 266.96L219.68 266.673L219.647 266.44L219.633 266.32L219.567 265.886L219.433 264.953L219.327 264.233L219.087 262.62L219.033 262.266L219.007 262.08L218.96 261.746L218.933 261.56L218.76 260.366L218.747 260.233L218.64 259.54L218.613 259.406L218.533 258.84L218.453 258.28L218.327 257.433L218.247 256.873L218.167 256.32L218.153 256.186L218.127 256.053L218.087 255.78L218.047 255.506L218.007 255.233L217.973 255.026L217.947 254.82V254.566L217.92 254.42L217.887 254.22V254.18L217.867 254.026L217.847 253.92L217.833 253.826L217.8 253.626L217.767 253.433L217.747 253.24L217.727 253.16L217.713 253.06L217.68 252.86L217.653 252.673L217.633 252.5V252.426L217.433 251.046L217.4 250.833L217.373 250.66V250.64L217.253 249.806L217.213 249.553L217.193 249.38L217.027 248.226L217.007 248.146L216.96 247.793V247.5L216.947 247.386V247.226L216.927 247.146V246.986C216.917 246.917 216.883 246.853 216.833 246.805C216.782 246.756 216.716 246.726 216.647 246.72L214.073 246.54C214.073 246.54 212.36 244.846 212.193 244.66C212.159 244.624 212.117 244.596 212.071 244.576C212.026 244.557 211.976 244.547 211.927 244.546L210.16 272.66L220.007 270.54V270.52V270.526ZM197.873 257.553C197.873 261.086 201.407 261.173 201.407 263.346C201.408 263.513 201.375 263.678 201.31 263.831C201.246 263.985 201.151 264.124 201.032 264.24C200.912 264.356 200.77 264.446 200.615 264.506C200.459 264.565 200.293 264.593 200.127 264.586C198.733 264.586 197.107 263.173 197.107 263.173L196.267 265.933C196.267 265.933 197.867 267.866 200.987 267.866C203.58 267.866 205.513 265.92 205.513 262.866C205.513 259 201.207 258.366 201.207 256.733C201.207 256.426 201.307 255.226 203.22 255.226C204.041 255.242 204.848 255.435 205.587 255.793L206.807 252.186C206.807 252.186 206.007 251.713 204.313 251.686C200.007 251.686 197.867 254.586 197.867 257.553H197.873ZM203.227 255.22C204.048 255.237 204.855 255.433 205.593 255.793L206.813 252.186C206.813 252.186 206.013 251.713 204.32 251.686C200.013 251.686 197.873 254.586 197.873 257.553C197.873 261.086 201.407 261.173 201.407 263.346C201.408 263.513 201.375 263.678 201.31 263.831C201.246 263.985 201.151 264.124 201.032 264.24C200.912 264.356 200.77 264.446 200.615 264.506C200.459 264.565 200.293 264.593 200.127 264.586C198.733 264.586 197.107 263.173 197.107 263.173L196.267 265.933C196.267 265.933 197.867 267.866 200.987 267.866C203.58 267.866 205.513 265.92 205.513 262.866C205.513 259 201.207 258.366 201.207 256.733C201.207 256.426 201.307 255.226 203.22 255.226L203.227 255.22Z" fill="#93BE47"/>
<path d="M220.013 270.546L210.16 272.666L211.533 244.553C211.633 244.553 211.733 244.593 211.8 244.666C211.967 244.853 213.68 246.546 213.68 246.546L216.253 246.726C216.323 246.733 216.389 246.763 216.439 246.811C216.49 246.86 216.523 246.924 216.533 246.993V247.146L216.553 247.226V247.386L216.567 247.493V247.666L216.613 248.013L216.633 248.093L216.8 249.246L216.827 249.426L216.867 249.68L216.987 250.513V250.526L217.007 250.706L217.04 250.92L217.24 252.293L217.28 252.533L217.347 253.013L217.367 253.106L217.453 253.686L217.473 253.786L217.487 253.886L217.513 254.04V254.086L217.56 254.44V254.72L217.593 254.926L217.627 255.133L217.667 255.406L217.707 255.68L217.773 256.086L217.793 256.22L217.873 256.773L217.953 257.333L218.08 258.186L218.16 258.746L218.24 259.306L218.267 259.446L218.367 260.146L218.393 260.28L218.567 261.473L218.593 261.653L218.64 261.986L218.667 262.173L218.72 262.526L218.96 264.146L219.067 264.866L219.2 265.8L219.267 266.233L219.28 266.353L219.313 266.586L219.353 266.873L219.367 266.973V267.146L219.387 267.233V267.246L219.407 267.406V267.466L219.44 267.666L219.453 267.773L219.487 267.973L219.507 268.073L219.527 268.266L219.547 268.353L219.567 268.486V268.526L219.593 268.706V268.76L219.627 268.96L219.647 269.113V269.18L219.673 269.326V269.46L219.687 269.586L219.707 269.686V270.206L219.72 270.306V270.466L220.013 270.546Z" fill="#5F8D3E"/>
<path d="M201.213 256.726C201.213 258.373 205.52 259 205.52 262.873C205.52 265.92 203.587 267.873 200.987 267.873C197.873 267.873 196.273 265.94 196.273 265.94L197.107 263.166C197.107 263.166 198.733 264.573 200.127 264.573C200.293 264.579 200.459 264.552 200.615 264.492C200.77 264.433 200.912 264.342 201.032 264.226C201.151 264.111 201.246 263.972 201.31 263.818C201.375 263.665 201.408 263.5 201.407 263.333C201.407 261.173 197.873 261.08 197.873 257.546C197.873 254.573 200.013 251.68 204.32 251.68C206.007 251.706 206.827 252.173 206.827 252.173L205.6 255.786C204.862 255.426 204.054 255.23 203.233 255.213C201.313 255.226 201.213 256.426 201.213 256.726Z" fill="white"/>
<path d="M211.113 244.566L210.153 244.873C210.067 244.626 209.973 244.386 209.867 244.153C209.267 242.82 208.313 241.726 206.807 241.726H206.653C206.16 241.073 205.533 240.773 205.013 240.773C200.907 240.793 198.947 245.92 198.32 248.546C196.72 249.033 195.6 249.393 195.453 249.426C194.567 249.706 194.533 249.726 194.413 250.566C194.32 251.226 191.987 269.266 191.987 269.266L209.76 272.593L210.16 272.66L211.533 244.56C211.633 244.56 211.733 244.6 211.8 244.673C211.633 244.486 211.253 244.54 211.113 244.573V244.566ZM206.533 245.8V245.966L203.36 246.953C203.987 244.633 205.127 243.48 206.127 243.046C206.427 243.933 206.567 244.866 206.533 245.8ZM204.893 241.893C205.087 241.893 205.267 241.96 205.427 242.066C204.093 242.68 202.693 244.24 202.093 247.36L199.587 248.126C200.293 245.766 201.953 241.893 204.893 241.893ZM205.6 255.786C204.862 255.426 204.054 255.23 203.233 255.213C201.313 255.213 201.22 256.413 201.22 256.72C201.22 258.366 205.527 258.986 205.527 262.866C205.527 265.913 203.593 267.866 200.993 267.866C197.88 267.866 196.28 265.933 196.28 265.933L197.113 263.16C197.113 263.16 198.74 264.566 200.133 264.566C200.3 264.573 200.466 264.545 200.621 264.486C200.777 264.426 200.919 264.336 201.038 264.22C201.158 264.104 201.253 263.965 201.317 263.811C201.382 263.658 201.414 263.493 201.413 263.326C201.413 261.166 197.88 261.073 197.88 257.533C197.88 254.566 200.02 251.666 204.327 251.666C206.013 251.693 206.833 252.166 206.833 252.166L205.6 255.786ZM207.6 245.653V245.32C207.62 244.473 207.487 243.633 207.227 242.833C208.147 242.973 208.767 244.006 209.14 245.193L207.607 245.66L207.6 245.653Z" fill="#93BE47"/>
</g>
</g>
<g filter="url(#filter6_dd_0_645)">
<path d="M316 32.7197C316 15.0466 330.327 0.719727 348 0.719727C365.673 0.719727 380 15.0466 380 32.7197C380 50.3928 365.673 64.7197 348 64.7197C330.327 64.7197 316 50.3928 316 32.7197Z" fill="#09090B"/>
<g clip-path="url(#clip5_0_645)">
<path d="M361.453 43.7835C346.362 50.7198 336.997 44.9162 331.001 41.392C330.63 41.1704 330 41.4446 330.546 42.0511C332.544 44.39 339.089 50.0275 347.633 50.0275C356.184 50.0275 361.271 45.5214 361.906 44.7362C362.537 43.9566 362.092 43.5273 361.453 43.7835ZM365.692 41.5235C365.286 41.0139 363.227 40.9198 361.932 41.0735C360.634 41.2217 358.685 41.9874 358.854 42.4486C358.942 42.6203 359.12 42.5427 360.01 42.4652C360.905 42.3793 363.409 42.0747 363.931 42.7325C364.456 43.3971 363.132 46.5558 362.891 47.0668C362.657 47.575 362.98 47.7066 363.419 47.3673C363.85 47.028 364.633 46.1487 365.16 44.9066C365.682 43.6561 365.999 41.9113 365.69 41.5235H365.692Z" fill="#FF9900"/>
<path fill-rule="evenodd" clip-rule="evenodd" d="M351.305 29.6324C351.305 31.452 351.354 32.9697 350.402 34.5857C349.632 35.8999 348.414 36.7072 347.054 36.7072C345.196 36.7072 344.114 35.3418 344.114 33.3242C344.114 29.343 347.809 28.6201 351.305 28.6201V29.6324ZM356.184 41.018C356.028 41.1464 355.835 41.2259 355.63 41.2456C355.426 41.2654 355.221 41.2247 355.041 41.1288C353.435 39.8409 353.15 39.2441 352.265 38.0158C349.612 40.6303 347.733 41.4113 344.292 41.4113C340.223 41.4113 337.053 38.9879 337.053 34.1329C337.053 30.3414 339.182 27.7602 342.209 26.4986C344.837 25.3825 348.503 25.1845 351.305 24.8757V24.2719C351.305 23.1613 351.394 21.8485 350.72 20.8889C350.13 20.0276 349 19.6731 348.006 19.6731C346.163 19.6731 344.517 20.587 344.115 22.4786C344.033 22.8982 343.714 23.3123 343.278 23.3316L338.584 22.847C338.19 22.7611 337.754 22.4523 337.863 21.8666C338.944 16.3759 344.081 14.7197 348.68 14.7197C351.034 14.7197 354.109 15.3235 355.966 17.0461C358.321 19.1676 358.096 21.9981 358.096 25.0792V32.359C358.096 34.5469 359.035 35.5052 359.918 36.6878C360.232 37.1088 360.3 37.6156 359.904 37.9299C358.655 38.9496 357.42 39.9836 356.197 41.0318L356.183 41.018" fill="#A3A7B1"/>
<path d="M361.453 43.7835C346.362 50.7198 336.997 44.9162 331.001 41.392C330.63 41.1704 330 41.4446 330.546 42.0511C332.544 44.39 339.089 50.0275 347.633 50.0275C356.184 50.0275 361.271 45.5214 361.906 44.7362C362.537 43.9566 362.092 43.5273 361.453 43.7835ZM365.692 41.5235C365.286 41.0139 363.227 40.9198 361.932 41.0735C360.634 41.2217 358.685 41.9874 358.854 42.4486C358.942 42.6203 359.12 42.5427 360.01 42.4652C360.905 42.3793 363.409 42.0747 363.931 42.7325C364.456 43.3971 363.132 46.5558 362.891 47.0668C362.657 47.575 362.98 47.7066 363.419 47.3673C363.85 47.028 364.633 46.1487 365.16 44.9066C365.682 43.6561 365.999 41.9113 365.69 41.5235H365.692Z" fill="#FF9900"/>
<path fill-rule="evenodd" clip-rule="evenodd" d="M351.305 29.6324C351.305 31.452 351.354 32.9697 350.402 34.5857C349.632 35.8999 348.414 36.7072 347.054 36.7072C345.196 36.7072 344.114 35.3418 344.114 33.3242C344.114 29.343 347.809 28.6201 351.305 28.6201V29.6324ZM356.184 41.018C356.028 41.1464 355.835 41.2259 355.63 41.2456C355.426 41.2654 355.221 41.2247 355.041 41.1288C353.435 39.8409 353.15 39.2441 352.265 38.0158C349.612 40.6303 347.733 41.4113 344.292 41.4113C340.223 41.4113 337.053 38.9879 337.053 34.1329C337.053 30.3414 339.182 27.7602 342.209 26.4986C344.837 25.3825 348.503 25.1845 351.305 24.8757V24.2719C351.305 23.1613 351.394 21.8485 350.72 20.8889C350.13 20.0276 349 19.6731 348.006 19.6731C346.163 19.6731 344.517 20.587 344.115 22.4786C344.033 22.8982 343.714 23.3123 343.278 23.3316L338.584 22.847C338.19 22.7611 337.754 22.4523 337.863 21.8666C338.944 16.3759 344.081 14.7197 348.68 14.7197C351.034 14.7197 354.109 15.3235 355.966 17.0461C358.321 19.1676 358.096 21.9981 358.096 25.0792V32.359C358.096 34.5469 359.035 35.5052 359.918 36.6878C360.232 37.1088 360.3 37.6156 359.904 37.9299C358.655 38.9496 357.42 39.9836 356.197 41.0318L356.183 41.018" fill="#A3A7B1"/>
</g>
</g>
<g filter="url(#filter7_dd_0_645)">
<path d="M316 128.72C316 111.047 330.327 96.7197 348 96.7197C365.673 96.7197 380 111.047 380 128.72C380 146.393 365.673 160.72 348 160.72C330.327 160.72 316 146.393 316 128.72Z" fill="#09090B"/>
<g clip-path="url(#clip6_0_645)">
<path d="M348 148.72C353.304 148.72 358.391 146.613 362.142 142.862C365.893 139.111 368 134.024 368 128.72C368 123.415 365.893 118.328 362.142 114.578C358.391 110.827 353.304 108.72 348 108.72C342.696 108.72 337.609 110.827 333.858 114.578C330.107 118.328 328 123.415 328 128.72C328 134.024 330.107 139.111 333.858 142.862C337.609 146.613 342.696 148.72 348 148.72Z" fill="#2CA01C"/>
<path d="M333.556 128.72C333.556 130.783 334.376 132.761 335.834 134.22C337.293 135.678 339.271 136.498 341.334 136.498H342.444V133.607H341.334C340.038 133.607 338.794 133.092 337.877 132.175C336.96 131.258 336.445 130.015 336.445 128.718C336.445 127.422 336.96 126.178 337.877 125.261C338.794 124.344 340.038 123.829 341.334 123.829H344V138.942C344 139.708 344.304 140.443 344.846 140.985C345.387 141.527 346.121 141.831 346.887 141.832V120.939H341.334C340.312 120.938 339.3 121.139 338.356 121.53C337.412 121.921 336.554 122.494 335.831 123.217C335.109 123.939 334.535 124.797 334.145 125.742C333.754 126.686 333.553 127.698 333.553 128.72H333.556ZM354.666 120.942H353.556V123.832H354.666C355.962 123.832 357.205 124.347 358.122 125.264C359.038 126.18 359.553 127.424 359.553 128.72C359.553 130.016 359.038 131.259 358.122 132.176C357.205 133.092 355.962 133.607 354.666 133.607H352V118.501C352 117.735 351.696 117.001 351.154 116.459C350.613 115.918 349.878 115.614 349.112 115.614V136.501H354.666C356.729 136.501 358.707 135.682 360.166 134.223C361.624 132.764 362.444 130.786 362.444 128.723C362.444 126.66 361.624 124.682 360.166 123.223C358.707 121.764 356.729 120.945 354.666 120.945V120.942Z" fill="white"/>
</g>
</g>
<g filter="url(#filter8_dd_0_645)">
<path d="M316 224.72C316 207.047 330.327 192.72 348 192.72C365.673 192.72 380 207.047 380 224.72C380 242.393 365.673 256.72 348 256.72C330.327 256.72 316 242.393 316 224.72Z" fill="#09090B"/>
<path d="M363.083 224.161C363.167 222.853 363.517 222.245 364.192 222.245C364.858 222.245 365.192 222.87 365.242 224.161H363.075H363.083ZM367.992 224.936C367.992 223.478 367.667 222.32 367.05 221.511C366.714 221.096 366.284 220.766 365.796 220.549C365.308 220.332 364.775 220.233 364.242 220.261C361.75 220.261 360.2 222.095 360.2 225.053C360.2 226.703 360.617 227.936 361.433 228.728C362.25 229.52 363.208 229.786 364.567 229.786C365.667 229.844 366.761 229.574 367.708 229.011L367.392 227.003C366.617 227.403 365.758 227.611 364.892 227.603C364.317 227.603 363.933 227.478 363.65 227.228C363.367 226.978 363.167 226.553 363.108 225.936H367.958L367.992 224.936ZM356.283 226.92C356.033 227.37 355.683 227.603 355.25 227.603C354.975 227.605 354.704 227.542 354.458 227.42V223.061C354.958 222.536 355.4 222.478 355.567 222.478C356.317 222.478 356.683 223.278 356.683 224.853C356.683 225.753 356.55 226.453 356.283 226.92ZM358.708 221.253C358.455 220.926 358.127 220.664 357.751 220.49C357.375 220.316 356.964 220.235 356.55 220.253C355.633 220.253 354.967 220.611 354.258 221.361L354.108 220.445H351.542V233.011L354.467 232.528V229.578C354.9 229.711 355.342 229.786 355.792 229.786C356.279 229.798 356.764 229.708 357.214 229.521C357.665 229.335 358.072 229.056 358.408 228.703C359.242 227.803 359.6 226.511 359.6 224.753C359.6 223.186 359.3 222.003 358.708 221.253ZM347.45 220.428H350.392V229.611H347.45V220.428ZM348.917 219.52C349.328 219.52 349.722 219.356 350.013 219.066C350.303 218.775 350.467 218.381 350.467 217.97C350.467 217.559 350.303 217.164 350.013 216.874C349.722 216.583 349.328 216.42 348.917 216.42C348.506 216.42 348.111 216.583 347.821 216.874C347.53 217.164 347.367 217.559 347.367 217.97C347.367 218.381 347.53 218.775 347.821 219.066C348.111 219.356 348.506 219.52 348.917 219.52ZM346.183 220.303C345.35 220.303 344.683 220.728 344.433 221.511L344.25 220.42H341.7V229.603H344.633V223.653C345 223.203 345.508 223.036 346.217 223.036C346.392 223.036 346.567 223.053 346.742 223.078V220.386C346.562 220.337 346.378 220.309 346.192 220.303H346.183ZM340.567 222.603L340.917 220.436H339.058V217.803L336.55 218.211L336.192 220.428L335.3 220.57L334.967 222.603H336.183V226.853C336.183 227.97 336.458 228.736 337.042 229.211C337.625 229.678 338.217 229.795 339.2 229.795C339.717 229.795 340.233 229.72 340.733 229.578V227.278C340.45 227.353 340.167 227.395 339.883 227.411C339.3 227.411 339.05 227.12 339.05 226.436V222.603H340.567ZM332.192 223.886C331.333 223.57 330.858 223.32 330.858 222.928C330.858 222.536 331.133 222.411 331.617 222.411C332.5 222.411 333.408 222.745 334.033 223.061L334.392 220.878C333.478 220.456 332.481 220.243 331.475 220.253C330.612 220.213 329.761 220.472 329.067 220.986C328.483 221.47 328.133 222.236 328.133 223.12C328.133 224.72 329.108 225.411 330.7 225.986C331.733 226.361 332.067 226.62 332.067 227.02C332.067 227.42 331.733 227.628 331.142 227.628C330.542 227.628 329.167 227.261 328.367 226.795L328.008 229.003C329.025 229.522 330.15 229.79 331.292 229.786C332.342 229.786 333.208 229.536 333.8 229.07C334.383 228.603 334.8 227.778 334.8 226.786C334.808 225.153 333.808 224.47 332.192 223.886Z" fill="#5C65EA"/>
</g>
<g filter="url(#filter9_dd_0_645)">
<path d="M458 64.7197C458 47.0466 472.327 32.7197 490 32.7197C507.673 32.7197 522 47.0466 522 64.7197C522 82.3928 507.673 96.7197 490 96.7197C472.327 96.7197 458 82.3928 458 64.7197Z" fill="#09090B"/>
<g clip-path="url(#clip7_0_645)">
<path d="M510 53.2395V80.6745L508.688 84.3807V57.5333L510 53.2395Z" fill="#E79225"/>
<path d="M501.398 53.2621L500.039 57.5333L500.109 57.8045L508.633 57.7141L508.711 57.5333L510 53.2395L501.398 53.2621Z" fill="#FFF16D"/>
<path d="M500.039 57.5332H508.711V84.4033H500.039V57.5332Z" fill="url(#paint1_linear_0_645)"/>
<path d="M507.391 67.2057C507.219 65.9627 506.961 64.8328 506.625 63.861C506.305 62.9119 505.945 62.1887 505.539 61.7141C505.141 61.2396 504.711 60.991 504.242 60.991C503.773 60.991 503.336 61.2396 502.938 61.7141C502.531 62.1887 502.172 62.9119 501.852 63.861C501.516 64.8328 501.266 65.9627 501.094 67.2057C500.922 68.4486 500.844 69.8045 500.844 71.2961C500.844 72.7424 500.93 74.0983 501.102 75.3638C501.272 76.6303 501.53 77.7835 501.859 78.7537C502.172 79.6802 502.531 80.3808 502.93 80.8554C503.328 81.3299 503.773 81.5785 504.25 81.5785C504.691 81.5881 505.128 81.3433 505.536 80.8582C505.944 80.3732 506.314 79.6577 506.625 78.7537C506.961 77.7593 507.219 76.6294 507.391 75.3864C507.565 74.0903 507.653 72.7097 507.648 71.3186C507.648 69.8045 507.563 68.4486 507.391 67.2057ZM505.602 76.0644C505.266 77.217 504.82 77.8045 504.242 77.8045C503.664 77.8045 503.211 77.217 502.875 76.0644C502.539 74.9119 502.375 73.3074 502.375 71.2735C502.375 69.1944 502.547 67.5898 502.875 66.4147C503.211 65.2396 503.656 64.6746 504.242 64.6746C504.82 64.6746 505.266 65.2622 505.602 66.4147C505.93 67.5898 506.102 69.1944 506.102 71.2735C506.102 73.3074 505.938 74.9119 505.602 76.0644Z" fill="white"/>
<path d="M499.188 51.0022V51.1378L500.297 75.7932L499.648 80.9909L499.563 80.8101L498.422 57.1717L498.445 56.8553L499.156 51.1378L499.188 51.0022Z" fill="#009ADA"/>
<path d="M490.648 54.4372L499.188 51.0022L498.469 56.9231L498.367 57.2395L490.383 60.6293L490.422 56.4033L490.648 54.4372Z" fill="#91C9ED"/>
<path d="M498.469 56.9231L499.648 80.9909L491.234 84.4033L490.102 61.1491L490.594 60.0417L498.469 56.9231Z" fill="url(#paint2_linear_0_645)"/>
<path d="M497.039 61.5333C497 60.7875 496.914 60.2226 496.773 59.8384C496.657 59.5415 496.507 59.3804 496.352 59.3864C496.312 59.3864 496.266 59.3864 496.219 59.409C496 59.4994 495.836 59.7932 495.734 60.2678C495.656 60.6067 495.625 61.0361 495.625 61.5333C495.625 61.7141 495.633 61.9175 495.641 62.1209L495.945 68.3807L493.523 69.4203L493.219 63.1604C493.18 62.4372 493.094 61.8723 492.953 61.4881C492.842 61.1799 492.693 61.0096 492.539 61.0135C492.5 61.0135 492.461 61.0135 492.422 61.0361C492.195 61.1265 492.023 61.4203 491.914 61.8949C491.836 62.2339 491.805 62.6632 491.805 63.1604C491.805 63.3412 491.812 63.5446 491.82 63.7706L492.648 80.0644C492.687 80.8101 492.773 81.3751 492.93 81.7593C493.047 82.0531 493.187 82.1887 493.359 82.1887C493.406 82.1887 493.453 82.1887 493.5 82.1661C493.596 82.1353 493.687 82.042 493.769 81.8932C493.85 81.7444 493.918 81.544 493.969 81.3073C494.039 80.9683 494.07 80.5615 494.07 80.087C494.07 79.9062 494.062 79.7028 494.055 79.4994L493.719 73.0587L496.141 72.0192L496.477 78.4598C496.516 79.2056 496.602 79.7706 496.75 80.1322C496.866 80.4291 497.017 80.5902 497.172 80.5841C497.211 80.5841 497.258 80.5841 497.305 80.5615C497.523 80.4711 497.688 80.1774 497.789 79.7028C497.859 79.3638 497.898 78.957 497.898 78.4598C497.898 78.2791 497.891 78.0757 497.883 77.8723L497.039 61.5333Z" fill="white"/>
<path d="M482.656 44.7197L479.617 65.6011L480.031 74.7762L480.055 74.7536L483.469 52.5389L483.453 52.0644L482.719 45.0135L482.656 44.7197Z" fill="#66BF6B"/>
<path d="M482.656 44.7197L483.445 52.3807L483.461 52.5389L490.977 62.279L491 62.2339L490.359 54.9118L482.656 44.7197Z" fill="#98D0A0"/>
<path d="M483.445 52.3809L491 62.234L487.586 84.6294L480.031 74.7763L483.445 52.3809Z" fill="url(#paint3_linear_0_645)"/>
<path d="M488.711 64.0418C488.547 62.7763 488.32 61.6915 488.023 60.7876C487.727 59.8836 487.367 59.1604 486.945 58.6407C486.523 58.1209 486.102 57.8723 485.672 57.8723H485.648C485.211 57.8723 484.781 58.1661 484.359 58.7085C483.914 59.2734 483.531 60.0418 483.203 61.0588C482.863 62.1131 482.593 63.3386 482.406 64.6746C482.203 66.0531 482.094 67.4542 482.07 68.8328V69.3073C482.07 70.5277 482.141 71.7254 482.289 72.9006C482.445 74.1435 482.672 75.2056 482.969 76.1096C483.266 77.0136 483.633 77.7367 484.07 78.2565C484.484 78.7763 484.906 79.0249 485.336 79.0249H485.344C485.773 79.0249 486.203 78.7537 486.625 78.2339C487.07 77.6689 487.461 76.878 487.789 75.861C488.117 74.8667 488.391 73.6689 488.594 72.2678C488.797 70.8667 488.906 69.4881 488.93 68.1096V67.7028C488.938 66.4599 488.867 65.2395 488.711 64.0418ZM487.203 70.5503C486.922 72.4938 486.539 73.8271 486.078 74.5503C485.828 74.9345 485.57 75.1379 485.312 75.1379C485.086 75.1379 484.844 74.9797 484.602 74.6859C484.07 74.0305 483.742 72.991 483.602 71.4994C483.555 71.0023 483.531 70.4825 483.531 69.9401C483.531 68.8554 483.625 67.6576 483.813 66.3695C484.102 64.3808 484.484 63.0249 484.945 62.2791C485.195 61.8723 485.453 61.6915 485.711 61.6915C485.945 61.6915 486.18 61.8497 486.43 62.1435C486.953 62.7989 487.281 63.8384 487.422 65.3299C487.469 65.8045 487.492 66.3243 487.492 66.8667C487.492 67.9966 487.398 69.2169 487.203 70.5503Z" fill="white"/>
<path d="M479.016 48.2678L480.25 72.1774L479.688 80.5842L479.609 80.2904L478.406 57.1944V56.7424L478.938 48.6746L479.016 48.2678Z" fill="#760D16"/>
<path d="M470 60.6294L470.586 52.1774L479.016 48.2678L478.445 56.878V57.443L470.102 60.8554L470 60.6294Z" fill="#EF463E"/>
<path d="M478.445 56.8779L479.688 80.5841L471.344 84.3582L470 60.6293L478.445 56.8779Z" fill="url(#paint4_linear_0_645)"/>
<path d="M477.547 76.81C477.484 76.584 477.391 76.4258 477.281 76.3128C477.172 76.1999 477.039 76.1547 476.875 76.1547C476.727 76.1547 476.555 76.1999 476.367 76.2902L474.164 77.375C474.187 76.8778 474.273 76.2451 474.422 75.4541C474.586 74.5727 474.836 73.5106 475.156 72.2902C475.266 71.8609 475.352 71.5445 475.414 71.3185C475.453 71.1603 475.516 70.9569 475.594 70.6631C476.102 68.7422 476.406 67.1829 476.531 65.9626C476.602 65.262 476.641 64.5614 476.656 63.8609C476.664 63.6575 476.664 63.4767 476.664 63.2959C476.664 62.7987 476.648 62.3015 476.617 61.8044C476.594 61.3524 476.555 60.9908 476.5 60.697C476.445 60.4032 476.383 60.1773 476.305 60.0417C476.219 59.8835 476.086 59.8157 475.922 59.8157C475.789 59.8157 475.625 59.8609 475.43 59.9513L472.883 61.2168C472.578 61.375 472.344 61.6236 472.203 62.0304C472.147 62.1799 472.103 62.362 472.074 62.5646C472.044 62.7672 472.03 62.9856 472.031 63.2055C472.031 63.3185 472.031 63.4541 472.039 63.5897C472.078 64.2225 472.187 64.6744 472.367 64.9004C472.477 65.036 472.602 65.1038 472.758 65.1038C472.859 65.1038 472.977 65.0812 473.102 65.0134L475.227 63.9287C475.227 64.0417 475.234 64.1547 475.234 64.2451C475.234 64.6292 475.211 65.0134 475.164 65.375C475.102 65.8948 474.945 66.6179 474.687 67.5445C474.617 67.7931 474.508 68.1999 474.359 68.7196C473.781 70.7309 473.375 72.4484 473.125 73.8722C472.945 74.8665 472.828 75.8157 472.758 76.7874C472.719 77.3524 472.695 77.8722 472.695 78.3919C472.695 78.7535 472.703 79.1151 472.727 79.4541C472.758 79.9513 472.797 80.358 472.852 80.6744C472.906 80.9908 472.984 81.2394 473.07 81.375C473.156 81.5106 473.273 81.5558 473.445 81.5558C473.656 81.5558 473.945 81.4654 474.312 81.2846L476.625 80.1321C477.031 79.9287 477.32 79.6349 477.484 79.2507C477.617 78.9343 477.688 78.5049 477.688 78.0078C477.688 77.8722 477.68 77.7366 477.672 77.601C477.656 77.3072 477.617 77.036 477.547 76.81Z" fill="white"/>
</g>
</g>
<g filter="url(#filter10_dd_0_645)">
<path d="M458 160.72C458 143.047 472.327 128.72 490 128.72C507.673 128.72 522 143.047 522 160.72C522 178.393 507.673 192.72 490 192.72C472.327 192.72 458 178.393 458 160.72Z" fill="#09090B"/>
<g clip-path="url(#clip8_0_645)">
<path fill-rule="evenodd" clip-rule="evenodd" d="M480.681 146.72H499.319C500.56 146.72 501.751 147.213 502.629 148.091C503.507 148.969 504 150.159 504 151.401V170.038C504 172.62 501.9 174.72 499.319 174.72H480.681C479.44 174.72 478.249 174.227 477.371 173.349C476.493 172.471 476 171.28 476 170.038V151.401C476 148.811 478.1 146.72 480.681 146.72ZM497.438 169.627C498.251 169.627 498.916 168.971 498.916 168.148V153.291C498.916 152.468 498.251 151.803 497.429 151.803H482.571C482.376 151.803 482.183 151.842 482.003 151.917C481.823 151.992 481.66 152.101 481.523 152.24C481.385 152.378 481.276 152.542 481.203 152.722C481.129 152.903 481.091 153.096 481.093 153.291V168.148C481.093 168.971 481.758 169.636 482.571 169.636H497.438V169.627Z" fill="#A3A7B1"/>
<path d="M487.025 164.517C486.801 164.515 486.588 164.424 486.431 164.266C486.273 164.107 486.185 163.892 486.185 163.668V157.736C486.184 157.624 486.205 157.512 486.247 157.408C486.289 157.304 486.352 157.21 486.43 157.13C486.509 157.05 486.603 156.987 486.707 156.944C486.81 156.901 486.922 156.878 487.034 156.878H492.984C493.095 156.88 493.205 156.903 493.308 156.946C493.41 156.99 493.503 157.054 493.581 157.133C493.659 157.213 493.721 157.307 493.763 157.41C493.804 157.514 493.825 157.624 493.824 157.736V163.668C493.824 163.894 493.734 164.109 493.575 164.269C493.416 164.428 493.2 164.517 492.975 164.517H487.025Z" fill="#A3A7B1"/>
</g>
</g>
<g filter="url(#filter11_dd_0_645)">
<path d="M458 256.72C458 239.047 472.327 224.72 490 224.72C507.673 224.72 522 239.047 522 256.72C522 274.393 507.673 288.72 490 288.72C472.327 288.72 458 274.393 458 256.72Z" fill="#09090B"/>
<g clip-path="url(#clip9_0_645)">
<path d="M505.671 243.294H474.4V269.475H505.671V243.303V243.294Z" fill="white"/>
<path d="M474 269.84H506V242.938H474V269.84ZM495.004 264.019H487.556V251.399H491.289V261.797H494.898C497.387 261.797 498.427 260.162 498.427 256.003C498.427 251.799 497.236 250.581 494.72 250.581H486.507V264.019H482.8V250.581H477.36V248.36H495.867C500.338 248.36 502.462 250.519 502.462 255.976C502.462 263.148 499.289 264.028 495.004 264.028V264.019Z" fill="#54B848"/>
</g>
</g>
<g filter="url(#filter12_dd_0_645)">
<path d="M600 32.7197C600 15.0466 614.327 0.719727 632 0.719727C649.673 0.719727 664 15.0466 664 32.7197C664 50.3928 649.673 64.7197 632 64.7197C614.327 64.7197 600 50.3928 600 32.7197Z" fill="#09090B"/>
<g clip-path="url(#clip10_0_645)">
<path d="M624.3 40.5784L624.225 40.6534C623.742 41.1915 623.154 41.6262 622.498 41.9312C621.842 42.2362 621.131 42.4053 620.408 42.4282C617.575 42.4282 615.517 40.2951 615.517 37.3622C615.517 34.4292 617.575 32.3045 620.408 32.3045C621.767 32.3045 623.092 32.9211 624.225 34.0793L624.3 34.1543L626.125 31.9462L626.075 31.8879C625.414 31.0441 624.567 30.3645 623.6 29.9019C622.633 29.4394 621.572 29.2066 620.5 29.2216C618.25 29.2216 616.2 29.9798 614.725 31.338C613.117 32.8211 612.267 34.8958 612.267 37.3622C612.267 39.8285 613.117 41.9116 614.725 43.3864C616.314 44.7967 618.376 45.5555 620.5 45.5111C621.573 45.5274 622.636 45.2952 623.604 44.8326C624.573 44.3701 625.421 43.6897 626.083 42.8448L626.125 42.7865L624.3 40.5784ZM627.967 45.2112H631.192V29.4799H627.967V45.2112ZM643.817 41.7949C643.109 42.2687 642.284 42.5395 641.433 42.5782C640.392 42.5782 639.917 42.0283 639.917 40.8034V32.4545H643.208V29.4965H639.917V24.5972L636.767 26.2969V29.5049H634.042V32.4628H636.767V41.345C636.767 43.7614 638.2 45.4111 640.333 45.4611C641.792 45.4861 642.667 45.0529 643.192 44.7362L643.225 44.7112L644 41.6783L643.817 41.7949ZM646.483 45.2112H649.708V29.4799H646.483V45.2112Z" fill="#3471A8"/>
<path d="M651.583 26.7136C650.127 24.6713 648.207 23.0042 645.98 21.8497C643.753 20.6951 641.283 20.0861 638.775 20.0728C636.267 20.0893 633.798 20.7015 631.573 21.859C629.347 23.0164 627.429 24.686 625.975 26.7302L625.825 26.9469H629.533L629.575 26.8969C630.76 25.6466 632.187 24.6492 633.768 23.9647C635.349 23.2803 637.052 22.9229 638.775 22.9141C642.167 22.9141 645.458 24.2972 647.983 26.8969L648.025 26.9469H651.733L651.583 26.7302V26.7136Z" fill="#EE1C25"/>
</g>
</g>
<g filter="url(#filter13_dd_0_645)">
<path d="M600 128.72C600 111.047 614.327 96.7197 632 96.7197C649.673 96.7197 664 111.047 664 128.72C664 146.393 649.673 160.72 632 160.72C614.327 160.72 600 146.393 600 128.72Z" fill="#09090B"/>
<g clip-path="url(#clip11_0_645)">
<path d="M644.876 135.409C644.495 135.135 645.272 135.684 644.876 135.409C644.994 135.487 645.091 135.592 645.159 135.716C645.227 135.839 645.264 135.977 645.268 136.118C645.271 136.259 645.24 136.399 645.178 136.525C645.116 136.652 645.024 136.762 644.911 136.845C644.797 136.929 644.665 136.983 644.526 137.005C644.387 137.027 644.244 137.014 644.111 136.969C643.977 136.924 643.856 136.847 643.759 136.745C643.661 136.644 643.59 136.52 643.55 136.384C643.436 136.034 643.566 135.63 643.87 135.424C644.175 135.219 644.571 135.196 644.876 135.409ZM633.714 143.546C633.905 143.546 634.118 143.546 634.309 143.531C634.705 143.516 635.109 143.478 635.49 143.432C634.834 143.508 635.81 143.402 635.49 143.432C635.893 143.386 636.213 143.752 636.13 144.156C636.104 144.242 636.062 144.321 636.004 144.39C635.946 144.458 635.875 144.513 635.794 144.552C635.68 144.598 635.566 144.598 635.459 144.613C634.273 144.73 633.078 144.725 631.893 144.598C629.057 144.29 626.361 143.2 624.107 141.451C621.531 139.475 619.605 136.774 618.575 133.695C617.531 130.488 617.52 127.034 618.545 123.821C619.386 121.21 620.883 118.859 622.894 116.993C624.905 115.128 627.361 113.81 630.027 113.167C632.694 112.524 635.481 112.576 638.121 113.32C640.761 114.063 643.166 115.473 645.105 117.413C645.428 117.684 645.694 118.017 645.886 118.393C646.079 118.768 646.194 119.179 646.225 119.6C646.251 120 646.197 120.402 646.066 120.781C645.936 121.161 645.73 121.51 645.463 121.809C644.995 122.328 644.365 122.672 643.676 122.787C642.987 122.902 642.28 122.78 641.669 122.442C641.464 122.332 641.277 122.193 641.112 122.03C640.914 121.855 640.739 121.649 640.549 121.474C639.34 120.348 637.869 119.543 636.269 119.131C634.669 118.72 632.992 118.716 631.39 119.12C630.339 119.394 629.333 119.844 628.404 120.43C626.595 121.629 625.222 123.379 624.488 125.421C623.734 127.528 623.729 129.831 624.472 131.943C625.184 133.986 626.55 135.737 628.358 136.925C630.222 138.165 632.453 138.729 634.682 138.525C635.771 138.426 636.838 138.16 637.851 137.71C637.958 137.664 638.057 137.596 638.171 137.581C638.265 137.563 638.362 137.568 638.453 137.596C638.651 137.664 638.789 137.809 638.834 138C638.888 138.175 638.857 138.381 638.728 138.533C638.654 138.607 638.566 138.664 638.469 138.701C638.347 138.746 638.232 138.815 638.103 138.861C636.036 139.721 633.758 139.939 631.566 139.485C631.71 139.638 631.84 139.821 631.97 139.996L632.335 140.537L632.396 140.636H632.442L632.625 140.651L632.96 140.682C634.527 140.799 636.103 140.606 637.595 140.111C639.087 139.617 640.466 138.832 641.653 137.802L642.133 137.375C642.278 137.245 642.385 137.085 642.568 137.009C642.717 136.934 642.884 136.903 643.05 136.92C643.216 136.937 643.374 137.002 643.504 137.106C643.634 137.211 643.732 137.351 643.785 137.509C643.837 137.668 643.843 137.838 643.802 138C643.749 138.175 643.665 138.32 643.535 138.426L643.078 138.884C641.785 140.052 640.283 140.967 638.651 141.581C636.928 142.201 635.103 142.491 633.272 142.434C633.349 142.64 633.41 142.853 633.478 143.059L633.554 143.348C633.554 143.379 633.592 143.455 633.592 143.455L633.714 143.531V143.546ZM642.636 140.605C640.99 141.824 642.895 140.415 642.636 140.605C642.712 140.537 642.827 140.491 642.956 140.453C643.065 140.45 643.172 140.476 643.267 140.528C643.362 140.58 643.442 140.657 643.497 140.75C643.611 140.941 643.611 141.192 643.482 141.375C643.406 141.482 643.291 141.55 643.192 141.626L642.842 141.87C642.613 142.023 642.385 142.19 642.141 142.327C640.707 143.22 639.137 143.874 637.493 144.263C637.25 144.316 637.013 144.278 636.853 144.072C636.78 143.987 636.735 143.882 636.722 143.77C636.71 143.659 636.732 143.546 636.785 143.447C636.826 143.35 636.898 143.27 636.99 143.219C637.105 143.158 637.234 143.143 637.349 143.112C637.615 143.051 637.882 142.967 638.164 142.884C639.776 142.386 641.289 141.613 642.636 140.598V140.605ZM644.556 138.876C644.343 139.104 644.785 138.64 644.556 138.876C644.618 138.812 644.693 138.762 644.776 138.732C644.86 138.701 644.949 138.69 645.038 138.7C645.126 138.709 645.211 138.739 645.286 138.787C645.361 138.835 645.424 138.899 645.47 138.975C645.547 139.104 645.562 139.28 645.531 139.424C645.468 139.599 645.357 139.752 645.211 139.866C645.059 140.026 644.907 140.186 644.747 140.331C644.677 140.399 644.593 140.451 644.501 140.481C644.408 140.512 644.31 140.52 644.213 140.506C644.134 140.491 644.058 140.46 643.991 140.414C643.924 140.369 643.867 140.31 643.825 140.241C643.782 140.172 643.753 140.095 643.742 140.015C643.73 139.935 643.735 139.853 643.756 139.775C643.817 139.6 643.962 139.485 644.091 139.356C644.244 139.204 644.411 139.036 644.549 138.876H644.556ZM640.93 135.524C640.366 136.11 641.15 135.295 640.93 135.524C641.024 135.429 641.146 135.369 641.279 135.351C641.411 135.333 641.545 135.359 641.661 135.424C641.897 135.569 641.996 135.874 641.897 136.125C641.836 136.255 641.745 136.354 641.646 136.445C641.531 136.56 641.44 136.674 641.326 136.765C641.135 136.941 640.945 137.116 640.747 137.276L640.091 137.756C639.855 137.931 639.566 137.954 639.345 137.756C639.252 137.678 639.187 137.572 639.158 137.454C639.129 137.337 639.138 137.213 639.185 137.101C639.234 136.992 639.313 136.899 639.413 136.834L639.756 136.575C640.175 136.255 640.556 135.904 640.93 135.524ZM633.783 124.933C633.973 124.933 634.164 124.956 634.37 124.956C635.289 125.161 636.101 125.699 636.646 126.467C637.192 127.236 637.434 128.179 637.325 129.115C637.216 130.051 636.764 130.913 636.057 131.535C635.349 132.158 634.436 132.495 633.493 132.484C632.731 132.438 631.97 132.133 631.383 131.638C630.931 131.272 630.569 130.806 630.328 130.277C630.086 129.748 629.971 129.17 629.991 128.588C630.011 128.007 630.166 127.438 630.443 126.927C630.72 126.416 631.112 125.976 631.589 125.642C632.229 125.184 632.998 124.941 633.783 124.941V124.933Z" fill="#FF6C36"/>
</g>
</g>
<g filter="url(#filter14_dd_0_645)">
<path d="M600 224.72C600 207.047 614.327 192.72 632 192.72C649.673 192.72 664 207.047 664 224.72C664 242.393 649.673 256.72 632 256.72C614.327 256.72 600 242.393 600 224.72Z" fill="#09090B"/>
<g clip-path="url(#clip12_0_645)">
<path d="M634.255 234.622V210.173L632.16 210.478C626.778 211.394 621.404 211.932 616 212.812V235.938C621.316 236.825 626.705 237.704 632.058 238.628H634.24V234.622H634.262H634.255ZM626.342 229.547C625.67 228.2 625.08 226.814 624.575 225.396C624.087 226.741 623.418 227.999 622.873 229.322C622.102 229.322 621.331 229.278 620.56 229.249C621.462 227.585 622.335 225.905 623.265 224.262C622.473 222.554 621.607 220.889 620.793 219.202L623.12 219.079C623.636 220.365 624.211 221.645 624.647 222.968C625.135 221.565 625.796 220.22 626.393 218.882L628.778 218.744C627.847 220.554 626.902 222.365 625.956 224.182L628.873 229.722C628.029 229.649 627.185 229.606 626.342 229.547ZM635.149 213.343V215.095H638.865V217.683H635.149V219.1H638.865V221.689H635.149V223.113H638.865V225.694H635.149V227.112H638.865V229.678H635.149V231.183H638.865V233.684H635.149V235.436H648V213.343H635.149ZM645.164 233.699H639.753V231.198H645.164V233.706V233.699ZM645.164 229.7H639.753V227.112H645.164V229.7ZM645.164 225.687H639.753V223.113H645.164V225.694V225.687ZM645.164 221.681H639.753V219.1H645.164V221.681ZM645.164 217.675H639.753V215.095H645.164V217.675Z" fill="#00AC47"/>
</g>
</g>
</g>
<defs>
<filter id="filter0_dd_0_645" x="31" y="-0.280273" width="66" height="66" filterUnits="userSpaceOnUse" color-interpolation-filters="sRGB">
<feFlood flood-opacity="0" result="BackgroundImageFix"/>
<feColorMatrix in="SourceAlpha" type="matrix" values="0 0 0 0 0 0 0 0 0 0 0 0 0 0 0 0 0 0 127 0" result="hardAlpha"/>
<feOffset/>
<feComposite in2="hardAlpha" operator="out"/>
<feColorMatrix type="matrix" values="0 0 0 0 1 0 0 0 0 1 0 0 0 0 1 0 0 0 1 0"/>
<feBlend mode="normal" in2="BackgroundImageFix" result="effect1_dropShadow_0_645"/>
<feColorMatrix in="SourceAlpha" type="matrix" values="0 0 0 0 0 0 0 0 0 0 0 0 0 0 0 0 0 0 127 0" result="hardAlpha"/>
<feMorphology radius="1" operator="dilate" in="SourceAlpha" result="effect2_dropShadow_0_645"/>
<feOffset/>
<feComposite in2="hardAlpha" operator="out"/>
<feColorMatrix type="matrix" values="0 0 0 0 0.956863 0 0 0 0 0.956863 0 0 0 0 0.960784 0 0 0 0.1 0"/>
<feBlend mode="normal" in2="effect1_dropShadow_0_645" result="effect2_dropShadow_0_645"/>
<feBlend mode="normal" in="SourceGraphic" in2="effect2_dropShadow_0_645" result="shape"/>
</filter>
<filter id="filter1_dd_0_645" x="31" y="95.7197" width="66" height="66" filterUnits="userSpaceOnUse" color-interpolation-filters="sRGB">
<feFlood flood-opacity="0" result="BackgroundImageFix"/>
<feColorMatrix in="SourceAlpha" type="matrix" values="0 0 0 0 0 0 0 0 0 0 0 0 0 0 0 0 0 0 127 0" result="hardAlpha"/>
<feOffset/>
<feComposite in2="hardAlpha" operator="out"/>
<feColorMatrix type="matrix" values="0 0 0 0 1 0 0 0 0 1 0 0 0 0 1 0 0 0 1 0"/>
<feBlend mode="normal" in2="BackgroundImageFix" result="effect1_dropShadow_0_645"/>
<feColorMatrix in="SourceAlpha" type="matrix" values="0 0 0 0 0 0 0 0 0 0 0 0 0 0 0 0 0 0 127 0" result="hardAlpha"/>
<feMorphology radius="1" operator="dilate" in="SourceAlpha" result="effect2_dropShadow_0_645"/>
<feOffset/>
<feComposite in2="hardAlpha" operator="out"/>
<feColorMatrix type="matrix" values="0 0 0 0 0.956863 0 0 0 0 0.956863 0 0 0 0 0.960784 0 0 0 0.1 0"/>
<feBlend mode="normal" in2="effect1_dropShadow_0_645" result="effect2_dropShadow_0_645"/>
<feBlend mode="normal" in="SourceGraphic" in2="effect2_dropShadow_0_645" result="shape"/>
</filter>
<filter id="filter2_dd_0_645" x="31" y="191.72" width="66" height="66" filterUnits="userSpaceOnUse" color-interpolation-filters="sRGB">
<feFlood flood-opacity="0" result="BackgroundImageFix"/>
<feColorMatrix in="SourceAlpha" type="matrix" values="0 0 0 0 0 0 0 0 0 0 0 0 0 0 0 0 0 0 127 0" result="hardAlpha"/>
<feOffset/>
<feComposite in2="hardAlpha" operator="out"/>
<feColorMatrix type="matrix" values="0 0 0 0 1 0 0 0 0 1 0 0 0 0 1 0 0 0 1 0"/>
<feBlend mode="normal" in2="BackgroundImageFix" result="effect1_dropShadow_0_645"/>
<feColorMatrix in="SourceAlpha" type="matrix" values="0 0 0 0 0 0 0 0 0 0 0 0 0 0 0 0 0 0 127 0" result="hardAlpha"/>
<feMorphology radius="1" operator="dilate" in="SourceAlpha" result="effect2_dropShadow_0_645"/>
<feOffset/>
<feComposite in2="hardAlpha" operator="out"/>
<feColorMatrix type="matrix" values="0 0 0 0 0.956863 0 0 0 0 0.956863 0 0 0 0 0.960784 0 0 0 0.1 0"/>
<feBlend mode="normal" in2="effect1_dropShadow_0_645" result="effect2_dropShadow_0_645"/>
<feBlend mode="normal" in="SourceGraphic" in2="effect2_dropShadow_0_645" result="shape"/>
</filter>
<filter id="filter3_dd_0_645" x="173" y="31.7197" width="66" height="66" filterUnits="userSpaceOnUse" color-interpolation-filters="sRGB">
<feFlood flood-opacity="0" result="BackgroundImageFix"/>
<feColorMatrix in="SourceAlpha" type="matrix" values="0 0 0 0 0 0 0 0 0 0 0 0 0 0 0 0 0 0 127 0" result="hardAlpha"/>
<feOffset/>
<feComposite in2="hardAlpha" operator="out"/>
<feColorMatrix type="matrix" values="0 0 0 0 1 0 0 0 0 1 0 0 0 0 1 0 0 0 1 0"/>
<feBlend mode="normal" in2="BackgroundImageFix" result="effect1_dropShadow_0_645"/>
<feColorMatrix in="SourceAlpha" type="matrix" values="0 0 0 0 0 0 0 0 0 0 0 0 0 0 0 0 0 0 127 0" result="hardAlpha"/>
<feMorphology radius="1" operator="dilate" in="SourceAlpha" result="effect2_dropShadow_0_645"/>
<feOffset/>
<feComposite in2="hardAlpha" operator="out"/>
<feColorMatrix type="matrix" values="0 0 0 0 0.956863 0 0 0 0 0.956863 0 0 0 0 0.960784 0 0 0 0.1 0"/>
<feBlend mode="normal" in2="effect1_dropShadow_0_645" result="effect2_dropShadow_0_645"/>
<feBlend mode="normal" in="SourceGraphic" in2="effect2_dropShadow_0_645" result="shape"/>
</filter>
<filter id="filter4_dd_0_645" x="173" y="127.72" width="66" height="66" filterUnits="userSpaceOnUse" color-interpolation-filters="sRGB">
<feFlood flood-opacity="0" result="BackgroundImageFix"/>
<feColorMatrix in="SourceAlpha" type="matrix" values="0 0 0 0 0 0 0 0 0 0 0 0 0 0 0 0 0 0 127 0" result="hardAlpha"/>
<feOffset/>
<feComposite in2="hardAlpha" operator="out"/>
<feColorMatrix type="matrix" values="0 0 0 0 1 0 0 0 0 1 0 0 0 0 1 0 0 0 1 0"/>
<feBlend mode="normal" in2="BackgroundImageFix" result="effect1_dropShadow_0_645"/>
<feColorMatrix in="SourceAlpha" type="matrix" values="0 0 0 0 0 0 0 0 0 0 0 0 0 0 0 0 0 0 127 0" result="hardAlpha"/>
<feMorphology radius="1" operator="dilate" in="SourceAlpha" result="effect2_dropShadow_0_645"/>
<feOffset/>
<feComposite in2="hardAlpha" operator="out"/>
<feColorMatrix type="matrix" values="0 0 0 0 0.956863 0 0 0 0 0.956863 0 0 0 0 0.960784 0 0 0 0.1 0"/>
<feBlend mode="normal" in2="effect1_dropShadow_0_645" result="effect2_dropShadow_0_645"/>
<feBlend mode="normal" in="SourceGraphic" in2="effect2_dropShadow_0_645" result="shape"/>
</filter>
<filter id="filter5_dd_0_645" x="173" y="223.72" width="66" height="66" filterUnits="userSpaceOnUse" color-interpolation-filters="sRGB">
<feFlood flood-opacity="0" result="BackgroundImageFix"/>
<feColorMatrix in="SourceAlpha" type="matrix" values="0 0 0 0 0 0 0 0 0 0 0 0 0 0 0 0 0 0 127 0" result="hardAlpha"/>
<feOffset/>
<feComposite in2="hardAlpha" operator="out"/>
<feColorMatrix type="matrix" values="0 0 0 0 1 0 0 0 0 1 0 0 0 0 1 0 0 0 1 0"/>
<feBlend mode="normal" in2="BackgroundImageFix" result="effect1_dropShadow_0_645"/>
<feColorMatrix in="SourceAlpha" type="matrix" values="0 0 0 0 0 0 0 0 0 0 0 0 0 0 0 0 0 0 127 0" result="hardAlpha"/>
<feMorphology radius="1" operator="dilate" in="SourceAlpha" result="effect2_dropShadow_0_645"/>
<feOffset/>
<feComposite in2="hardAlpha" operator="out"/>
<feColorMatrix type="matrix" values="0 0 0 0 0.956863 0 0 0 0 0.956863 0 0 0 0 0.960784 0 0 0 0.1 0"/>
<feBlend mode="normal" in2="effect1_dropShadow_0_645" result="effect2_dropShadow_0_645"/>
<feBlend mode="normal" in="SourceGraphic" in2="effect2_dropShadow_0_645" result="shape"/>
</filter>
<filter id="filter6_dd_0_645" x="315" y="-0.280273" width="66" height="66" filterUnits="userSpaceOnUse" color-interpolation-filters="sRGB">
<feFlood flood-opacity="0" result="BackgroundImageFix"/>
<feColorMatrix in="SourceAlpha" type="matrix" values="0 0 0 0 0 0 0 0 0 0 0 0 0 0 0 0 0 0 127 0" result="hardAlpha"/>
<feOffset/>
<feComposite in2="hardAlpha" operator="out"/>
<feColorMatrix type="matrix" values="0 0 0 0 1 0 0 0 0 1 0 0 0 0 1 0 0 0 1 0"/>
<feBlend mode="normal" in2="BackgroundImageFix" result="effect1_dropShadow_0_645"/>
<feColorMatrix in="SourceAlpha" type="matrix" values="0 0 0 0 0 0 0 0 0 0 0 0 0 0 0 0 0 0 127 0" result="hardAlpha"/>
<feMorphology radius="1" operator="dilate" in="SourceAlpha" result="effect2_dropShadow_0_645"/>
<feOffset/>
<feComposite in2="hardAlpha" operator="out"/>
<feColorMatrix type="matrix" values="0 0 0 0 0.956863 0 0 0 0 0.956863 0 0 0 0 0.960784 0 0 0 0.1 0"/>
<feBlend mode="normal" in2="effect1_dropShadow_0_645" result="effect2_dropShadow_0_645"/>
<feBlend mode="normal" in="SourceGraphic" in2="effect2_dropShadow_0_645" result="shape"/>
</filter>
<filter id="filter7_dd_0_645" x="315" y="95.7197" width="66" height="66" filterUnits="userSpaceOnUse" color-interpolation-filters="sRGB">
<feFlood flood-opacity="0" result="BackgroundImageFix"/>
<feColorMatrix in="SourceAlpha" type="matrix" values="0 0 0 0 0 0 0 0 0 0 0 0 0 0 0 0 0 0 127 0" result="hardAlpha"/>
<feOffset/>
<feComposite in2="hardAlpha" operator="out"/>
<feColorMatrix type="matrix" values="0 0 0 0 1 0 0 0 0 1 0 0 0 0 1 0 0 0 1 0"/>
<feBlend mode="normal" in2="BackgroundImageFix" result="effect1_dropShadow_0_645"/>
<feColorMatrix in="SourceAlpha" type="matrix" values="0 0 0 0 0 0 0 0 0 0 0 0 0 0 0 0 0 0 127 0" result="hardAlpha"/>
<feMorphology radius="1" operator="dilate" in="SourceAlpha" result="effect2_dropShadow_0_645"/>
<feOffset/>
<feComposite in2="hardAlpha" operator="out"/>
<feColorMatrix type="matrix" values="0 0 0 0 0.956863 0 0 0 0 0.956863 0 0 0 0 0.960784 0 0 0 0.1 0"/>
<feBlend mode="normal" in2="effect1_dropShadow_0_645" result="effect2_dropShadow_0_645"/>
<feBlend mode="normal" in="SourceGraphic" in2="effect2_dropShadow_0_645" result="shape"/>
</filter>
<filter id="filter8_dd_0_645" x="315" y="191.72" width="66" height="66" filterUnits="userSpaceOnUse" color-interpolation-filters="sRGB">
<feFlood flood-opacity="0" result="BackgroundImageFix"/>
<feColorMatrix in="SourceAlpha" type="matrix" values="0 0 0 0 0 0 0 0 0 0 0 0 0 0 0 0 0 0 127 0" result="hardAlpha"/>
<feOffset/>
<feComposite in2="hardAlpha" operator="out"/>
<feColorMatrix type="matrix" values="0 0 0 0 1 0 0 0 0 1 0 0 0 0 1 0 0 0 1 0"/>
<feBlend mode="normal" in2="BackgroundImageFix" result="effect1_dropShadow_0_645"/>
<feColorMatrix in="SourceAlpha" type="matrix" values="0 0 0 0 0 0 0 0 0 0 0 0 0 0 0 0 0 0 127 0" result="hardAlpha"/>
<feMorphology radius="1" operator="dilate" in="SourceAlpha" result="effect2_dropShadow_0_645"/>
<feOffset/>
<feComposite in2="hardAlpha" operator="out"/>
<feColorMatrix type="matrix" values="0 0 0 0 0.956863 0 0 0 0 0.956863 0 0 0 0 0.960784 0 0 0 0.1 0"/>
<feBlend mode="normal" in2="effect1_dropShadow_0_645" result="effect2_dropShadow_0_645"/>
<feBlend mode="normal" in="SourceGraphic" in2="effect2_dropShadow_0_645" result="shape"/>
</filter>
<filter id="filter9_dd_0_645" x="457" y="31.7197" width="66" height="66" filterUnits="userSpaceOnUse" color-interpolation-filters="sRGB">
<feFlood flood-opacity="0" result="BackgroundImageFix"/>
<feColorMatrix in="SourceAlpha" type="matrix" values="0 0 0 0 0 0 0 0 0 0 0 0 0 0 0 0 0 0 127 0" result="hardAlpha"/>
<feOffset/>
<feComposite in2="hardAlpha" operator="out"/>
<feColorMatrix type="matrix" values="0 0 0 0 1 0 0 0 0 1 0 0 0 0 1 0 0 0 1 0"/>
<feBlend mode="normal" in2="BackgroundImageFix" result="effect1_dropShadow_0_645"/>
<feColorMatrix in="SourceAlpha" type="matrix" values="0 0 0 0 0 0 0 0 0 0 0 0 0 0 0 0 0 0 127 0" result="hardAlpha"/>
<feMorphology radius="1" operator="dilate" in="SourceAlpha" result="effect2_dropShadow_0_645"/>
<feOffset/>
<feComposite in2="hardAlpha" operator="out"/>
<feColorMatrix type="matrix" values="0 0 0 0 0.956863 0 0 0 0 0.956863 0 0 0 0 0.960784 0 0 0 0.1 0"/>
<feBlend mode="normal" in2="effect1_dropShadow_0_645" result="effect2_dropShadow_0_645"/>
<feBlend mode="normal" in="SourceGraphic" in2="effect2_dropShadow_0_645" result="shape"/>
</filter>
<filter id="filter10_dd_0_645" x="457" y="127.72" width="66" height="66" filterUnits="userSpaceOnUse" color-interpolation-filters="sRGB">
<feFlood flood-opacity="0" result="BackgroundImageFix"/>
<feColorMatrix in="SourceAlpha" type="matrix" values="0 0 0 0 0 0 0 0 0 0 0 0 0 0 0 0 0 0 127 0" result="hardAlpha"/>
<feOffset/>
<feComposite in2="hardAlpha" operator="out"/>
<feColorMatrix type="matrix" values="0 0 0 0 1 0 0 0 0 1 0 0 0 0 1 0 0 0 1 0"/>
<feBlend mode="normal" in2="BackgroundImageFix" result="effect1_dropShadow_0_645"/>
<feColorMatrix in="SourceAlpha" type="matrix" values="0 0 0 0 0 0 0 0 0 0 0 0 0 0 0 0 0 0 127 0" result="hardAlpha"/>
<feMorphology radius="1" operator="dilate" in="SourceAlpha" result="effect2_dropShadow_0_645"/>
<feOffset/>
<feComposite in2="hardAlpha" operator="out"/>
<feColorMatrix type="matrix" values="0 0 0 0 0.956863 0 0 0 0 0.956863 0 0 0 0 0.960784 0 0 0 0.1 0"/>
<feBlend mode="normal" in2="effect1_dropShadow_0_645" result="effect2_dropShadow_0_645"/>
<feBlend mode="normal" in="SourceGraphic" in2="effect2_dropShadow_0_645" result="shape"/>
</filter>
<filter id="filter11_dd_0_645" x="457" y="223.72" width="66" height="66" filterUnits="userSpaceOnUse" color-interpolation-filters="sRGB">
<feFlood flood-opacity="0" result="BackgroundImageFix"/>
<feColorMatrix in="SourceAlpha" type="matrix" values="0 0 0 0 0 0 0 0 0 0 0 0 0 0 0 0 0 0 127 0" result="hardAlpha"/>
<feOffset/>
<feComposite in2="hardAlpha" operator="out"/>
<feColorMatrix type="matrix" values="0 0 0 0 1 0 0 0 0 1 0 0 0 0 1 0 0 0 1 0"/>
<feBlend mode="normal" in2="BackgroundImageFix" result="effect1_dropShadow_0_645"/>
<feColorMatrix in="SourceAlpha" type="matrix" values="0 0 0 0 0 0 0 0 0 0 0 0 0 0 0 0 0 0 127 0" result="hardAlpha"/>
<feMorphology radius="1" operator="dilate" in="SourceAlpha" result="effect2_dropShadow_0_645"/>
<feOffset/>
<feComposite in2="hardAlpha" operator="out"/>
<feColorMatrix type="matrix" values="0 0 0 0 0.956863 0 0 0 0 0.956863 0 0 0 0 0.960784 0 0 0 0.1 0"/>
<feBlend mode="normal" in2="effect1_dropShadow_0_645" result="effect2_dropShadow_0_645"/>
<feBlend mode="normal" in="SourceGraphic" in2="effect2_dropShadow_0_645" result="shape"/>
</filter>
<filter id="filter12_dd_0_645" x="599" y="-0.280273" width="66" height="66" filterUnits="userSpaceOnUse" color-interpolation-filters="sRGB">
<feFlood flood-opacity="0" result="BackgroundImageFix"/>
<feColorMatrix in="SourceAlpha" type="matrix" values="0 0 0 0 0 0 0 0 0 0 0 0 0 0 0 0 0 0 127 0" result="hardAlpha"/>
<feOffset/>
<feComposite in2="hardAlpha" operator="out"/>
<feColorMatrix type="matrix" values="0 0 0 0 1 0 0 0 0 1 0 0 0 0 1 0 0 0 1 0"/>
<feBlend mode="normal" in2="BackgroundImageFix" result="effect1_dropShadow_0_645"/>
<feColorMatrix in="SourceAlpha" type="matrix" values="0 0 0 0 0 0 0 0 0 0 0 0 0 0 0 0 0 0 127 0" result="hardAlpha"/>
<feMorphology radius="1" operator="dilate" in="SourceAlpha" result="effect2_dropShadow_0_645"/>
<feOffset/>
<feComposite in2="hardAlpha" operator="out"/>
<feColorMatrix type="matrix" values="0 0 0 0 0.956863 0 0 0 0 0.956863 0 0 0 0 0.960784 0 0 0 0.1 0"/>
<feBlend mode="normal" in2="effect1_dropShadow_0_645" result="effect2_dropShadow_0_645"/>
<feBlend mode="normal" in="SourceGraphic" in2="effect2_dropShadow_0_645" result="shape"/>
</filter>
<filter id="filter13_dd_0_645" x="599" y="95.7197" width="66" height="66" filterUnits="userSpaceOnUse" color-interpolation-filters="sRGB">
<feFlood flood-opacity="0" result="BackgroundImageFix"/>
<feColorMatrix in="SourceAlpha" type="matrix" values="0 0 0 0 0 0 0 0 0 0 0 0 0 0 0 0 0 0 127 0" result="hardAlpha"/>
<feOffset/>
<feComposite in2="hardAlpha" operator="out"/>
<feColorMatrix type="matrix" values="0 0 0 0 1 0 0 0 0 1 0 0 0 0 1 0 0 0 1 0"/>
<feBlend mode="normal" in2="BackgroundImageFix" result="effect1_dropShadow_0_645"/>
<feColorMatrix in="SourceAlpha" type="matrix" values="0 0 0 0 0 0 0 0 0 0 0 0 0 0 0 0 0 0 127 0" result="hardAlpha"/>
<feMorphology radius="1" operator="dilate" in="SourceAlpha" result="effect2_dropShadow_0_645"/>
<feOffset/>
<feComposite in2="hardAlpha" operator="out"/>
<feColorMatrix type="matrix" values="0 0 0 0 0.956863 0 0 0 0 0.956863 0 0 0 0 0.960784 0 0 0 0.1 0"/>
<feBlend mode="normal" in2="effect1_dropShadow_0_645" result="effect2_dropShadow_0_645"/>
<feBlend mode="normal" in="SourceGraphic" in2="effect2_dropShadow_0_645" result="shape"/>
</filter>
<filter id="filter14_dd_0_645" x="599" y="191.72" width="66" height="66" filterUnits="userSpaceOnUse" color-interpolation-filters="sRGB">
<feFlood flood-opacity="0" result="BackgroundImageFix"/>
<feColorMatrix in="SourceAlpha" type="matrix" values="0 0 0 0 0 0 0 0 0 0 0 0 0 0 0 0 0 0 127 0" result="hardAlpha"/>
<feOffset/>
<feComposite in2="hardAlpha" operator="out"/>
<feColorMatrix type="matrix" values="0 0 0 0 1 0 0 0 0 1 0 0 0 0 1 0 0 0 1 0"/>
<feBlend mode="normal" in2="BackgroundImageFix" result="effect1_dropShadow_0_645"/>
<feColorMatrix in="SourceAlpha" type="matrix" values="0 0 0 0 0 0 0 0 0 0 0 0 0 0 0 0 0 0 127 0" result="hardAlpha"/>
<feMorphology radius="1" operator="dilate" in="SourceAlpha" result="effect2_dropShadow_0_645"/>
<feOffset/>
<feComposite in2="hardAlpha" operator="out"/>
<feColorMatrix type="matrix" values="0 0 0 0 0.956863 0 0 0 0 0.956863 0 0 0 0 0.960784 0 0 0 0.1 0"/>
<feBlend mode="normal" in2="effect1_dropShadow_0_645" result="effect2_dropShadow_0_645"/>
<feBlend mode="normal" in="SourceGraphic" in2="effect2_dropShadow_0_645" result="shape"/>
</filter>
<radialGradient id="paint0_radial_0_645" cx="0" cy="0" r="1" gradientUnits="userSpaceOnUse" gradientTransform="translate(348 144) rotate(22.4794) scale(376.617 266.117)">
<stop offset="0.35" stop-opacity="0.9"/>
<stop offset="1" stop-opacity="0"/>
</radialGradient>
<linearGradient id="paint1_linear_0_645" x1="933.633" y1="95.9574" x2="933.633" y2="2663.39" gradientUnits="userSpaceOnUse">
<stop offset="0.0056" stop-color="#FFE513"/>
<stop offset="1" stop-color="#FDB924"/>
</linearGradient>
<linearGradient id="paint2_linear_0_645" x1="533.158" y1="427.631" x2="1865.55" y2="801.199" gradientUnits="userSpaceOnUse">
<stop offset="0.0056" stop-color="#008CD2"/>
<stop offset="1" stop-color="#00649D"/>
</linearGradient>
<linearGradient id="paint3_linear_0_645" x1="1028.47" y1="948.247" x2="1028.47" y2="3197.59" gradientUnits="userSpaceOnUse">
<stop stop-color="#26A146"/>
<stop offset="1" stop-color="#008A52"/>
</linearGradient>
<linearGradient id="paint4_linear_0_645" x1="893.634" y1="282.491" x2="1804.96" y2="2259.64" gradientUnits="userSpaceOnUse">
<stop stop-color="#D92231"/>
<stop offset="1" stop-color="#BA2234"/>
</linearGradient>
<clipPath id="clip0_0_645">
<rect width="32" height="32" fill="white" transform="translate(48 16.7197)"/>
</clipPath>
<clipPath id="clip1_0_645">
<rect width="32" height="32" fill="white" transform="translate(48 208.72)"/>
</clipPath>
<clipPath id="clip2_0_645">
<rect width="40" height="40" fill="white" transform="translate(186 44.7197)"/>
</clipPath>
<clipPath id="clip3_0_645">
<rect width="40" height="40" fill="white" transform="translate(186 140.72)"/>
</clipPath>
<clipPath id="clip4_0_645">
<rect width="32" height="32" fill="white" transform="translate(190 240.72)"/>
</clipPath>
<clipPath id="clip5_0_645">
<rect width="36" height="36" fill="white" transform="translate(330 14.7197)"/>
</clipPath>
<clipPath id="clip6_0_645">
<rect width="40" height="40" fill="white" transform="translate(328 108.72)"/>
</clipPath>
<clipPath id="clip7_0_645">
<rect width="40" height="40" fill="white" transform="translate(470 44.7197)"/>
</clipPath>
<clipPath id="clip8_0_645">
<rect width="28" height="28" fill="white" transform="translate(476 146.72)"/>
</clipPath>
<clipPath id="clip9_0_645">
<rect width="32" height="27.55" fill="white" transform="translate(474 242.938)"/>
</clipPath>
<clipPath id="clip10_0_645">
<rect width="40" height="25.83" fill="white" transform="translate(612 19.7979)"/>
</clipPath>
<clipPath id="clip11_0_645">
<rect width="32" height="32" fill="white" transform="translate(616 112.72)"/>
</clipPath>
<clipPath id="clip12_0_645">
<rect width="32" height="29.08" fill="white" transform="translate(616 210.173)"/>
</clipPath>
</defs>
</svg>
