<svg width="162" height="28" viewBox="0 0 162 28" fill="none" xmlns="http://www.w3.org/2000/svg">
<g opacity="0.6">
<g clip-path="url(#clip0_0_294)">
<path d="M10.007 18.8188V16.5438H3.045V5.36876H0.375V18.8188H10.007ZM16.693 18.4078C17.2798 17.9873 17.7332 17.4069 17.999 16.7358V18.8188H20.55V12.3238C20.5586 11.6646 20.3676 11.0183 20.002 10.4698C19.63 9.91976 19.102 9.48576 18.482 9.21976C17.7343 8.90438 16.9282 8.75133 16.117 8.77076C15.6333 8.76883 15.1505 8.80965 14.674 8.89276C14.224 8.97276 13.784 9.09476 13.357 9.25576C12.963 9.40676 12.583 9.58976 12.221 9.80176L12.298 12.1118C12.8738 11.7388 13.4913 11.4347 14.138 11.2058C14.7818 10.9901 15.4571 10.8836 16.136 10.8908C16.628 10.8608 17.115 11.0038 17.508 11.2908C17.667 11.4148 17.794 11.5728 17.879 11.7518C17.965 11.9318 18.007 12.1268 18.002 12.3238V12.9918H15.738C14.379 12.9918 13.305 13.2688 12.515 13.8238C12.133 14.0808 11.825 14.4258 11.617 14.8268C11.4097 15.2267 11.3098 15.6736 11.327 16.1238C11.32 16.6428 11.457 17.1538 11.722 17.6048C11.9975 18.0515 12.3942 18.4108 12.866 18.6408C13.395 18.9028 13.983 19.0348 14.578 19.0228C15.3303 19.0466 16.0708 18.8312 16.693 18.4078ZM14.389 16.7358C14.2496 16.6354 14.1373 16.5021 14.062 16.3478C13.9877 16.1948 13.9536 16.0255 13.963 15.8558C13.9569 15.6477 14.0089 15.442 14.113 15.2618C14.217 15.0808 14.37 14.9298 14.556 14.8258C15.1004 14.5508 15.7082 14.4255 16.317 14.4628H17.963V14.8438C17.957 15.1858 17.863 15.5208 17.689 15.8188C17.4834 16.1767 17.1898 16.4762 16.836 16.6888C16.446 16.9328 15.991 17.0588 15.527 17.0508C15.1239 17.0685 14.7256 16.9583 14.389 16.7358ZM28.679 18.3758C29.3012 17.8317 29.7599 17.1254 30.004 16.3358V18.8188H32.597V9.07576H30.004V13.6228C30.014 14.2198 29.907 14.8128 29.689 15.3708C29.5036 15.8515 29.1843 16.2689 28.769 16.5738C28.3612 16.8617 27.8722 17.0124 27.373 17.0038C27.1284 17.0185 26.8834 16.9831 26.653 16.8998C26.4246 16.8173 26.2158 16.6883 26.04 16.5208C25.8744 16.3301 25.748 16.1087 25.6681 15.8691C25.5881 15.6296 25.5562 15.3767 25.574 15.1248V9.07576H22.984V15.1698C22.984 16.4308 23.294 17.4028 23.914 18.0848C24.226 18.4298 24.616 18.7028 25.053 18.8828C25.49 19.0628 25.963 19.1448 26.438 19.1228C27.2507 19.1527 28.0468 18.8873 28.679 18.3758ZM38.007 18.8238V14.2718C37.997 13.6748 38.104 13.0818 38.323 12.5228C38.5069 12.044 38.8223 11.6269 39.233 11.3198C39.633 11.0328 40.12 10.8818 40.619 10.8908C40.863 10.8748 41.109 10.9098 41.339 10.9918C41.568 11.0738 41.777 11.2018 41.952 11.3678C42.288 11.7578 42.455 12.2558 42.418 12.7618V18.8188H45.03V12.7238C45.03 11.4618 44.717 10.4908 44.09 9.80876C43.7727 9.46485 43.3834 9.19512 42.95 9.01876C42.512 8.84019 42.0406 8.75833 41.568 8.77876C40.7532 8.7462 39.9547 9.01378 39.324 9.53076C38.7085 10.077 38.2532 10.7805 38.007 11.5658V9.07576H35.417V18.8178L38.007 18.8238ZM53.741 19.0338C54.06 18.9868 54.374 18.9168 54.681 18.8238C54.972 18.7338 55.231 18.6458 55.505 18.5588L55.524 16.1898C55.105 16.3928 54.664 16.5468 54.207 16.6488C53.7495 16.7517 53.2819 16.803 52.813 16.8018C52.2079 16.8226 51.607 16.6945 51.063 16.4288C50.6183 16.2043 50.2548 15.8466 50.023 15.4058C49.8016 14.9518 49.6865 14.4533 49.6865 13.9483C49.6865 13.4432 49.8016 12.9447 50.023 12.4908C50.253 12.0538 50.616 11.6938 51.063 11.4608C51.5926 11.1919 52.1813 11.0605 52.775 11.0788C53.265 11.0768 53.754 11.1348 54.229 11.2508C54.675 11.3628 55.109 11.5168 55.524 11.7098L55.504 9.28276C55.2265 9.17662 54.9426 9.08811 54.654 9.01776C54.0069 8.85781 53.3426 8.77755 52.676 8.77876C51.6359 8.75354 50.6058 8.98684 49.678 9.45776C48.8603 9.8775 48.1783 10.5203 47.711 11.3118C47.2429 12.1243 47.0032 13.0482 47.017 13.9858C47.0024 14.9169 47.2453 15.834 47.719 16.6358C48.192 17.4165 48.8783 18.0459 49.697 18.4498C50.613 18.8968 51.628 19.1198 52.654 19.0998C53.014 19.1018 53.374 19.0778 53.73 19.0278L53.74 19.0328L53.741 19.0338ZM60.418 18.8238V14.2718C60.408 13.6748 60.515 13.0818 60.734 12.5228C60.916 12.0458 61.234 11.6288 61.653 11.3198C62.0533 11.035 62.5338 10.8848 63.025 10.8908C63.272 10.8738 63.52 10.9078 63.753 10.9908C63.986 11.0728 64.199 11.2008 64.377 11.3678C64.713 11.7578 64.88 12.2558 64.843 12.7618V18.8188H67.433V12.7238C67.433 11.4618 67.123 10.4908 66.503 9.80876C66.188 9.46483 65.8008 9.19502 65.369 9.01876C64.9331 8.8401 64.4636 8.75821 63.993 8.77876C63.1749 8.74683 62.3732 9.01418 61.738 9.53076C61.1176 10.0744 60.6592 10.7785 60.413 11.5658V5.36876H57.861V18.8188L60.418 18.8238ZM75.768 18.8238C77.0754 18.8621 78.3724 18.5803 79.546 18.0028C80.5558 17.4849 81.3836 16.6714 81.919 15.6708C82.4811 14.5726 82.7593 13.3511 82.728 12.1178C82.757 10.882 82.4787 9.65837 81.918 8.55676C81.3837 7.55121 80.5565 6.7317 79.546 6.20676C78.3742 5.62297 77.0766 5.3372 75.768 5.37476H70.415V18.8188L75.768 18.8238ZM73.075 16.5438V7.64376H75.725C77.059 7.64376 78.105 8.03576 78.861 8.81976C79.619 9.60376 79.998 10.7018 80 12.1128C80 13.5268 79.62 14.6188 78.861 15.3908C78.103 16.1628 77.057 16.5478 75.726 16.5458H73.076L73.075 16.5438ZM89.515 18.3988C90.1007 17.9774 90.5535 17.3972 90.82 16.7268V18.8098H93.377V12.3238C93.3899 11.6656 93.2034 11.019 92.842 10.4688C92.4609 9.91383 91.9285 9.47998 91.308 9.21876C90.5613 8.90371 89.7562 8.75067 88.946 8.76976C88.4617 8.76783 87.9781 8.80866 87.501 8.89176C86.6358 9.04693 85.8051 9.35508 85.048 9.80176L85.128 12.1118C85.7035 11.738 86.3211 11.4336 86.968 11.2048C87.6117 10.9888 88.2871 10.8823 88.966 10.8898C89.458 10.8598 89.945 11.0018 90.337 11.2898C90.4952 11.4126 90.6228 11.5704 90.71 11.7508C90.796 11.9308 90.839 12.1258 90.834 12.3228V12.9908H88.579C87.207 12.9908 86.145 13.2558 85.352 13.8228C84.9737 14.0768 84.6655 14.4221 84.456 14.8268C84.2493 15.2265 84.1498 15.673 84.167 16.1228C84.16 16.6418 84.297 17.1528 84.562 17.6038C84.83 18.0458 85.223 18.4058 85.695 18.6398C86.2258 18.9032 86.8125 19.0343 87.405 19.0218C88.165 19.0478 88.915 18.8318 89.536 18.4068L89.515 18.3988ZM87.21 16.7268C87.0728 16.6265 86.9625 16.4939 86.889 16.3408C86.8164 16.1895 86.7834 16.0223 86.793 15.8548C86.7869 15.6467 86.8389 15.441 86.943 15.2608C87.047 15.0798 87.2 14.9288 87.385 14.8248C87.927 14.5498 88.536 14.4248 89.147 14.4618H90.793V14.8428C90.7851 15.1858 90.6905 15.5212 90.518 15.8178C90.3133 16.1753 90.0207 16.4748 89.668 16.6878C89.278 16.9318 88.82 17.0578 88.354 17.0498C87.9515 17.0676 87.5538 16.9574 87.218 16.7348L87.21 16.7268ZM98.59 18.8168V14.6658C98.59 13.5848 98.826 12.7578 99.3 12.1938C99.5308 11.9146 99.8236 11.693 100.155 11.5468C100.49 11.3987 100.855 11.3289 101.221 11.3428C101.582 11.3398 101.942 11.3908 102.288 11.4938V9.10376C102.123 9.05447 101.954 9.01967 101.783 8.99976C101.601 8.97838 101.417 8.9687 101.234 8.97076C100.931 8.96851 100.631 9.02629 100.351 9.14076C100.072 9.25376 99.82 9.42076 99.611 9.63376C99.121 10.1338 98.771 10.7438 98.59 11.4088V9.07576H95.997V18.8188H98.59V18.8168ZM106.521 18.8168V15.6648L107.451 14.8058L110.469 18.8178H113.514L109.204 13.1238L113.435 9.07476H110.192L106.513 12.5458V5.39376H103.961V18.8198H106.521V18.8168ZM117.698 18.8168V5.36976H115.124V18.8198H117.698V18.8168ZM121.635 22.4468C122.45 22.4804 123.258 22.285 123.967 21.8828C124.572 21.5068 125.073 20.8538 125.47 19.9248L130.109 9.07476H127.459L124.716 15.8948L121.942 9.07476H119.292L123.445 18.7988L123.226 19.2948C123.125 19.5848 122.933 19.8388 122.677 20.0208C122.361 20.1953 122.001 20.2751 121.64 20.2508H119.487V22.4478L121.635 22.4468ZM149.098 24.0938C148.996 24.0941 148.895 24.0665 148.807 24.0138C148.723 23.9637 148.655 23.8916 148.61 23.8053C148.565 23.7191 148.544 23.622 148.55 23.5248C148.559 23.4308 148.595 23.3413 148.653 23.2668L154.491 15.5038L144.269 19.5368C144.18 19.5742 144.083 19.5882 143.987 19.5773C143.892 19.5665 143.8 19.5311 143.722 19.4748C143.628 19.4069 143.56 19.3103 143.526 19.1998C143.492 19.0928 143.495 18.9774 143.536 18.8728C143.578 18.7669 143.653 18.6779 143.751 18.6198L152.741 13.4928L136.911 12.6128C136.785 12.5921 136.67 12.5285 136.586 12.4328C136.503 12.3381 136.457 12.2166 136.457 12.0908C136.458 11.9656 136.503 11.8449 136.586 11.7508C136.67 11.6543 136.785 11.5899 136.911 11.5688L152.749 10.6918L143.756 5.56476C143.658 5.5066 143.583 5.41756 143.542 5.31176C143.501 5.20724 143.497 5.0918 143.531 4.98476C143.565 4.87454 143.634 4.77834 143.727 4.71076C143.821 4.64194 143.935 4.60451 144.052 4.60376C144.128 4.60376 144.203 4.61976 144.272 4.65076L154.497 8.68876L148.659 0.928758C148.6 0.854914 148.564 0.765399 148.555 0.671231C148.546 0.577063 148.565 0.482353 148.609 0.398758C148.654 0.306845 148.724 0.229455 148.811 0.175497C148.897 0.121539 148.998 0.0932055 149.1 0.0937579C149.243 0.0950147 149.38 0.152056 149.482 0.252758L161.117 11.4868C161.198 11.5648 161.263 11.6584 161.307 11.762C161.352 11.8656 161.375 11.9771 161.375 12.0898C161.375 12.2024 161.352 12.3139 161.307 12.4175C161.263 12.5211 161.198 12.6147 161.117 12.6928L149.476 23.9398C149.426 23.9893 149.367 24.0285 149.303 24.0549C149.238 24.0814 149.168 24.0946 149.098 24.0938Z" fill="white"/>
</g>
</g>
<defs>
<clipPath id="clip0_0_294">
<rect width="161" height="24" fill="white" transform="translate(0.375 0.09375)"/>
</clipPath>
</defs>
</svg>
