<svg width="11" height="9" viewBox="0 0 11 9" fill="none" xmlns="http://www.w3.org/2000/svg">
    <path
        d="M10.8195 4.48701C10.8191 4.40066 10.8012 4.31529 10.7669 4.23604C10.7326 4.15679 10.6826 4.0853 10.62 4.02588L6.97123 0.377133C6.82598 0.238008 6.67636 0.176758 6.52061 0.176758C6.16536 0.176758 5.90986 0.427008 5.90986 0.765633C5.90986 0.943258 5.98161 1.09376 6.09361 1.20488L7.34223 2.47101L8.95311 3.94276L7.66511 3.86488H0.932856C0.560981 3.86488 0.305481 4.12038 0.305481 4.48701C0.305481 4.84838 0.560981 5.10388 0.932856 5.10388H7.66511L8.95311 5.02513L7.34311 6.49776L6.09273 7.76388C6.03429 7.8211 5.98792 7.88945 5.95636 7.96489C5.9248 8.04034 5.90869 8.12135 5.90898 8.20313C5.90898 8.54176 6.16536 8.79201 6.52061 8.79201C6.67636 8.79201 6.82686 8.73076 6.95898 8.60301L10.62 4.94288C10.682 4.88427 10.7316 4.8138 10.7659 4.73563C10.8002 4.65747 10.8184 4.57235 10.8195 4.48701Z"
        fill="white" />
</svg>