<svg width="40" height="40" viewBox="0 0 40 40" fill="none" xmlns="http://www.w3.org/2000/svg">
<circle cx="20" cy="20" r="20" fill="#F1F1F1"/>
<path fill-rule="evenodd" clip-rule="evenodd" d="M30.5 20.0635C30.5 14.265 25.7984 9.56348 20 9.56348C14.2016 9.56348 9.5 14.265 9.5 20.0635C9.5 25.3041 13.3391 29.648 18.3594 30.4364V23.0996H15.6927V20.0635H18.3594V17.7502C18.3594 15.1191 19.9273 13.6646 22.3255 13.6646C23.4744 13.6646 24.6763 13.8699 24.6763 13.8699V16.4541H23.3516C22.048 16.4541 21.6402 17.2632 21.6402 18.0947V20.0635H24.552L24.087 23.0996H21.6406V30.4374C26.6609 29.6494 30.5 25.3055 30.5 20.0635Z" fill="#06030E"/>
</svg>
