<svg width="503" height="90" viewBox="0 0 503 90" fill="none" xmlns="http://www.w3.org/2000/svg">
    <mask id="path-1-outside-1_0_342" maskUnits="userSpaceOnUse" x="-1" y="-1" width="505" height="92" fill="black">
        <rect fill="white" x="-1" y="-1" width="505" height="92" />
        <path
            d="M0.889915 88V0.72727H58.674V15.9403H19.3416V36.7358H54.8388V51.9489H19.3416V88H0.889915ZM95.7692 89.2784C89.0362 89.2784 83.2408 87.9148 78.3828 85.1875C73.5533 82.4318 69.8317 78.5398 67.218 73.5114C64.6044 68.4545 63.2976 62.4744 63.2976 55.571C63.2976 48.8381 64.6044 42.929 67.218 37.8438C69.8317 32.7585 73.5107 28.7955 78.255 25.9545C83.0277 23.1136 88.6243 21.6932 95.0447 21.6932C99.3629 21.6932 103.383 22.3892 107.104 23.7812C110.854 25.1449 114.121 27.2045 116.906 29.9602C119.718 32.7159 121.906 36.1818 123.468 40.358C125.031 44.5057 125.812 49.3636 125.812 54.9318V59.9176H70.5419V48.6676H108.724C108.724 46.054 108.156 43.7386 107.019 41.7216C105.883 39.7045 104.306 38.1278 102.289 36.9915C100.3 35.8267 97.9851 35.2443 95.343 35.2443C92.5874 35.2443 90.1442 35.8835 88.0135 37.1619C85.9112 38.4119 84.2635 40.1023 83.0703 42.233C81.8771 44.3352 81.2663 46.679 81.2379 49.2642V59.9602C81.2379 63.1989 81.8345 65.9972 83.0277 68.3551C84.2493 70.7131 85.968 72.5312 88.1839 73.8097C90.3999 75.0881 93.0277 75.7273 96.0675 75.7273C98.0845 75.7273 99.9311 75.4432 101.607 74.875C103.283 74.3068 104.718 73.4545 105.911 72.3182C107.104 71.1818 108.013 69.7898 108.638 68.142L125.428 69.25C124.576 73.2841 122.829 76.8068 120.187 79.8182C117.573 82.8011 114.192 85.1307 110.045 86.8068C105.925 88.4545 101.167 89.2784 95.7692 89.2784ZM156.323 89.2358C152.147 89.2358 148.425 88.5114 145.158 87.0625C141.891 85.5852 139.306 83.4119 137.403 80.5426C135.528 77.6449 134.59 74.0369 134.59 69.7188C134.59 66.0824 135.258 63.0284 136.593 60.5568C137.928 58.0852 139.746 56.0966 142.048 54.5909C144.349 53.0852 146.962 51.9489 149.888 51.1818C152.843 50.4148 155.94 49.875 159.178 49.5625C162.985 49.1648 166.053 48.7955 168.383 48.4545C170.712 48.0852 172.403 47.5455 173.454 46.8352C174.505 46.125 175.031 45.0739 175.031 43.6818V43.4261C175.031 40.7273 174.178 38.6392 172.474 37.1619C170.798 35.6847 168.411 34.946 165.315 34.946C162.048 34.946 159.448 35.6705 157.516 37.1193C155.585 38.5398 154.306 40.3295 153.681 42.4886L136.891 41.125C137.744 37.1477 139.42 33.7102 141.92 30.8125C144.42 27.8864 147.644 25.642 151.593 24.0795C155.57 22.4886 160.173 21.6932 165.4 21.6932C169.036 21.6932 172.516 22.1193 175.84 22.9716C179.192 23.8239 182.161 25.1449 184.746 26.9347C187.36 28.7244 189.42 31.0256 190.925 33.8381C192.431 36.6222 193.184 39.9602 193.184 43.8523V88H175.968V78.9233H175.457C174.406 80.9688 172.999 82.7727 171.238 84.3352C169.477 85.8693 167.36 87.0767 164.888 87.9574C162.417 88.8097 159.562 89.2358 156.323 89.2358ZM161.522 76.7074C164.192 76.7074 166.55 76.1818 168.596 75.1307C170.641 74.0511 172.246 72.6023 173.411 70.7841C174.576 68.9659 175.158 66.9062 175.158 64.6051V57.6591C174.59 58.0284 173.809 58.3693 172.815 58.6818C171.849 58.9659 170.755 59.2358 169.533 59.4915C168.312 59.7187 167.09 59.9318 165.869 60.1307C164.647 60.3011 163.539 60.4574 162.545 60.5994C160.414 60.9119 158.553 61.4091 156.962 62.0909C155.371 62.7727 154.136 63.696 153.255 64.8608C152.374 65.9972 151.934 67.4176 151.934 69.1222C151.934 71.5938 152.829 73.483 154.619 74.7898C156.437 76.0682 158.738 76.7074 161.522 76.7074ZM242.083 22.5455V36.1818H202.665V22.5455H242.083ZM211.614 6.86364H229.768V67.8864C229.768 69.5625 230.023 70.8693 230.535 71.8068C231.046 72.7159 231.756 73.3551 232.665 73.7244C233.603 74.0937 234.683 74.2784 235.904 74.2784C236.756 74.2784 237.609 74.2074 238.461 74.0653C239.313 73.8949 239.967 73.767 240.421 73.6818L243.276 87.1903C242.367 87.4744 241.089 87.8011 239.441 88.1705C237.793 88.5682 235.79 88.8097 233.433 88.8949C229.058 89.0653 225.222 88.483 221.927 87.1477C218.66 85.8125 216.117 83.7386 214.299 80.9261C212.481 78.1136 211.586 74.5625 211.614 70.2727V6.86364ZM295.883 60.1307V22.5455H314.036V88H296.607V76.1108H295.925C294.448 79.946 291.991 83.0284 288.553 85.358C285.144 87.6875 280.982 88.8523 276.067 88.8523C271.692 88.8523 267.843 87.858 264.519 85.8693C261.195 83.8807 258.596 81.054 256.721 77.3892C254.874 73.7244 253.937 69.3352 253.908 64.2216V22.5455H272.062V60.983C272.09 64.8466 273.127 67.9006 275.173 70.1449C277.218 72.3892 279.96 73.5114 283.397 73.5114C285.585 73.5114 287.63 73.0142 289.533 72.0199C291.437 70.9972 292.971 69.4915 294.136 67.5028C295.329 65.5142 295.911 63.0568 295.883 60.1307ZM328.557 88V22.5455H346.156V33.9659H346.838C348.031 29.9034 350.034 26.8352 352.847 24.7614C355.659 22.6591 358.898 21.608 362.562 21.608C363.472 21.608 364.452 21.6648 365.503 21.7784C366.554 21.892 367.477 22.0483 368.273 22.2472V38.3551C367.42 38.0994 366.241 37.8722 364.736 37.6733C363.23 37.4744 361.852 37.375 360.602 37.375C357.932 37.375 355.545 37.9574 353.443 39.1222C351.369 40.2585 349.722 41.8494 348.5 43.8949C347.307 45.9403 346.71 48.2983 346.71 50.9688V88H328.557ZM404.441 89.2784C397.708 89.2784 391.913 87.9148 387.055 85.1875C382.225 82.4318 378.504 78.5398 375.89 73.5114C373.276 68.4545 371.969 62.4744 371.969 55.571C371.969 48.8381 373.276 42.929 375.89 37.8438C378.504 32.7585 382.183 28.7955 386.927 25.9545C391.7 23.1136 397.296 21.6932 403.717 21.6932C408.035 21.6932 412.055 22.3892 415.776 23.7812C419.526 25.1449 422.793 27.2045 425.577 29.9602C428.39 32.7159 430.577 36.1818 432.14 40.358C433.702 44.5057 434.484 49.3636 434.484 54.9318V59.9176H379.214V48.6676H417.396C417.396 46.054 416.827 43.7386 415.691 41.7216C414.555 39.7045 412.978 38.1278 410.961 36.9915C408.972 35.8267 406.657 35.2443 404.015 35.2443C401.259 35.2443 398.816 35.8835 396.685 37.1619C394.583 38.4119 392.935 40.1023 391.742 42.233C390.549 44.3352 389.938 46.679 389.91 49.2642V59.9602C389.91 63.1989 390.506 65.9972 391.7 68.3551C392.921 70.7131 394.64 72.5312 396.856 73.8097C399.072 75.0881 401.7 75.7273 404.739 75.7273C406.756 75.7273 408.603 75.4432 410.279 74.875C411.955 74.3068 413.39 73.4545 414.583 72.3182C415.776 71.1818 416.685 69.7898 417.31 68.142L434.1 69.25C433.248 73.2841 431.501 76.8068 428.859 79.8182C426.245 82.8011 422.864 85.1307 418.717 86.8068C414.597 88.4545 409.839 89.2784 404.441 89.2784ZM500.79 41.2102L484.171 42.233C483.887 40.8125 483.276 39.5341 482.339 38.3977C481.401 37.233 480.165 36.3097 478.631 35.6278C477.126 34.9176 475.322 34.5625 473.219 34.5625C470.407 34.5625 468.035 35.1591 466.103 36.3523C464.171 37.517 463.205 39.0795 463.205 41.0398C463.205 42.6023 463.83 43.9233 465.08 45.0028C466.33 46.0824 468.475 46.9489 471.515 47.6023L483.362 49.9886C489.725 51.2955 494.469 53.3977 497.594 56.2955C500.719 59.1932 502.282 63 502.282 67.7159C502.282 72.0057 501.018 75.7699 498.489 79.0085C495.989 82.2472 492.552 84.7756 488.177 86.5938C483.83 88.3835 478.816 89.2784 473.134 89.2784C464.469 89.2784 457.566 87.4744 452.424 83.8665C447.31 80.2301 444.313 75.2869 443.433 69.0369L461.288 68.0994C461.827 70.7415 463.134 72.7585 465.208 74.1506C467.282 75.5142 469.938 76.196 473.177 76.196C476.359 76.196 478.915 75.5852 480.847 74.3636C482.808 73.1136 483.802 71.5085 483.83 69.5483C483.802 67.9006 483.106 66.5511 481.742 65.5C480.379 64.4205 478.276 63.5966 475.435 63.0284L464.1 60.7699C457.708 59.4915 452.95 57.2756 449.825 54.1222C446.728 50.9687 445.18 46.9489 445.18 42.0625C445.18 37.858 446.316 34.2358 448.589 31.196C450.89 28.1562 454.114 25.8125 458.262 24.1648C462.438 22.517 467.325 21.6932 472.921 21.6932C481.188 21.6932 487.694 23.4403 492.438 26.9347C497.211 30.429 499.995 35.1875 500.79 41.2102Z" />
    </mask>
    <path
        d="M0.889915 88V0.72727H58.674V15.9403H19.3416V36.7358H54.8388V51.9489H19.3416V88H0.889915ZM95.7692 89.2784C89.0362 89.2784 83.2408 87.9148 78.3828 85.1875C73.5533 82.4318 69.8317 78.5398 67.218 73.5114C64.6044 68.4545 63.2976 62.4744 63.2976 55.571C63.2976 48.8381 64.6044 42.929 67.218 37.8438C69.8317 32.7585 73.5107 28.7955 78.255 25.9545C83.0277 23.1136 88.6243 21.6932 95.0447 21.6932C99.3629 21.6932 103.383 22.3892 107.104 23.7812C110.854 25.1449 114.121 27.2045 116.906 29.9602C119.718 32.7159 121.906 36.1818 123.468 40.358C125.031 44.5057 125.812 49.3636 125.812 54.9318V59.9176H70.5419V48.6676H108.724C108.724 46.054 108.156 43.7386 107.019 41.7216C105.883 39.7045 104.306 38.1278 102.289 36.9915C100.3 35.8267 97.9851 35.2443 95.343 35.2443C92.5874 35.2443 90.1442 35.8835 88.0135 37.1619C85.9112 38.4119 84.2635 40.1023 83.0703 42.233C81.8771 44.3352 81.2663 46.679 81.2379 49.2642V59.9602C81.2379 63.1989 81.8345 65.9972 83.0277 68.3551C84.2493 70.7131 85.968 72.5312 88.1839 73.8097C90.3999 75.0881 93.0277 75.7273 96.0675 75.7273C98.0845 75.7273 99.9311 75.4432 101.607 74.875C103.283 74.3068 104.718 73.4545 105.911 72.3182C107.104 71.1818 108.013 69.7898 108.638 68.142L125.428 69.25C124.576 73.2841 122.829 76.8068 120.187 79.8182C117.573 82.8011 114.192 85.1307 110.045 86.8068C105.925 88.4545 101.167 89.2784 95.7692 89.2784ZM156.323 89.2358C152.147 89.2358 148.425 88.5114 145.158 87.0625C141.891 85.5852 139.306 83.4119 137.403 80.5426C135.528 77.6449 134.59 74.0369 134.59 69.7188C134.59 66.0824 135.258 63.0284 136.593 60.5568C137.928 58.0852 139.746 56.0966 142.048 54.5909C144.349 53.0852 146.962 51.9489 149.888 51.1818C152.843 50.4148 155.94 49.875 159.178 49.5625C162.985 49.1648 166.053 48.7955 168.383 48.4545C170.712 48.0852 172.403 47.5455 173.454 46.8352C174.505 46.125 175.031 45.0739 175.031 43.6818V43.4261C175.031 40.7273 174.178 38.6392 172.474 37.1619C170.798 35.6847 168.411 34.946 165.315 34.946C162.048 34.946 159.448 35.6705 157.516 37.1193C155.585 38.5398 154.306 40.3295 153.681 42.4886L136.891 41.125C137.744 37.1477 139.42 33.7102 141.92 30.8125C144.42 27.8864 147.644 25.642 151.593 24.0795C155.57 22.4886 160.173 21.6932 165.4 21.6932C169.036 21.6932 172.516 22.1193 175.84 22.9716C179.192 23.8239 182.161 25.1449 184.746 26.9347C187.36 28.7244 189.42 31.0256 190.925 33.8381C192.431 36.6222 193.184 39.9602 193.184 43.8523V88H175.968V78.9233H175.457C174.406 80.9688 172.999 82.7727 171.238 84.3352C169.477 85.8693 167.36 87.0767 164.888 87.9574C162.417 88.8097 159.562 89.2358 156.323 89.2358ZM161.522 76.7074C164.192 76.7074 166.55 76.1818 168.596 75.1307C170.641 74.0511 172.246 72.6023 173.411 70.7841C174.576 68.9659 175.158 66.9062 175.158 64.6051V57.6591C174.59 58.0284 173.809 58.3693 172.815 58.6818C171.849 58.9659 170.755 59.2358 169.533 59.4915C168.312 59.7187 167.09 59.9318 165.869 60.1307C164.647 60.3011 163.539 60.4574 162.545 60.5994C160.414 60.9119 158.553 61.4091 156.962 62.0909C155.371 62.7727 154.136 63.696 153.255 64.8608C152.374 65.9972 151.934 67.4176 151.934 69.1222C151.934 71.5938 152.829 73.483 154.619 74.7898C156.437 76.0682 158.738 76.7074 161.522 76.7074ZM242.083 22.5455V36.1818H202.665V22.5455H242.083ZM211.614 6.86364H229.768V67.8864C229.768 69.5625 230.023 70.8693 230.535 71.8068C231.046 72.7159 231.756 73.3551 232.665 73.7244C233.603 74.0937 234.683 74.2784 235.904 74.2784C236.756 74.2784 237.609 74.2074 238.461 74.0653C239.313 73.8949 239.967 73.767 240.421 73.6818L243.276 87.1903C242.367 87.4744 241.089 87.8011 239.441 88.1705C237.793 88.5682 235.79 88.8097 233.433 88.8949C229.058 89.0653 225.222 88.483 221.927 87.1477C218.66 85.8125 216.117 83.7386 214.299 80.9261C212.481 78.1136 211.586 74.5625 211.614 70.2727V6.86364ZM295.883 60.1307V22.5455H314.036V88H296.607V76.1108H295.925C294.448 79.946 291.991 83.0284 288.553 85.358C285.144 87.6875 280.982 88.8523 276.067 88.8523C271.692 88.8523 267.843 87.858 264.519 85.8693C261.195 83.8807 258.596 81.054 256.721 77.3892C254.874 73.7244 253.937 69.3352 253.908 64.2216V22.5455H272.062V60.983C272.09 64.8466 273.127 67.9006 275.173 70.1449C277.218 72.3892 279.96 73.5114 283.397 73.5114C285.585 73.5114 287.63 73.0142 289.533 72.0199C291.437 70.9972 292.971 69.4915 294.136 67.5028C295.329 65.5142 295.911 63.0568 295.883 60.1307ZM328.557 88V22.5455H346.156V33.9659H346.838C348.031 29.9034 350.034 26.8352 352.847 24.7614C355.659 22.6591 358.898 21.608 362.562 21.608C363.472 21.608 364.452 21.6648 365.503 21.7784C366.554 21.892 367.477 22.0483 368.273 22.2472V38.3551C367.42 38.0994 366.241 37.8722 364.736 37.6733C363.23 37.4744 361.852 37.375 360.602 37.375C357.932 37.375 355.545 37.9574 353.443 39.1222C351.369 40.2585 349.722 41.8494 348.5 43.8949C347.307 45.9403 346.71 48.2983 346.71 50.9688V88H328.557ZM404.441 89.2784C397.708 89.2784 391.913 87.9148 387.055 85.1875C382.225 82.4318 378.504 78.5398 375.89 73.5114C373.276 68.4545 371.969 62.4744 371.969 55.571C371.969 48.8381 373.276 42.929 375.89 37.8438C378.504 32.7585 382.183 28.7955 386.927 25.9545C391.7 23.1136 397.296 21.6932 403.717 21.6932C408.035 21.6932 412.055 22.3892 415.776 23.7812C419.526 25.1449 422.793 27.2045 425.577 29.9602C428.39 32.7159 430.577 36.1818 432.14 40.358C433.702 44.5057 434.484 49.3636 434.484 54.9318V59.9176H379.214V48.6676H417.396C417.396 46.054 416.827 43.7386 415.691 41.7216C414.555 39.7045 412.978 38.1278 410.961 36.9915C408.972 35.8267 406.657 35.2443 404.015 35.2443C401.259 35.2443 398.816 35.8835 396.685 37.1619C394.583 38.4119 392.935 40.1023 391.742 42.233C390.549 44.3352 389.938 46.679 389.91 49.2642V59.9602C389.91 63.1989 390.506 65.9972 391.7 68.3551C392.921 70.7131 394.64 72.5312 396.856 73.8097C399.072 75.0881 401.7 75.7273 404.739 75.7273C406.756 75.7273 408.603 75.4432 410.279 74.875C411.955 74.3068 413.39 73.4545 414.583 72.3182C415.776 71.1818 416.685 69.7898 417.31 68.142L434.1 69.25C433.248 73.2841 431.501 76.8068 428.859 79.8182C426.245 82.8011 422.864 85.1307 418.717 86.8068C414.597 88.4545 409.839 89.2784 404.441 89.2784ZM500.79 41.2102L484.171 42.233C483.887 40.8125 483.276 39.5341 482.339 38.3977C481.401 37.233 480.165 36.3097 478.631 35.6278C477.126 34.9176 475.322 34.5625 473.219 34.5625C470.407 34.5625 468.035 35.1591 466.103 36.3523C464.171 37.517 463.205 39.0795 463.205 41.0398C463.205 42.6023 463.83 43.9233 465.08 45.0028C466.33 46.0824 468.475 46.9489 471.515 47.6023L483.362 49.9886C489.725 51.2955 494.469 53.3977 497.594 56.2955C500.719 59.1932 502.282 63 502.282 67.7159C502.282 72.0057 501.018 75.7699 498.489 79.0085C495.989 82.2472 492.552 84.7756 488.177 86.5938C483.83 88.3835 478.816 89.2784 473.134 89.2784C464.469 89.2784 457.566 87.4744 452.424 83.8665C447.31 80.2301 444.313 75.2869 443.433 69.0369L461.288 68.0994C461.827 70.7415 463.134 72.7585 465.208 74.1506C467.282 75.5142 469.938 76.196 473.177 76.196C476.359 76.196 478.915 75.5852 480.847 74.3636C482.808 73.1136 483.802 71.5085 483.83 69.5483C483.802 67.9006 483.106 66.5511 481.742 65.5C480.379 64.4205 478.276 63.5966 475.435 63.0284L464.1 60.7699C457.708 59.4915 452.95 57.2756 449.825 54.1222C446.728 50.9687 445.18 46.9489 445.18 42.0625C445.18 37.858 446.316 34.2358 448.589 31.196C450.89 28.1562 454.114 25.8125 458.262 24.1648C462.438 22.517 467.325 21.6932 472.921 21.6932C481.188 21.6932 487.694 23.4403 492.438 26.9347C497.211 30.429 499.995 35.1875 500.79 41.2102Z"
        fill="white" fill-opacity="0.1" />
    <path
        d="M0.889915 88H-0.110085V89H0.889915V88ZM0.889915 0.72727V-0.27273H-0.110085V0.72727H0.889915ZM58.674 0.72727H59.674V-0.27273H58.674V0.72727ZM58.674 15.9403V16.9403H59.674V15.9403H58.674ZM19.3416 15.9403V14.9403H18.3416V15.9403H19.3416ZM19.3416 36.7358H18.3416V37.7358H19.3416V36.7358ZM54.8388 36.7358H55.8388V35.7358H54.8388V36.7358ZM54.8388 51.9489V52.9489H55.8388V51.9489H54.8388ZM19.3416 51.9489V50.9489H18.3416V51.9489H19.3416ZM19.3416 88V89H20.3416V88H19.3416ZM1.88992 88V0.72727H-0.110085V88H1.88992ZM0.889915 1.72727H58.674V-0.27273H0.889915V1.72727ZM57.674 0.72727V15.9403H59.674V0.72727H57.674ZM58.674 14.9403H19.3416V16.9403H58.674V14.9403ZM18.3416 15.9403V36.7358H20.3416V15.9403H18.3416ZM19.3416 37.7358H54.8388V35.7358H19.3416V37.7358ZM53.8388 36.7358V51.9489H55.8388V36.7358H53.8388ZM54.8388 50.9489H19.3416V52.9489H54.8388V50.9489ZM18.3416 51.9489V88H20.3416V51.9489H18.3416ZM19.3416 87H0.889915V89H19.3416V87ZM78.3828 85.1875L77.8872 86.0561L77.8933 86.0595L78.3828 85.1875ZM67.218 73.5114L66.3297 73.9705L66.3307 73.9726L67.218 73.5114ZM67.218 37.8438L66.3286 37.3866L67.218 37.8438ZM78.255 25.9545L77.7435 25.0952L77.7412 25.0966L78.255 25.9545ZM107.104 23.7812L106.754 24.7179L106.763 24.721L107.104 23.7812ZM116.906 29.9602L116.202 30.671L116.206 30.6745L116.906 29.9602ZM123.468 40.358L122.531 40.7084L122.532 40.7105L123.468 40.358ZM125.812 59.9176V60.9176H126.812V59.9176H125.812ZM70.5419 59.9176H69.5419V60.9176H70.5419V59.9176ZM70.5419 48.6676V47.6676H69.5419V48.6676H70.5419ZM108.724 48.6676V49.6676H109.724V48.6676H108.724ZM107.019 41.7216L106.148 42.2124V42.2124L107.019 41.7216ZM102.289 36.9915L101.784 37.8544L101.791 37.8586L101.798 37.8627L102.289 36.9915ZM88.0135 37.1619L88.5246 38.0215L88.528 38.0194L88.0135 37.1619ZM83.0703 42.233L83.94 42.7266L83.9428 42.7216L83.0703 42.233ZM81.2379 49.2642L80.2379 49.2532V49.2642H81.2379ZM83.0277 68.3551L82.1354 68.8066L82.1398 68.8151L83.0277 68.3551ZM101.607 74.875L101.286 73.9279L101.607 74.875ZM105.911 72.3182L105.222 71.594L105.911 72.3182ZM108.638 68.142L108.704 67.1442L107.966 67.0955L107.703 67.7874L108.638 68.142ZM125.428 69.25L126.407 69.4567L126.645 68.3281L125.494 68.2522L125.428 69.25ZM120.187 79.8182L119.435 79.1587L119.435 79.1592L120.187 79.8182ZM110.045 86.8068L110.416 87.7353L110.419 87.734L110.045 86.8068ZM95.7692 88.2784C89.1721 88.2784 83.5525 86.943 78.8723 84.3155L77.8933 86.0595C82.929 88.8866 88.9004 90.2784 95.7692 90.2784V88.2784ZM78.8784 84.3189C74.2192 81.6605 70.6321 77.9114 68.1053 73.0502L66.3307 73.9726C69.0313 79.1681 72.8873 83.2032 77.8872 86.0561L78.8784 84.3189ZM68.1064 73.0522C65.5801 68.1645 64.2976 62.3483 64.2976 55.571H62.2976C62.2976 62.6006 63.6287 68.7446 66.3297 73.9705L68.1064 73.0522ZM64.2976 55.571C64.2976 48.9689 65.5784 43.2216 68.1074 38.3009L66.3286 37.3866C63.6305 42.6364 62.2976 48.7072 62.2976 55.571H64.2976ZM68.1074 38.3009C70.6388 33.3758 74.1902 29.5541 78.7687 26.8125L77.7412 25.0966C72.8311 28.0368 69.0246 32.1413 66.3286 37.3866L68.1074 38.3009ZM78.7665 26.8138C83.3617 24.0786 88.7758 22.6932 95.0447 22.6932V20.6932C88.4727 20.6932 82.6937 22.1487 77.7435 25.0952L78.7665 26.8138ZM95.0447 22.6932C99.2537 22.6932 103.154 23.3712 106.754 24.7179L107.455 22.8446C103.612 21.4072 99.4722 20.6932 95.0447 20.6932V22.6932ZM106.763 24.721C110.38 26.0363 113.523 28.0188 116.202 30.671L117.609 29.2495C114.72 26.3903 111.329 24.2535 107.446 22.8415L106.763 24.721ZM116.206 30.6745C118.901 33.3149 121.013 36.6512 122.531 40.7084L124.405 40.0075C122.798 35.7124 120.536 32.1169 117.605 29.2459L116.206 30.6745ZM122.532 40.7105C124.043 44.7208 124.812 49.4544 124.812 54.9318H126.812C126.812 49.2728 126.018 44.2906 124.404 40.0054L122.532 40.7105ZM124.812 54.9318V59.9176H126.812V54.9318H124.812ZM125.812 58.9176H70.5419V60.9176H125.812V58.9176ZM71.5419 59.9176V48.6676H69.5419V59.9176H71.5419ZM70.5419 49.6676H108.724V47.6676H70.5419V49.6676ZM109.724 48.6676C109.724 45.9046 109.122 43.4161 107.89 41.2307L106.148 42.2124C107.189 44.0612 107.724 46.2034 107.724 48.6676H109.724ZM107.89 41.2307C106.664 39.0545 104.956 37.3463 102.78 36.1202L101.798 37.8627C103.656 38.9094 105.101 40.3546 106.148 42.2124L107.89 41.2307ZM102.794 36.1286C100.631 34.8616 98.1363 34.2443 95.343 34.2443V36.2443C97.8339 36.2443 99.9696 36.7919 101.784 37.8544L102.794 36.1286ZM95.343 34.2443C92.4264 34.2443 89.8016 34.9229 87.499 36.3044L88.528 38.0194C90.4867 36.8442 92.7483 36.2443 95.343 36.2443V34.2443ZM87.5024 36.3024C85.2494 37.642 83.4769 39.4602 82.1978 41.7444L83.9428 42.7216C85.05 40.7444 86.573 39.1819 88.5246 38.0215L87.5024 36.3024ZM82.2006 41.7393C80.9181 43.9991 80.2681 46.5108 80.238 49.2532L82.2379 49.2752C82.2645 46.8471 82.8362 44.6714 83.94 42.7266L82.2006 41.7393ZM80.2379 49.2642V59.9602H82.2379V49.2642H80.2379ZM80.2379 59.9602C80.2379 63.3209 80.8572 66.2806 82.1354 68.8066L83.92 67.9036C82.8118 65.7137 82.2379 63.0768 82.2379 59.9602H80.2379ZM82.1398 68.8151C83.4458 71.336 85.2962 73.2982 87.6842 74.6758L88.6837 72.9435C86.6398 71.7643 85.0528 70.0902 83.9156 67.8951L82.1398 68.8151ZM87.6842 74.6758C90.0784 76.0571 92.8854 76.7273 96.0675 76.7273V74.7273C93.17 74.7273 90.7213 74.119 88.6837 72.9435L87.6842 74.6758ZM96.0675 76.7273C98.1787 76.7273 100.135 76.4298 101.928 75.8221L101.286 73.9279C99.7268 74.4565 97.9904 74.7273 96.0675 74.7273V76.7273ZM101.928 75.8221C103.732 75.2108 105.295 74.2862 106.601 73.0423L105.222 71.594C104.141 72.6229 102.835 73.4029 101.286 73.9279L101.928 75.8221ZM106.601 73.0423C107.91 71.7956 108.899 70.2745 109.573 68.4967L107.703 67.7874C107.128 69.3051 106.299 70.568 105.222 71.594L106.601 73.0423ZM108.573 69.1399L125.362 70.2478L125.494 68.2522L108.704 67.1442L108.573 69.1399ZM124.45 69.0433C123.632 72.9146 121.961 76.2802 119.435 79.1587L120.938 80.4777C123.697 77.3335 125.52 73.6536 126.407 69.4567L124.45 69.0433ZM119.435 79.1592C116.937 82.0101 113.691 84.2546 109.67 85.8797L110.419 87.734C114.693 86.0068 118.21 83.5921 120.939 80.4772L119.435 79.1592ZM109.673 85.8783C105.695 87.4698 101.066 88.2784 95.7692 88.2784V90.2784C101.267 90.2784 106.156 89.4393 110.416 87.7353L109.673 85.8783ZM145.158 87.0625L144.746 87.9737L144.753 87.9766L145.158 87.0625ZM137.403 80.5426L136.563 81.0859L136.569 81.0954L137.403 80.5426ZM136.593 60.5568L135.713 60.0815L136.593 60.5568ZM142.048 54.5909L141.5 53.7541L142.048 54.5909ZM149.888 51.1818L149.637 50.2139L149.635 50.2145L149.888 51.1818ZM159.178 49.5625L159.274 50.5579L159.282 50.5571L159.178 49.5625ZM168.383 48.4545L168.528 49.4441L168.539 49.4422L168.383 48.4545ZM173.454 46.8352L172.894 46.0066L173.454 46.8352ZM172.474 37.1619L171.812 37.9122L171.819 37.9176L172.474 37.1619ZM157.516 37.1193L158.109 37.925L158.116 37.9193L157.516 37.1193ZM153.681 42.4886L153.6 43.4854L154.414 43.5515L154.642 42.7667L153.681 42.4886ZM136.891 41.125L135.914 40.9155L135.675 42.0295L136.81 42.1217L136.891 41.125ZM141.92 30.8125L142.677 31.4657L142.68 31.4621L141.92 30.8125ZM151.593 24.0795L151.961 25.0094L151.964 25.008L151.593 24.0795ZM175.84 22.9716L175.592 23.9403L175.594 23.9408L175.84 22.9716ZM184.746 26.9347L184.177 27.7569L184.181 27.7597L184.746 26.9347ZM190.925 33.8381L190.044 34.31L190.046 34.3138L190.925 33.8381ZM193.184 88V89H194.184V88H193.184ZM175.968 88H174.968V89H175.968V88ZM175.968 78.9233H176.968V77.9233H175.968V78.9233ZM175.457 78.9233V77.9233H174.846L174.567 78.4662L175.457 78.9233ZM171.238 84.3352L171.895 85.0893L171.902 85.0833L171.238 84.3352ZM164.888 87.9574L165.215 88.9028L165.224 88.8994L164.888 87.9574ZM168.596 75.1307L169.053 76.0202L169.063 76.0151L168.596 75.1307ZM173.411 70.7841L172.569 70.2447L173.411 70.7841ZM175.158 57.6591H176.158V55.8164L174.613 56.8206L175.158 57.6591ZM172.815 58.6818L173.097 59.6412L173.106 59.6386L173.114 59.6358L172.815 58.6818ZM169.533 59.4915L169.716 60.4746L169.727 60.4726L169.738 60.4703L169.533 59.4915ZM165.869 60.1307L166.007 61.1211L166.018 61.1195L166.029 61.1177L165.869 60.1307ZM162.545 60.5994L162.403 59.6095L162.4 59.61L162.545 60.5994ZM156.962 62.0909L157.356 63.0101L156.962 62.0909ZM153.255 64.8608L154.045 65.4734L154.053 65.4639L153.255 64.8608ZM154.619 74.7898L154.029 75.5974L154.036 75.6027L154.043 75.6078L154.619 74.7898ZM156.323 88.2358C152.263 88.2358 148.683 87.5319 145.564 86.1484L144.753 87.9766C148.167 89.4909 152.031 90.2358 156.323 90.2358V88.2358ZM145.57 86.1513C142.467 84.7482 140.031 82.6958 138.236 79.9898L136.569 81.0954C138.581 84.1281 141.315 86.4223 144.746 87.9737L145.57 86.1513ZM138.242 79.9994C136.495 77.2998 135.59 73.8925 135.59 69.7188H133.59C133.59 74.1814 134.56 77.99 136.563 81.0859L138.242 79.9994ZM135.59 69.7188C135.59 66.2009 136.236 63.321 137.473 61.0321L135.713 60.0815C134.279 62.7358 133.59 65.9639 133.59 69.7188H135.59ZM137.473 61.0321C138.731 58.7035 140.436 56.8404 142.595 55.4277L141.5 53.7541C139.057 55.3528 137.126 57.467 135.713 60.0815L137.473 61.0321ZM142.595 55.4277C144.797 53.9867 147.31 52.8915 150.142 52.1491L149.635 50.2145C146.615 51.0062 143.9 52.1837 141.5 53.7541L142.595 55.4277ZM150.14 52.1497C153.04 51.3967 156.085 50.8657 159.274 50.5579L159.082 48.5671C155.795 48.8843 152.646 49.4328 149.637 50.2139L150.14 52.1497ZM159.282 50.5571C163.095 50.1587 166.179 49.7877 168.528 49.444L168.238 47.4651C165.928 47.8032 162.875 48.1709 159.074 48.5679L159.282 50.5571ZM168.539 49.4422C170.91 49.0664 172.777 48.4992 174.014 47.6638L172.894 46.0066C172.028 46.5917 170.515 47.1041 168.226 47.4669L168.539 49.4422ZM174.014 47.6638C175.37 46.7473 176.031 45.368 176.031 43.6818H174.031C174.031 44.7798 173.64 45.5027 172.894 46.0066L174.014 47.6638ZM176.031 43.6818V43.4261H174.031V43.6818H176.031ZM176.031 43.4261C176.031 40.4998 175.096 38.1109 173.129 36.4062L171.819 37.9176C173.261 39.1675 174.031 40.9548 174.031 43.4261H176.031ZM173.135 36.4117C171.216 34.7206 168.561 33.946 165.315 33.946V35.946C168.262 35.946 170.379 36.6487 171.813 37.9121L173.135 36.4117ZM165.315 33.946C161.907 33.946 159.073 34.7017 156.916 36.3193L158.116 37.9193C159.823 36.6392 162.189 35.946 165.315 35.946V33.946ZM156.924 36.3137C154.827 37.8553 153.411 39.8253 152.721 42.2106L154.642 42.7667C155.201 40.8338 156.342 39.2242 158.109 37.925L156.924 36.3137ZM153.762 41.4919L136.972 40.1283L136.81 42.1217L153.6 43.4854L153.762 41.4919ZM137.869 41.3345C138.689 37.5107 140.293 34.2284 142.677 31.4657L141.163 30.1593C138.546 33.192 136.799 36.7848 135.914 40.9155L137.869 41.3345ZM142.68 31.4621C145.063 28.6724 148.148 26.5182 151.961 25.0094L151.225 23.1497C147.141 24.7659 143.776 27.1003 141.159 30.1629L142.68 31.4621ZM151.964 25.008C155.801 23.4735 160.273 22.6932 165.4 22.6932V20.6932C160.073 20.6932 155.34 21.5038 151.222 23.1511L151.964 25.008ZM165.4 22.6932C168.957 22.6932 172.354 23.11 175.592 23.9403L176.089 22.0029C172.679 21.1286 169.115 20.6932 165.4 20.6932V22.6932ZM175.594 23.9408C178.842 24.7666 181.699 26.0414 184.177 27.7568L185.316 26.1125C182.623 24.2484 179.543 22.8811 176.087 22.0024L175.594 23.9408ZM184.181 27.7597C186.662 29.4582 188.613 31.6379 190.044 34.31L191.807 33.3661C190.226 30.4132 188.058 27.9906 185.311 26.1096L184.181 27.7597ZM190.046 34.3138C191.456 36.9219 192.184 40.0886 192.184 43.8523H194.184C194.184 39.8318 193.406 36.3225 191.805 33.3624L190.046 34.3138ZM192.184 43.8523V88H194.184V43.8523H192.184ZM193.184 87H175.968V89H193.184V87ZM176.968 88V78.9233H174.968V88H176.968ZM175.968 77.9233H175.457V79.9233H175.968V77.9233ZM174.567 78.4662C173.574 80.3989 172.245 82.1048 170.574 83.5872L171.902 85.0833C173.753 83.4406 175.237 81.5386 176.346 79.3804L174.567 78.4662ZM170.581 83.5811C168.925 85.0236 166.921 86.1716 164.553 87.0154L165.224 88.8994C167.799 87.9818 170.028 86.7151 171.895 85.0893L170.581 83.5811ZM164.562 87.012C162.217 87.8207 159.476 88.2358 156.323 88.2358V90.2358C159.647 90.2358 162.616 89.7987 165.214 88.9028L164.562 87.012ZM161.522 77.7074C164.326 77.7074 166.845 77.1548 169.053 76.0201L168.139 74.2412C166.256 75.2088 164.059 75.7074 161.522 75.7074V77.7074ZM169.063 76.0151C171.25 74.8608 172.989 73.2975 174.253 71.3235L172.569 70.2447C171.504 71.907 170.033 73.2415 168.129 74.2463L169.063 76.0151ZM174.253 71.3235C175.528 69.3336 176.158 67.0843 176.158 64.6051H174.158C174.158 66.7282 173.624 68.5982 172.569 70.2447L174.253 71.3235ZM176.158 64.6051V57.6591H174.158V64.6051H176.158ZM174.613 56.8206C174.151 57.1215 173.464 57.4296 172.515 57.7278L173.114 59.6358C174.154 59.309 175.03 58.9353 175.703 58.4975L174.613 56.8206ZM172.532 57.7225C171.597 57.9975 170.53 58.2612 169.329 58.5127L169.738 60.4703C170.98 60.2104 172.1 59.9343 173.097 59.6412L172.532 57.7225ZM169.35 58.5083C168.136 58.7342 166.922 58.946 165.708 59.1437L166.029 61.1177C167.258 60.9176 168.487 60.7032 169.716 60.4746L169.35 58.5083ZM165.73 59.1403C164.508 59.3109 163.399 59.4673 162.403 59.6095L162.686 61.5894C163.679 61.4475 164.786 61.2914 166.007 61.1211L165.73 59.1403ZM162.4 59.61C160.203 59.9322 158.255 60.4488 156.568 61.1718L157.356 63.0101C158.851 62.3694 160.625 61.8917 162.69 61.5888L162.4 59.61ZM156.568 61.1718C154.847 61.9093 153.461 62.9306 152.457 64.2577L154.053 65.4639C154.811 64.4615 155.895 63.6361 157.356 63.0101L156.568 61.1718ZM152.465 64.2482C151.424 65.5909 150.934 67.2385 150.934 69.1222H152.934C152.934 67.5967 153.325 66.4035 154.045 65.4734L152.465 64.2482ZM150.934 69.1222C150.934 71.8705 151.949 74.0786 154.029 75.5974L155.208 73.9821C153.709 72.8873 152.934 71.317 152.934 69.1222H150.934ZM154.043 75.6078C156.068 77.0316 158.584 77.7074 161.522 77.7074V75.7074C158.891 75.7074 156.805 75.1048 155.194 73.9717L154.043 75.6078ZM242.083 22.5455H243.083V21.5455H242.083V22.5455ZM242.083 36.1818V37.1818H243.083V36.1818H242.083ZM202.665 36.1818H201.665V37.1818H202.665V36.1818ZM202.665 22.5455V21.5455H201.665V22.5455H202.665ZM211.614 6.86364V5.86364H210.614V6.86364H211.614ZM229.768 6.86364H230.768V5.86364H229.768V6.86364ZM230.535 71.8068L229.657 72.2857L229.663 72.2971L230.535 71.8068ZM232.665 73.7244L232.289 74.6509L232.299 74.6548L232.665 73.7244ZM238.461 74.0653L238.625 75.0517L238.641 75.0491L238.657 75.0459L238.461 74.0653ZM240.421 73.6818L241.4 73.475L241.197 72.5188L240.237 72.6989L240.421 73.6818ZM243.276 87.1903L243.575 88.1448L244.443 87.8735L244.255 86.9836L243.276 87.1903ZM239.441 88.1705L239.222 87.1947L239.214 87.1965L239.206 87.1984L239.441 88.1705ZM233.433 88.8949L233.396 87.8955L233.394 87.8956L233.433 88.8949ZM221.927 87.1477L221.549 88.0734L221.551 88.0745L221.927 87.1477ZM214.299 80.9261L215.139 80.3832L214.299 80.9261ZM211.614 70.2727L212.614 70.2794V70.2727H211.614ZM241.083 22.5455V36.1818H243.083V22.5455H241.083ZM242.083 35.1818H202.665V37.1818H242.083V35.1818ZM203.665 36.1818V22.5455H201.665V36.1818H203.665ZM202.665 23.5455H242.083V21.5455H202.665V23.5455ZM211.614 7.86364H229.768V5.86364H211.614V7.86364ZM228.768 6.86364V67.8864H230.768V6.86364H228.768ZM228.768 67.8864C228.768 69.6436 229.032 71.1407 229.657 72.2857L231.413 71.328C231.015 70.598 230.768 69.4814 230.768 67.8864H228.768ZM229.663 72.2971C230.278 73.3901 231.157 74.1908 232.289 74.6509L233.042 72.798C232.356 72.5194 231.814 72.0417 231.406 71.3166L229.663 72.2971ZM232.299 74.6548C233.375 75.0788 234.583 75.2784 235.904 75.2784V73.2784C234.782 73.2784 233.831 73.1087 233.032 72.794L232.299 74.6548ZM235.904 75.2784C236.812 75.2784 237.719 75.2027 238.625 75.0517L238.297 73.0789C237.498 73.2121 236.701 73.2784 235.904 73.2784V75.2784ZM238.657 75.0459C239.508 74.8757 240.157 74.7488 240.605 74.6647L240.237 72.6989C239.776 72.7853 239.118 72.9141 238.265 73.0848L238.657 75.0459ZM239.443 73.8886L242.298 87.3971L244.255 86.9836L241.4 73.475L239.443 73.8886ZM242.978 86.2359C242.108 86.5078 240.86 86.8275 239.222 87.1947L239.66 89.1462C241.317 88.7747 242.627 88.441 243.575 88.1448L242.978 86.2359ZM239.206 87.1984C237.644 87.5756 235.711 87.8119 233.396 87.8955L233.469 89.8942C235.87 89.8074 237.943 89.5607 239.676 89.1425L239.206 87.1984ZM233.394 87.8956C229.128 88.0618 225.44 87.4921 222.302 86.2209L221.551 88.0745C225.005 89.4739 228.987 90.0689 233.471 89.8941L233.394 87.8956ZM222.305 86.2221C219.217 84.9598 216.84 83.0144 215.139 80.3832L213.459 81.469C215.395 84.4629 218.103 86.6652 221.549 88.0734L222.305 86.2221ZM215.139 80.3832C213.452 77.7747 212.587 74.4286 212.614 70.2794L210.614 70.2661C210.585 74.6964 211.509 78.4526 213.459 81.469L215.139 80.3832ZM212.614 70.2727V6.86364H210.614V70.2727H212.614ZM295.883 60.1307H294.883L294.883 60.1404L295.883 60.1307ZM295.883 22.5455V21.5455H294.883V22.5455H295.883ZM314.036 22.5455H315.036V21.5455H314.036V22.5455ZM314.036 88V89H315.036V88H314.036ZM296.607 88H295.607V89H296.607V88ZM296.607 76.1108H297.607V75.1108H296.607V76.1108ZM295.925 76.1108V75.1108H295.239L294.992 75.7514L295.925 76.1108ZM288.553 85.358L287.992 84.5301L287.989 84.5323L288.553 85.358ZM264.519 85.8693L265.033 85.0112L264.519 85.8693ZM256.721 77.3892L255.828 77.8392L255.831 77.8447L256.721 77.3892ZM253.908 64.2216H252.908L252.908 64.2271L253.908 64.2216ZM253.908 22.5455V21.5455H252.908V22.5455H253.908ZM272.062 22.5455H273.062V21.5455H272.062V22.5455ZM272.062 60.983H271.062L271.062 60.9903L272.062 60.983ZM275.173 70.1449L275.912 69.4713L275.173 70.1449ZM289.533 72.0199L289.996 72.9063L290.007 72.9008L289.533 72.0199ZM294.136 67.5028L293.278 66.9883L293.273 66.9974L294.136 67.5028ZM296.883 60.1307V22.5455H294.883V60.1307H296.883ZM295.883 23.5455H314.036V21.5455H295.883V23.5455ZM313.036 22.5455V88H315.036V22.5455H313.036ZM314.036 87H296.607V89H314.036V87ZM297.607 88V76.1108H295.607V88H297.607ZM296.607 75.1108H295.925V77.1108H296.607V75.1108ZM294.992 75.7514C293.589 79.394 291.263 82.3138 287.992 84.5301L289.114 86.1858C292.719 83.743 295.307 80.498 296.859 76.4702L294.992 75.7514ZM287.989 84.5323C284.776 86.7281 280.82 87.8523 276.067 87.8523V89.8523C281.145 89.8523 285.513 88.6469 289.117 86.1836L287.989 84.5323ZM276.067 87.8523C271.849 87.8523 268.182 86.8954 265.033 85.0112L264.006 86.7275C267.504 88.8205 271.536 89.8523 276.067 89.8523V87.8523ZM265.033 85.0112C261.88 83.1249 259.406 80.4426 257.611 76.9337L255.831 77.8447C257.785 81.6654 260.511 84.6365 264.006 86.7275L265.033 85.0112ZM257.614 76.9392C255.852 73.4421 254.936 69.2124 254.908 64.216L252.908 64.2271C252.937 69.458 253.897 74.0068 255.828 77.8392L257.614 76.9392ZM254.908 64.2216V22.5455H252.908V64.2216H254.908ZM253.908 23.5455H272.062V21.5455H253.908V23.5455ZM271.062 22.5455V60.983H273.062V22.5455H271.062ZM271.062 60.9903C271.092 65.0312 272.18 68.3464 274.434 70.8185L275.912 69.4713C274.074 67.4548 273.089 64.662 273.062 60.9756L271.062 60.9903ZM274.434 70.8185C276.694 73.2993 279.719 74.5114 283.397 74.5114V72.5114C280.2 72.5114 277.742 71.4791 275.912 69.4713L274.434 70.8185ZM283.397 74.5114C285.743 74.5114 287.947 73.9766 289.996 72.9062L289.07 71.1335C287.313 72.0518 285.426 72.5114 283.397 72.5114V74.5114ZM290.007 72.9008C292.083 71.7852 293.747 70.1445 294.999 68.0082L293.273 66.9974C292.194 68.8385 290.791 70.2091 289.06 71.139L290.007 72.9008ZM294.993 68.0173C296.303 65.8339 296.913 63.1838 296.883 60.121L294.883 60.1404C294.91 62.9298 294.354 65.1945 293.278 66.9883L294.993 68.0173ZM328.557 88H327.557V89H328.557V88ZM328.557 22.5455V21.5455H327.557V22.5455H328.557ZM346.156 22.5455H347.156V21.5455H346.156V22.5455ZM346.156 33.9659H345.156V34.9659H346.156V33.9659ZM346.838 33.9659V34.9659H347.587L347.798 34.2477L346.838 33.9659ZM352.847 24.7614L353.44 25.5662L353.445 25.5623L352.847 24.7614ZM365.503 21.7784L365.61 20.7842L365.503 21.7784ZM368.273 22.2472H369.273V21.4664L368.515 21.277L368.273 22.2472ZM368.273 38.3551L367.985 39.3129L369.273 39.6991V38.3551H368.273ZM353.443 39.1222L353.924 39.9991L353.928 39.9969L353.443 39.1222ZM348.5 43.8949L347.641 43.3821L347.636 43.391L348.5 43.8949ZM346.71 88V89H347.71V88H346.71ZM329.557 88V22.5455H327.557V88H329.557ZM328.557 23.5455H346.156V21.5455H328.557V23.5455ZM345.156 22.5455V33.9659H347.156V22.5455H345.156ZM346.156 34.9659H346.838V32.9659H346.156V34.9659ZM347.798 34.2477C348.943 30.3493 350.838 27.4848 353.44 25.5662L352.253 23.9565C349.23 26.1857 347.12 29.4575 345.879 33.6841L347.798 34.2477ZM353.445 25.5623C356.077 23.5952 359.103 22.608 362.562 22.608V20.608C358.692 20.608 355.241 21.723 352.248 23.9604L353.445 25.5623ZM362.562 22.608C363.43 22.608 364.374 22.6622 365.395 22.7726L365.61 20.7842C364.529 20.6673 363.513 20.608 362.562 20.608V22.608ZM365.395 22.7726C366.413 22.8827 367.29 23.0322 368.03 23.2173L368.515 21.277C367.665 21.0644 366.695 20.9014 365.61 20.7842L365.395 22.7726ZM367.273 22.2472V38.3551H369.273V22.2472H367.273ZM368.56 37.3973C367.633 37.1193 366.394 36.8836 364.867 36.6819L364.605 38.6647C366.089 38.8607 367.208 39.0796 367.985 39.3129L368.56 37.3973ZM364.867 36.6819C363.327 36.4785 361.904 36.375 360.602 36.375V38.375C361.8 38.375 363.134 38.4704 364.605 38.6647L364.867 36.6819ZM360.602 36.375C357.781 36.375 355.225 36.9917 352.959 38.2474L353.928 39.9969C355.866 38.9231 358.082 38.375 360.602 38.375V36.375ZM352.963 38.2452C350.731 39.4678 348.954 41.185 347.641 43.3821L349.359 44.4076C350.49 42.5139 352.007 41.0492 353.924 39.9991L352.963 38.2452ZM347.636 43.391C346.343 45.6082 345.71 48.1443 345.71 50.9688H347.71C347.71 48.4523 348.271 46.2725 349.364 44.3988L347.636 43.391ZM345.71 50.9688V88H347.71V50.9688H345.71ZM346.71 87H328.557V89H346.71V87ZM387.055 85.1875L386.559 86.0561L386.565 86.0595L387.055 85.1875ZM375.89 73.5114L375.002 73.9705L375.003 73.9726L375.89 73.5114ZM375.89 37.8438L375.001 37.3866L375.89 37.8438ZM386.927 25.9545L386.415 25.0952L386.413 25.0966L386.927 25.9545ZM415.776 23.7812L415.426 24.7179L415.435 24.721L415.776 23.7812ZM425.577 29.9602L424.874 30.671L424.878 30.6745L425.577 29.9602ZM432.14 40.358L431.203 40.7084L431.204 40.7105L432.14 40.358ZM434.484 59.9176V60.9176H435.484V59.9176H434.484ZM379.214 59.9176H378.214V60.9176H379.214V59.9176ZM379.214 48.6676V47.6676H378.214V48.6676H379.214ZM417.396 48.6676V49.6676H418.396V48.6676H417.396ZM415.691 41.7216L414.82 42.2124V42.2124L415.691 41.7216ZM410.961 36.9915L410.456 37.8544L410.463 37.8586L410.47 37.8627L410.961 36.9915ZM396.685 37.1619L397.196 38.0215L397.2 38.0194L396.685 37.1619ZM391.742 42.233L392.612 42.7266L392.615 42.7216L391.742 42.233ZM389.91 49.2642L388.91 49.2532V49.2642H389.91ZM391.7 68.3551L390.807 68.8066L390.812 68.8151L391.7 68.3551ZM410.279 74.875L409.958 73.9279L410.279 74.875ZM414.583 72.3182L413.893 71.594L414.583 72.3182ZM417.31 68.142L417.376 67.1442L416.638 67.0955L416.375 67.7874L417.31 68.142ZM434.1 69.25L435.079 69.4567L435.317 68.3281L434.166 68.2522L434.1 69.25ZM428.859 79.8182L428.107 79.1587L428.107 79.1592L428.859 79.8182ZM418.717 86.8068L419.088 87.7353L419.091 87.734L418.717 86.8068ZM404.441 88.2784C397.844 88.2784 392.224 86.943 387.544 84.3155L386.565 86.0595C391.601 88.8866 397.572 90.2784 404.441 90.2784V88.2784ZM387.55 84.3189C382.891 81.6605 379.304 77.9114 376.777 73.0502L375.003 73.9726C377.703 79.1681 381.559 83.2032 386.559 86.0561L387.55 84.3189ZM376.778 73.0522C374.252 68.1645 372.969 62.3483 372.969 55.571H370.969C370.969 62.6006 372.301 68.7446 375.002 73.9705L376.778 73.0522ZM372.969 55.571C372.969 48.9689 374.25 43.2216 376.779 38.3009L375.001 37.3866C372.302 42.6364 370.969 48.7072 370.969 55.571H372.969ZM376.779 38.3009C379.311 33.3758 382.862 29.5541 387.441 26.8125L386.413 25.0966C381.503 28.0368 377.696 32.1413 375.001 37.3866L376.779 38.3009ZM387.438 26.8138C392.034 24.0786 397.448 22.6932 403.717 22.6932V20.6932C397.145 20.6932 391.366 22.1487 386.415 25.0952L387.438 26.8138ZM403.717 22.6932C407.926 22.6932 411.826 23.3712 415.426 24.7179L416.127 22.8446C412.284 21.4072 408.144 20.6932 403.717 20.6932V22.6932ZM415.435 24.721C419.051 26.0363 422.194 28.0188 424.874 30.671L426.281 29.2495C423.392 26.3903 420.001 24.2535 416.118 22.8415L415.435 24.721ZM424.878 30.6745C427.572 33.3149 429.685 36.6512 431.203 40.7084L433.077 40.0075C431.47 35.7124 429.207 32.1169 426.277 29.2459L424.878 30.6745ZM431.204 40.7105C432.715 44.7208 433.484 49.4544 433.484 54.9318H435.484C435.484 49.2728 434.69 44.2906 433.076 40.0054L431.204 40.7105ZM433.484 54.9318V59.9176H435.484V54.9318H433.484ZM434.484 58.9176H379.214V60.9176H434.484V58.9176ZM380.214 59.9176V48.6676H378.214V59.9176H380.214ZM379.214 49.6676H417.396V47.6676H379.214V49.6676ZM418.396 48.6676C418.396 45.9046 417.793 43.4161 416.562 41.2307L414.82 42.2124C415.861 44.0612 416.396 46.2034 416.396 48.6676H418.396ZM416.562 41.2307C415.336 39.0545 413.628 37.3463 411.452 36.1202L410.47 37.8627C412.328 38.9094 413.773 40.3546 414.82 42.2124L416.562 41.2307ZM411.466 36.1286C409.303 34.8616 406.808 34.2443 404.015 34.2443V36.2443C406.506 36.2443 408.642 36.7919 410.456 37.8544L411.466 36.1286ZM404.015 34.2443C401.098 34.2443 398.474 34.9229 396.171 36.3044L397.2 38.0194C399.159 36.8442 401.42 36.2443 404.015 36.2443V34.2443ZM396.174 36.3024C393.921 37.642 392.149 39.4602 390.87 41.7444L392.615 42.7216C393.722 40.7444 395.245 39.1819 397.196 38.0215L396.174 36.3024ZM390.872 41.7393C389.59 43.9991 388.94 46.5108 388.91 49.2532L390.91 49.2752C390.936 46.8471 391.508 44.6714 392.612 42.7266L390.872 41.7393ZM388.91 49.2642V59.9602H390.91V49.2642H388.91ZM388.91 59.9602C388.91 63.3209 389.529 66.2806 390.807 68.8066L392.592 67.9036C391.484 65.7137 390.91 63.0768 390.91 59.9602H388.91ZM390.812 68.8151C392.118 71.336 393.968 73.2982 396.356 74.6758L397.356 72.9435C395.312 71.7643 393.725 70.0902 392.587 67.8951L390.812 68.8151ZM396.356 74.6758C398.75 76.0571 401.557 76.7273 404.739 76.7273V74.7273C401.842 74.7273 399.393 74.119 397.356 72.9435L396.356 74.6758ZM404.739 76.7273C406.851 76.7273 408.807 76.4298 410.6 75.8221L409.958 73.9279C408.399 74.4565 406.662 74.7273 404.739 74.7273V76.7273ZM410.6 75.8221C412.404 75.2108 413.967 74.2862 415.273 73.0423L413.893 71.594C412.813 72.6229 411.507 73.4029 409.958 73.9279L410.6 75.8221ZM415.273 73.0423C416.582 71.7956 417.571 70.2745 418.245 68.4967L416.375 67.7874C415.8 69.3051 414.971 70.568 413.893 71.594L415.273 73.0423ZM417.245 69.1399L434.034 70.2478L434.166 68.2522L417.376 67.1442L417.245 69.1399ZM433.122 69.0433C432.304 72.9146 430.632 76.2802 428.107 79.1587L429.61 80.4777C432.369 77.3335 434.192 73.6536 435.079 69.4567L433.122 69.0433ZM428.107 79.1592C425.609 82.0101 422.363 84.2546 418.342 85.8797L419.091 87.734C423.365 86.0068 426.882 83.5921 429.611 80.4772L428.107 79.1592ZM418.345 85.8783C414.367 87.4698 409.738 88.2784 404.441 88.2784V90.2784C409.939 90.2784 414.828 89.4393 419.088 87.7353L418.345 85.8783ZM500.79 41.2102L500.852 42.2083L501.922 42.1425L501.782 41.0793L500.79 41.2102ZM484.171 42.233L483.191 42.4291L483.362 43.2847L484.233 43.2311L484.171 42.233ZM482.339 38.3977L481.56 39.0248L481.567 39.0341L482.339 38.3977ZM478.631 35.6278L478.205 36.5323L478.215 36.5371L478.225 36.5416L478.631 35.6278ZM466.103 36.3523L466.619 37.2087L466.628 37.2031L466.103 36.3523ZM465.08 45.0028L464.427 45.7597L465.08 45.0028ZM471.515 47.6023L471.305 48.58L471.317 48.5826L471.515 47.6023ZM483.362 49.9886L483.563 49.0091L483.559 49.0083L483.362 49.9886ZM497.594 56.2955L496.915 57.0287V57.0287L497.594 56.2955ZM498.489 79.0085L497.701 78.3931L497.698 78.3975L498.489 79.0085ZM488.177 86.5938L488.558 87.5184L488.561 87.5172L488.177 86.5938ZM452.424 83.8665L451.844 84.6814L451.85 84.6851L452.424 83.8665ZM443.433 69.0369L443.38 68.0383L442.29 68.0955L442.442 69.1765L443.433 69.0369ZM461.288 68.0994L462.267 67.8993L462.095 67.0557L461.235 67.1008L461.288 68.0994ZM465.208 74.1506L464.651 74.9809L464.659 74.9861L465.208 74.1506ZM480.847 74.3636L481.382 75.2088L481.385 75.2068L480.847 74.3636ZM483.83 69.5483L484.83 69.5628L484.83 69.5469L484.83 69.5311L483.83 69.5483ZM481.742 65.5L481.121 66.2841L481.132 66.292L481.742 65.5ZM475.435 63.0284L475.632 62.0478L475.631 62.0477L475.435 63.0284ZM464.1 60.7699L463.904 61.7505L463.905 61.7506L464.1 60.7699ZM449.825 54.1222L449.111 54.8228L449.114 54.8261L449.825 54.1222ZM448.589 31.196L447.791 30.5924L447.788 30.5972L448.589 31.196ZM458.262 24.1648L457.895 23.2346L457.893 23.2354L458.262 24.1648ZM492.438 26.9347L491.845 27.7398L491.847 27.7415L492.438 26.9347ZM500.729 40.2121L484.11 41.2348L484.233 43.2311L500.852 42.2083L500.729 40.2121ZM485.152 42.0368C484.835 40.4518 484.151 39.0227 483.11 37.7613L481.567 39.0341C482.402 40.0455 482.939 41.1732 483.191 42.4291L485.152 42.0368ZM483.118 37.7707C482.069 36.4675 480.699 35.4524 479.038 34.714L478.225 36.5416C479.632 37.1669 480.734 37.9984 481.56 39.0247L483.118 37.7707ZM479.058 34.7234C477.389 33.936 475.432 33.5625 473.219 33.5625V35.5625C475.212 35.5625 476.863 35.8993 478.205 36.5323L479.058 34.7234ZM473.219 33.5625C470.266 33.5625 467.701 34.1899 465.577 35.5015L466.628 37.2031C468.369 36.1283 470.548 35.5625 473.219 35.5625V33.5625ZM465.587 35.4959C463.408 36.8093 462.205 38.6706 462.205 41.0398H464.205C464.205 39.4885 464.934 38.2248 466.619 37.2086L465.587 35.4959ZM462.205 41.0398C462.205 42.9112 462.971 44.5025 464.427 45.7597L465.734 44.246C464.69 43.3441 464.205 42.2933 464.205 41.0398H462.205ZM464.427 45.7597C465.872 47.0083 468.222 47.9173 471.305 48.5799L471.725 46.6246C468.728 45.9804 466.788 45.1564 465.734 44.246L464.427 45.7597ZM471.317 48.5826L483.164 50.9689L483.559 49.0083L471.712 46.622L471.317 48.5826ZM483.16 50.9682C489.432 52.2561 493.976 54.3042 496.915 57.0287L498.274 55.5622C494.963 52.4912 490.019 50.3349 483.563 49.0091L483.16 50.9682ZM496.915 57.0287C499.812 59.7159 501.282 63.2454 501.282 67.7159H503.282C503.282 62.7546 501.626 58.6704 498.274 55.5622L496.915 57.0287ZM501.282 67.7159C501.282 71.7933 500.086 75.3384 497.701 78.3932L499.278 79.6239C501.95 76.2013 503.282 72.2181 503.282 67.7159H501.282ZM497.698 78.3975C495.32 81.4778 492.033 83.9083 487.793 85.6703L488.561 87.5172C493.071 85.6428 496.659 83.0165 499.281 79.6196L497.698 78.3975ZM487.796 85.6691C483.593 87.3999 478.712 88.2784 473.134 88.2784V90.2784C478.92 90.2784 484.068 89.3671 488.558 87.5184L487.796 85.6691ZM473.134 88.2784C464.599 88.2784 457.919 86.5006 452.998 83.0479L451.85 84.6851C457.213 88.4483 464.34 90.2784 473.134 90.2784V88.2784ZM453.004 83.0515C448.115 79.5754 445.265 74.8772 444.423 68.8974L442.442 69.1765C443.361 75.6966 446.505 80.8848 451.844 84.6814L453.004 83.0515ZM443.485 70.0356L461.34 69.0981L461.235 67.1008L443.38 68.0383L443.485 70.0356ZM460.308 68.2996C460.896 71.1764 462.34 73.4301 464.651 74.9809L465.765 73.3203C463.928 72.087 462.759 70.3065 462.267 67.8993L460.308 68.2996ZM464.659 74.9861C466.939 76.4853 469.802 77.196 473.177 77.196V75.196C470.075 75.196 467.625 74.5431 465.758 73.315L464.659 74.9861ZM473.177 77.196C476.477 77.196 479.239 76.5639 481.382 75.2088L480.313 73.5184C478.592 74.6066 476.241 75.196 473.177 75.196V77.196ZM481.385 75.2068C483.568 73.8148 484.796 71.9258 484.83 69.5628L482.83 69.5338C482.808 71.0912 482.047 72.4125 480.31 73.5205L481.385 75.2068ZM484.83 69.5311C484.796 67.5639 483.945 65.9351 482.353 64.708L481.132 66.292C482.267 67.1671 482.807 68.2372 482.83 69.5655L484.83 69.5311ZM482.363 64.716C480.819 63.4936 478.537 62.6289 475.632 62.0478L475.239 64.009C478.016 64.5643 479.938 65.3474 481.121 66.284L482.363 64.716ZM475.631 62.0477L464.296 59.7892L463.905 61.7506L475.24 64.0091L475.631 62.0477ZM464.296 59.7893C458.013 58.5326 453.468 56.3785 450.535 53.4183L449.114 54.8261C452.431 58.1726 457.403 60.4503 463.904 61.7505L464.296 59.7893ZM450.538 53.4215C447.645 50.4756 446.18 46.7171 446.18 42.0625H444.18C444.18 47.1806 445.811 51.4619 449.111 54.8228L450.538 53.4215ZM446.18 42.0625C446.18 38.0493 447.26 34.6431 449.39 31.7948L447.788 30.5972C445.372 33.8285 444.18 37.6666 444.18 42.0625H446.18ZM449.386 31.7996C451.559 28.9288 454.624 26.6861 458.631 25.0941L457.893 23.2354C453.605 24.9389 450.22 27.3837 447.791 30.5924L449.386 31.7996ZM458.629 25.095C462.663 23.5032 467.42 22.6932 472.921 22.6932V20.6932C467.229 20.6932 462.213 21.5309 457.895 23.2346L458.629 25.095ZM472.921 22.6932C481.058 22.6932 487.33 24.414 491.845 27.7398L493.031 26.1295C488.058 22.4667 481.318 20.6932 472.921 20.6932V22.6932ZM491.847 27.7415C496.393 31.0698 499.038 35.5807 499.799 41.3412L501.782 41.0793C500.952 34.7943 498.029 29.7882 493.029 26.1278L491.847 27.7415Z"
        fill="white" fill-opacity="0.5" mask="url(#path-1-outside-1_0_342)" />
</svg>