<svg width="22" height="21" viewBox="0 0 22 21" fill="none" xmlns="http://www.w3.org/2000/svg">
    <path
        d="M7.625 4.10938H6.125C5.72718 4.10938 5.34564 4.26741 5.06434 4.54872C4.78304 4.83002 4.625 5.21155 4.625 5.60938V7.10938M7.625 4.10938V1.10938M7.625 4.10938H14.375M4.625 7.10938V13.8594M4.625 7.10938H1.625M14.375 4.10938H15.875C16.2728 4.10938 16.6544 4.26741 16.9357 4.54872C17.217 4.83002 17.375 5.21155 17.375 5.60938V7.10938M14.375 4.10938V1.10938M17.375 7.10938H20.375M17.375 7.10938V13.8594M7.625 19.8594V16.8594M14.375 19.8594V16.8594M17.375 13.8594V15.3594C17.375 15.7572 17.217 16.1387 16.9357 16.42C16.6544 16.7013 16.2728 16.8594 15.875 16.8594H6.125C5.72718 16.8594 5.34564 16.7013 5.06434 16.42C4.78304 16.1387 4.625 15.7572 4.625 15.3594V13.8594M17.375 13.8594H20.375M4.625 13.8594H1.625"
        stroke="#56C2FF" stroke-width="1.5" stroke-linecap="round" stroke-linejoin="round" />
</svg>