<svg width="111" height="32" viewBox="0 0 111 32" fill="none" xmlns="http://www.w3.org/2000/svg">
<g opacity="0.6">
<g clip-path="url(#clip0_0_314)">
<path d="M18.667 0.09375H0L9.333 9.42675H18.667V0.09375ZM0 18.7607H18.667L9.333 9.42675H0V18.7607ZM0 18.7607L9.333 28.0938V18.7607H0ZM37.333 21.5147V6.38775H46.563V9.33075H40.836V13.4137H46.564V16.2827H40.836V21.5147H37.333ZM49.17 21.5147V11.1038H52.471V12.7917C52.717 12.2998 53.125 11.8667 53.695 11.4948C54.265 11.1147 54.933 10.9248 55.699 10.9248C56.058 10.9248 56.374 10.9847 56.649 11.1047V14.1108C56.4542 14.0618 56.2569 14.023 56.058 13.9948C55.8803 13.9648 55.7002 13.9507 55.52 13.9528C54.584 13.9528 53.843 14.2157 53.294 14.7428C52.746 15.2708 52.471 16.1747 52.471 17.4548V21.5158H49.17V21.5147ZM57.324 16.3037C57.324 15.5237 57.447 14.7987 57.693 14.1307C57.9261 13.4951 58.2807 12.9109 58.737 12.4108C59.187 11.9258 59.711 11.5427 60.309 11.2607C60.9166 10.9776 61.5797 10.8338 62.25 10.8398C63.03 10.8398 63.706 11.0048 64.275 11.3348C64.852 11.6658 65.285 12.0848 65.573 12.5907V11.1027H68.875V21.5147H65.573V20.0487C65.313 20.5268 64.894 20.9348 64.318 21.2728C63.741 21.6098 63.052 21.7787 62.25 21.7787C61.56 21.7787 60.914 21.6388 60.31 21.3568C59.7162 21.0788 59.182 20.6882 58.737 20.2068C58.282 19.7018 57.9277 19.1146 57.693 18.4767C57.4416 17.7801 57.3173 17.0443 57.324 16.3037ZM60.604 16.3037C60.604 16.6627 60.664 17.0068 60.784 17.3377C60.91 17.6607 61.079 17.9427 61.29 18.1817C61.508 18.4137 61.768 18.6038 62.07 18.7518C62.373 18.8918 62.71 18.9618 63.084 18.9618C63.456 18.9618 63.794 18.8918 64.096 18.7518C64.406 18.6038 64.666 18.4137 64.876 18.1817C65.095 17.9417 65.264 17.6617 65.383 17.3377C65.51 17.0138 65.573 16.6697 65.573 16.3037C65.573 15.9447 65.51 15.6077 65.383 15.2907C65.2675 14.9808 65.0959 14.6947 64.877 14.4467C64.6653 14.2001 64.4026 14.0022 64.107 13.8667C63.7856 13.7224 63.4363 13.6507 63.084 13.6567C62.711 13.6567 62.374 13.7267 62.071 13.8667C61.7736 14.0039 61.5079 14.2014 61.291 14.4467C61.079 14.6937 60.911 14.9747 60.784 15.2907C60.664 15.6077 60.604 15.9447 60.604 16.3037ZM71.68 21.5147V11.1038H74.877V12.6128C75.109 12.1488 75.472 11.7367 75.964 11.3787C76.464 11.0197 77.131 10.8407 77.968 10.8407C78.748 10.8407 79.396 11.0127 79.909 11.3567C80.429 11.6947 80.806 12.1487 81.038 12.7177C81.165 12.4717 81.326 12.2368 81.523 12.0118C81.7229 11.7767 81.9576 11.5737 82.219 11.4097C82.494 11.2347 82.814 11.0967 83.179 10.9987C83.5847 10.889 84.0037 10.8359 84.424 10.8407C85.141 10.8407 85.732 10.9637 86.196 11.2098C86.638 11.4355 87.0129 11.7734 87.283 12.1897C87.543 12.5918 87.719 13.0487 87.81 13.5618C87.902 14.0688 87.948 14.5818 87.948 15.1018V21.5158H84.772V15.9038C84.772 15.2008 84.646 14.6517 84.392 14.2587C84.146 13.8577 83.742 13.6567 83.179 13.6567C82.933 13.6567 82.701 13.6987 82.483 13.7837C82.2574 13.8736 82.0605 14.0229 81.913 14.2157C81.759 14.4127 81.639 14.6838 81.555 15.0288C81.47 15.3658 81.428 15.7848 81.428 16.2838V21.5158H78.232V15.8728C78.232 15.1688 78.109 14.6237 77.862 14.2367C77.617 13.8507 77.212 13.6567 76.65 13.6567C76.143 13.6567 75.721 13.8507 75.384 14.2367C75.046 14.6237 74.877 15.3308 74.877 16.3568V21.5168H71.681L71.68 21.5147ZM89.984 16.3037C89.984 15.5367 90.1 14.8238 90.332 14.1628C90.571 13.5008 90.922 12.9247 91.387 12.4327C91.8718 11.9238 92.4572 11.5213 93.106 11.2507C93.788 10.9627 94.569 10.8188 95.448 10.8188C96.285 10.8188 97.038 10.9487 97.705 11.2087C98.3391 11.4471 98.9174 11.8134 99.404 12.2847C99.874 12.7347 100.237 13.2727 100.49 13.8988C100.743 14.5248 100.87 15.1987 100.87 15.9237C100.87 16.1278 100.863 16.3037 100.849 16.4517C100.826 16.6704 100.798 16.8884 100.765 17.1057H93.306C93.306 17.4217 93.346 17.7208 93.422 18.0018C93.507 18.2838 93.633 18.5297 93.802 18.7407C93.978 18.9507 94.21 19.1167 94.498 19.2367C94.787 19.3568 95.138 19.4158 95.553 19.4158C96.144 19.4158 96.587 19.3027 96.883 19.0777C97.178 18.8457 97.382 18.5647 97.494 18.2337H100.743C100.659 18.7261 100.476 19.1963 100.205 19.6157C99.9302 20.054 99.5761 20.4372 99.161 20.7458C98.732 21.0688 98.219 21.3258 97.621 21.5158C97.023 21.7058 96.348 21.7997 95.596 21.7997C94.688 21.7997 93.883 21.6597 93.18 21.3778C92.5158 21.1182 91.9149 20.7192 91.418 20.2078C90.9437 19.7032 90.5775 19.107 90.342 18.4557C90.0992 17.7645 89.9781 17.0364 89.984 16.3037ZM93.306 15.2067H97.632C97.632 14.5737 97.431 14.0747 97.03 13.7087C96.636 13.3357 96.116 13.1488 95.469 13.1488C94.85 13.1488 94.333 13.3287 93.919 13.6877C93.51 14.0387 93.306 14.5457 93.306 15.2067ZM103.117 21.5147V11.1038H106.419V12.7917C106.665 12.2998 107.073 11.8667 107.642 11.4948C108.212 11.1147 108.88 10.9248 109.647 10.9248C110.005 10.9248 110.322 10.9847 110.596 11.1047V14.1108C110.401 14.0617 110.204 14.023 110.005 13.9948C109.827 13.9647 109.647 13.9507 109.467 13.9528C108.532 13.9528 107.79 14.2157 107.242 14.7428C106.693 15.2708 106.419 16.1747 106.419 17.4548V21.5158H103.117V21.5147Z" fill="white"/>
</g>
</g>
<defs>
<clipPath id="clip0_0_314">
<rect width="111" height="28" fill="white" transform="translate(0 0.09375)"/>
</clipPath>
</defs>
</svg>
