<svg width="94" height="28" viewBox="0 0 94 28" fill="none" xmlns="http://www.w3.org/2000/svg">
<g opacity="0.6">
<g clip-path="url(#clip0_0_297)">
<path d="M18.8938 10.3658H11.1638C10.9638 10.3658 10.8028 10.5218 10.8028 10.7148V14.3608C10.8028 14.5528 10.9638 14.7098 11.1628 14.7098H14.1788V19.2397C14.1788 19.2397 13.5018 19.4627 11.6288 19.4627C9.42083 19.4627 6.33583 18.6838 6.33583 12.1388C6.33583 5.59275 9.54783 4.73075 12.5648 4.73075C15.1748 4.73075 16.3008 5.17475 17.0158 5.38875C17.2418 5.45475 17.4498 5.23875 17.4498 5.04675L18.3118 1.52375C18.3118 1.43375 18.2808 1.32475 18.1738 1.25175C17.8838 1.05175 16.1088 0.09375 11.6298 0.09375C6.46983 0.09375 1.17383 2.21175 1.17383 12.3938C1.17383 22.5767 7.23583 24.0938 12.3438 24.0938C16.5718 24.0938 19.1378 22.3507 19.1378 22.3507C19.2428 22.2938 19.2548 22.1507 19.2548 22.0868V10.7148C19.2533 10.6208 19.2145 10.5313 19.147 10.4658C19.0795 10.4004 18.9878 10.3644 18.8938 10.3658ZM58.7358 1.31375C58.7358 1.11975 58.5758 0.96375 58.3768 0.96375H54.0238C53.9772 0.963089 53.9309 0.971618 53.8876 0.98885C53.8443 1.00608 53.8048 1.03168 53.7713 1.06418C53.7379 1.09668 53.7112 1.13545 53.6928 1.17827C53.6743 1.22109 53.6645 1.26713 53.6638 1.31375V9.42875H46.8808V1.31375C46.8808 1.11975 46.7208 0.96375 46.5208 0.96375H42.1688C42.1222 0.963089 42.0759 0.971618 42.0326 0.98885C41.9893 1.00608 41.9498 1.03168 41.9163 1.06418C41.8829 1.09668 41.8562 1.13545 41.8378 1.17827C41.8193 1.22109 41.8095 1.26713 41.8088 1.31375V23.2857C41.8088 23.4807 41.9708 23.6378 42.1688 23.6378H46.5218C46.7198 23.6378 46.8808 23.4807 46.8808 23.2857V13.8877H53.6658L53.6538 23.2857C53.6538 23.4807 53.8148 23.6378 54.0138 23.6378H58.3778C58.5778 23.6378 58.7358 23.4807 58.7378 23.2857V1.31375H58.7358ZM27.1088 4.19675C27.1088 2.68575 25.8508 1.46375 24.3008 1.46375C22.7518 1.46375 21.4948 2.68575 21.4948 4.19675C21.4948 5.70775 22.7528 6.93275 24.3008 6.93275C25.8508 6.93275 27.1088 5.70775 27.1088 4.19675ZM26.7968 18.6507V8.50875C26.7962 8.46213 26.7863 8.41609 26.7679 8.37327C26.7495 8.33045 26.7228 8.29168 26.6893 8.25918C26.6559 8.22668 26.6164 8.20108 26.5731 8.18385C26.5297 8.16662 26.4834 8.15809 26.4368 8.15875H22.0978C21.8978 8.15875 21.7208 8.35675 21.7208 8.54875V23.0798C21.7208 23.5077 21.9958 23.6348 22.3528 23.6348H26.2628C26.6918 23.6348 26.7968 23.4317 26.7968 23.0737V18.6507ZM75.2788 8.19175H70.9588C70.8648 8.19095 70.7742 8.22742 70.7069 8.29319C70.6396 8.35896 70.6012 8.44868 70.5998 8.54275V19.3167C70.5998 19.3167 69.5028 20.0917 67.9448 20.0917C66.3878 20.0917 65.9748 19.4097 65.9748 17.9387V8.54275C65.9733 8.44868 65.9345 8.35906 65.867 8.29348C65.7996 8.22789 65.7089 8.19168 65.6148 8.19275H61.2298C61.1359 8.19195 61.0455 8.22828 60.9783 8.29383C60.911 8.35939 60.8724 8.44886 60.8708 8.54275V18.6497C60.8708 23.0197 63.3958 24.0898 66.8688 24.0898C69.7188 24.0898 72.0148 22.5697 72.0148 22.5697C72.0148 22.5697 72.1248 23.3708 72.1748 23.4657C72.2071 23.5218 72.2532 23.5686 72.3087 23.6019C72.3642 23.6351 72.4272 23.6537 72.4918 23.6558L75.2808 23.6437C75.4778 23.6437 75.6408 23.4868 75.6408 23.2938L75.6388 8.54375C75.6383 8.497 75.6286 8.45081 75.6102 8.40782C75.5918 8.36482 75.5652 8.32587 75.5317 8.29319C75.4983 8.2605 75.4588 8.23472 75.4154 8.21731C75.372 8.19991 75.3256 8.19122 75.2788 8.19175ZM85.3808 20.0788C83.8828 20.0338 82.8668 19.3787 82.8668 19.3787V12.4198C82.8668 12.4198 83.8688 11.8267 85.0998 11.7207C86.6548 11.5868 88.1538 12.0408 88.1538 15.6208C88.1538 19.3938 87.4758 20.1388 85.3808 20.0788ZM87.0848 7.69875C84.6318 7.69875 82.9628 8.75375 82.9628 8.75375V1.31375C82.9615 1.21977 82.923 1.13015 82.8557 1.06454C82.7884 0.998927 82.6978 0.962682 82.6038 0.96375H78.2378C78.1912 0.963089 78.1449 0.971618 78.1016 0.98885C78.0583 1.00608 78.0188 1.03168 77.9853 1.06418C77.9519 1.09668 77.9252 1.13545 77.9068 1.17827C77.8883 1.22109 77.8785 1.26713 77.8778 1.31375V23.2857C77.8778 23.4807 78.0408 23.6378 78.2388 23.6378H81.2688C81.4038 23.6378 81.5078 23.5697 81.5828 23.4517C81.6588 23.3337 81.7678 22.4387 81.7678 22.4387C81.7678 22.4387 83.5528 24.0688 86.9308 24.0688C90.8988 24.0688 93.1738 22.1287 93.1738 15.3567C93.1738 8.58375 89.5408 7.69875 87.0848 7.69875ZM39.3078 8.15775H36.0418L36.0368 3.99575C36.0368 3.83775 35.9538 3.75975 35.7638 3.75975H31.3148C31.1418 3.75975 31.0488 3.83275 31.0488 3.99375V8.29375C31.0488 8.29375 28.8188 8.81275 28.6688 8.85375C28.5948 8.87356 28.5292 8.91699 28.4821 8.97746C28.435 9.03792 28.4089 9.11211 28.4078 9.18875V11.8918C28.4078 12.0858 28.5678 12.2428 28.7678 12.2428H31.0478V18.7428C31.0478 23.5728 34.5598 24.0467 36.9288 24.0467C38.0118 24.0467 39.3068 23.7108 39.5208 23.6348C39.6508 23.5888 39.7248 23.4597 39.7248 23.3197L39.7288 20.3468C39.7288 20.1537 39.5588 19.9967 39.3678 19.9967C39.1778 19.9967 38.6898 20.0707 38.1898 20.0707C36.5858 20.0707 36.0418 19.3507 36.0418 18.4207V12.2437H39.3078C39.5068 12.2437 39.6678 12.0868 39.6678 11.8927V8.50675C39.6672 8.46013 39.6573 8.41409 39.6389 8.37127C39.6205 8.32845 39.5938 8.28968 39.5603 8.25718C39.5269 8.22468 39.4874 8.19908 39.4441 8.18185C39.4007 8.16462 39.3544 8.15609 39.3078 8.15675V8.15775Z" fill="white"/>
</g>
</g>
<defs>
<clipPath id="clip0_0_297">
<rect width="93" height="24" fill="white" transform="translate(0.78125 0.09375)"/>
</clipPath>
</defs>
</svg>
