<svg width="40" height="40" viewBox="0 0 40 40" fill="none" xmlns="http://www.w3.org/2000/svg">
<circle cx="20" cy="20" r="20" fill="#F1F1F1"/>
<path d="M24.3748 11.2498C25.5342 11.2533 26.6451 11.7154 27.4648 12.5352C28.2846 13.3549 28.7467 14.4658 28.7502 15.6252V24.3748C28.7467 25.5342 28.2846 26.6451 27.4648 27.4648C26.6451 28.2846 25.5342 28.7467 24.3748 28.7502H15.6252C14.4658 28.7467 13.3549 28.2846 12.5352 27.4648C11.7154 26.6451 11.2533 25.5342 11.2498 24.3748V15.6252C11.2533 14.4658 11.7154 13.3549 12.5352 12.5352C13.3549 11.7154 14.4658 11.2533 15.6252 11.2498H24.3748ZM24.3748 9.5H15.6252C12.2562 9.5 9.5 12.2562 9.5 15.6252V24.3748C9.5 27.7437 12.2562 30.5 15.6252 30.5H24.3748C27.7437 30.5 30.5 27.7437 30.5 24.3748V15.6252C30.5 12.2562 27.7437 9.5 24.3748 9.5Z" fill="#06030E"/>
<path d="M25.6873 15.625C25.4278 15.625 25.174 15.548 24.9582 15.4038C24.7423 15.2596 24.5741 15.0546 24.4748 14.8148C24.3754 14.5749 24.3494 14.311 24.4001 14.0564C24.4507 13.8018 24.5757 13.568 24.7593 13.3844C24.9428 13.2009 25.1767 13.0759 25.4313 13.0252C25.6859 12.9746 25.9498 13.0006 26.1896 13.0999C26.4294 13.1992 26.6344 13.3675 26.7786 13.5833C26.9229 13.7992 26.9998 14.0529 26.9998 14.3125C27.0002 14.485 26.9665 14.6558 26.9007 14.8152C26.8349 14.9746 26.7382 15.1195 26.6162 15.2414C26.4943 15.3634 26.3495 15.46 26.1901 15.5258C26.0306 15.5917 25.8598 15.6254 25.6873 15.625ZM20 16.4997C20.6923 16.4997 21.369 16.705 21.9446 17.0896C22.5202 17.4742 22.9688 18.0208 23.2337 18.6604C23.4986 19.3 23.568 20.0037 23.4329 20.6827C23.2978 21.3617 22.9645 21.9853 22.475 22.4748C21.9855 22.9643 21.3618 23.2977 20.6828 23.4327C20.0039 23.5678 19.3001 23.4985 18.6605 23.2336C18.021 22.9686 17.4743 22.52 17.0897 21.9444C16.7051 21.3688 16.4998 20.6921 16.4998 19.9998C16.5008 19.0718 16.8699 18.1821 17.5261 17.526C18.1823 16.8698 19.072 16.5007 20 16.4997ZM20 14.7498C18.9616 14.7498 17.9466 15.0578 17.0833 15.6346C16.2199 16.2115 15.547 17.0314 15.1496 17.9908C14.7523 18.9501 14.6483 20.0057 14.8509 21.0241C15.0535 22.0425 15.5535 22.9779 16.2877 23.7122C17.0219 24.4464 17.9574 24.9464 18.9758 25.149C19.9942 25.3515 21.0498 25.2476 22.0091 24.8502C22.9684 24.4529 23.7883 23.7799 24.3652 22.9166C24.9421 22.0532 25.25 21.0382 25.25 19.9998C25.25 18.6075 24.6969 17.2721 23.7123 16.2875C22.7277 15.303 21.3924 14.7498 20 14.7498Z" fill="#06030E"/>
</svg>
