<svg width="40" height="40" viewBox="0 0 40 40" fill="none" xmlns="http://www.w3.org/2000/svg">
<circle cx="20" cy="20" r="20" fill="#F1F1F1"/>
<path d="M28.8205 9.5H11.2944C10.3367 9.5 9.5 10.1891 9.5 11.1355V28.7005C9.5 29.652 10.3367 30.5 11.2944 30.5H28.8153C29.7781 30.5 30.5 29.6464 30.5 28.7005V11.1355C30.5056 10.1891 29.7781 9.5 28.8205 9.5ZM16.0095 27.0045H13.0011V17.6506H16.0095V27.0045ZM14.6094 16.2284H14.5878C13.625 16.2284 13.0016 15.5117 13.0016 14.6145C13.0016 13.7009 13.6414 13.0011 14.6258 13.0011C15.6102 13.0011 16.2125 13.6958 16.2341 14.6145C16.2336 15.5117 15.6102 16.2284 14.6094 16.2284ZM27.0045 27.0045H23.9961V21.89C23.9961 20.6647 23.5583 19.8275 22.4698 19.8275C21.6383 19.8275 21.1461 20.39 20.9272 20.938C20.8452 21.1348 20.8231 21.403 20.8231 21.6767V27.0045H17.8147V17.6506H20.8231V18.9523C21.2609 18.3289 21.9448 17.4317 23.5363 17.4317C25.5111 17.4317 27.005 18.7334 27.005 21.5398L27.0045 27.0045Z" fill="#06030E"/>
</svg>
