<svg width="117" height="18" viewBox="0 0 117 18" fill="none" xmlns="http://www.w3.org/2000/svg">
<path d="M8.06676 4.83381C8.02415 4.36506 7.83452 4.00071 7.49787 3.74077C7.16548 3.47656 6.69034 3.34446 6.07244 3.34446C5.66335 3.34446 5.32244 3.39773 5.04972 3.50426C4.77699 3.6108 4.57244 3.75781 4.43608 3.94531C4.29972 4.12855 4.2294 4.33949 4.22514 4.57812C4.21662 4.77415 4.25497 4.94673 4.3402 5.09588C4.42969 5.24503 4.55753 5.37713 4.72372 5.49219C4.89418 5.60298 5.09872 5.70099 5.33736 5.78622C5.57599 5.87145 5.84446 5.94602 6.14276 6.00994L7.26776 6.26562C7.91548 6.40625 8.48651 6.59375 8.98082 6.82812C9.4794 7.0625 9.89702 7.34162 10.2337 7.66548C10.5746 7.98935 10.8324 8.36222 11.0071 8.78409C11.1818 9.20597 11.2713 9.67898 11.2756 10.2031C11.2713 11.0298 11.0625 11.7393 10.6491 12.3317C10.2358 12.924 9.64134 13.3778 8.86577 13.6932C8.09446 14.0085 7.16335 14.1662 6.07244 14.1662C4.97727 14.1662 4.02273 14.0021 3.20881 13.674C2.39489 13.3459 1.76207 12.8473 1.31037 12.1783C0.858665 11.5092 0.62642 10.6634 0.613636 9.64062H3.64347C3.66903 10.0625 3.78196 10.4141 3.98224 10.6953C4.18253 10.9766 4.45739 11.1896 4.80682 11.3345C5.16051 11.4794 5.5696 11.5518 6.03409 11.5518C6.46023 11.5518 6.82244 11.4943 7.12074 11.3793C7.4233 11.2642 7.65554 11.1044 7.81747 10.8999C7.9794 10.6953 8.0625 10.4609 8.06676 10.1967C8.0625 9.94957 7.9858 9.73864 7.83665 9.56392C7.6875 9.38494 7.45739 9.23153 7.14631 9.10369C6.83949 8.97159 6.44744 8.85014 5.97017 8.73935L4.60227 8.41974C3.46875 8.1598 2.57599 7.74006 1.92401 7.16051C1.27202 6.5767 0.948153 5.78835 0.952415 4.79545C0.948153 3.9858 1.16548 3.27628 1.6044 2.6669C2.04332 2.05753 2.65057 1.58239 3.42614 1.24148C4.2017 0.900568 5.08594 0.730113 6.07884 0.730113C7.09304 0.730113 7.97301 0.902698 8.71875 1.24787C9.46875 1.58878 10.0504 2.06818 10.4638 2.68608C10.8771 3.30398 11.0881 4.01989 11.0966 4.83381H8.06676ZM18.6155 4.18182V6.48295H12.4216V4.18182H18.6155ZM13.7192 1.82955H16.8449V10.9126C16.8449 11.1044 16.8747 11.2599 16.9344 11.3793C16.9983 11.4943 17.0899 11.5774 17.2092 11.6286C17.3286 11.6754 17.4713 11.6989 17.6375 11.6989C17.7568 11.6989 17.8825 11.6882 18.0146 11.6669C18.151 11.6413 18.2533 11.62 18.3214 11.603L18.7945 13.8594C18.6453 13.902 18.4344 13.9553 18.1616 14.0192C17.8932 14.0831 17.5714 14.1236 17.1964 14.1406C16.4635 14.1747 15.8349 14.0895 15.3108 13.8849C14.7909 13.6761 14.3925 13.3523 14.1155 12.9134C13.8428 12.4744 13.7107 11.9226 13.7192 11.2578V1.82955ZM24.8879 14.1854C23.8567 14.1854 22.9703 13.9744 22.2288 13.5526C21.4916 13.1264 20.9227 12.5341 20.5222 11.7756C20.1259 11.0128 19.9277 10.1286 19.9277 9.12287C19.9277 8.11293 20.1259 7.22869 20.5222 6.47017C20.9227 5.70739 21.4916 5.11506 22.2288 4.69318C22.9703 4.26705 23.8567 4.05398 24.8879 4.05398C25.9192 4.05398 26.8034 4.26705 27.5406 4.69318C28.2821 5.11506 28.851 5.70739 29.2473 6.47017C29.6479 7.22869 29.8482 8.11293 29.8482 9.12287C29.8482 10.1286 29.6479 11.0128 29.2473 11.7756C28.851 12.5341 28.2821 13.1264 27.5406 13.5526C26.8034 13.9744 25.9192 14.1854 24.8879 14.1854ZM24.9071 11.8267C25.2821 11.8267 25.5996 11.7116 25.8595 11.4815C26.1195 11.2514 26.3176 10.9318 26.454 10.5227C26.5946 10.1136 26.6649 9.64062 26.6649 9.10369C26.6649 8.55824 26.5946 8.08097 26.454 7.67188C26.3176 7.26278 26.1195 6.94318 25.8595 6.71307C25.5996 6.48295 25.2821 6.3679 24.9071 6.3679C24.5193 6.3679 24.1912 6.48295 23.9227 6.71307C23.6585 6.94318 23.4561 7.26278 23.3155 7.67188C23.1791 8.08097 23.1109 8.55824 23.1109 9.10369C23.1109 9.64062 23.1791 10.1136 23.3155 10.5227C23.4561 10.9318 23.6585 11.2514 23.9227 11.4815C24.1912 11.7116 24.5193 11.8267 24.9071 11.8267ZM36.2325 14.1854C35.1969 14.1854 34.3085 13.9723 33.567 13.5462C32.8298 13.12 32.263 12.5277 31.8667 11.7692C31.4704 11.0064 31.2722 10.1243 31.2722 9.12287C31.2722 8.11719 31.4704 7.23509 31.8667 6.47656C32.2673 5.71378 32.8362 5.11932 33.5734 4.69318C34.3148 4.26705 35.1991 4.05398 36.2261 4.05398C37.1337 4.05398 37.9242 4.21804 38.5975 4.54616C39.2751 4.87429 39.8035 5.33878 40.1827 5.93963C40.5663 6.53622 40.7687 7.23722 40.79 8.04261H37.8688C37.8092 7.53977 37.6387 7.1456 37.3575 6.86009C37.0805 6.57457 36.7183 6.43182 36.2708 6.43182C35.9086 6.43182 35.5911 6.53409 35.3184 6.73864C35.0457 6.93892 34.8326 7.23722 34.6792 7.63352C34.53 8.02557 34.4555 8.51136 34.4555 9.09091C34.4555 9.67045 34.53 10.1605 34.6792 10.5611C34.8326 10.9574 35.0457 11.2578 35.3184 11.4624C35.5911 11.6626 35.9086 11.7628 36.2708 11.7628C36.5606 11.7628 36.8163 11.701 37.0379 11.5774C37.2637 11.4538 37.4491 11.2727 37.594 11.0341C37.7388 10.7912 37.8305 10.4972 37.8688 10.152H40.79C40.7602 10.9616 40.5577 11.669 40.1827 12.2741C39.812 12.8793 39.29 13.3501 38.6167 13.6868C37.9477 14.0192 37.1529 14.1854 36.2325 14.1854ZM45.4085 11.424L45.4213 7.69744H45.8559L48.6173 4.18182H52.1585L48.0548 9.21875H47.2302L45.4085 11.424ZM42.5896 14V0.909091H45.7153V14H42.5896ZM48.6876 14L46.118 9.92188L48.1762 7.70384L52.2991 14H48.6876ZM57.5443 14V0.909091H62.952C63.9321 0.909091 64.7779 1.10085 65.4896 1.48438C66.2055 1.86364 66.7574 2.39418 67.1451 3.07599C67.5329 3.75355 67.7268 4.5419 67.7268 5.44105C67.7268 6.34446 67.5287 7.13494 67.1324 7.8125C66.7403 8.4858 66.1799 9.00781 65.4512 9.37855C64.7226 9.74929 63.8575 9.93466 62.8561 9.93466H59.5194V7.44176H62.268C62.7453 7.44176 63.1437 7.35866 63.4633 7.19247C63.7872 7.02628 64.0322 6.79403 64.1984 6.49574C64.3646 6.19318 64.4477 5.84162 64.4477 5.44105C64.4477 5.03622 64.3646 4.68679 64.1984 4.39276C64.0322 4.09446 63.7872 3.86435 63.4633 3.70241C63.1395 3.54048 62.741 3.45952 62.268 3.45952H60.7083V14H57.5443ZM73.5537 14V0.909091H76.7177V11.4304H82.1637V14H73.5537ZM88.5848 14.1854C87.5536 14.1854 86.6672 13.9744 85.9257 13.5526C85.1885 13.1264 84.6196 12.5341 84.219 11.7756C83.8227 11.0128 83.6246 10.1286 83.6246 9.12287C83.6246 8.11293 83.8227 7.22869 84.219 6.47017C84.6196 5.70739 85.1885 5.11506 85.9257 4.69318C86.6672 4.26705 87.5536 4.05398 88.5848 4.05398C89.6161 4.05398 90.5003 4.26705 91.2375 4.69318C91.979 5.11506 92.5479 5.70739 92.9442 6.47017C93.3447 7.22869 93.545 8.11293 93.545 9.12287C93.545 10.1286 93.3447 11.0128 92.9442 11.7756C92.5479 12.5341 91.979 13.1264 91.2375 13.5526C90.5003 13.9744 89.6161 14.1854 88.5848 14.1854ZM88.604 11.8267C88.979 11.8267 89.2965 11.7116 89.5564 11.4815C89.8163 11.2514 90.0145 10.9318 90.1509 10.5227C90.2915 10.1136 90.3618 9.64062 90.3618 9.10369C90.3618 8.55824 90.2915 8.08097 90.1509 7.67188C90.0145 7.26278 89.8163 6.94318 89.5564 6.71307C89.2965 6.48295 88.979 6.3679 88.604 6.3679C88.2162 6.3679 87.8881 6.48295 87.6196 6.71307C87.3554 6.94318 87.153 7.26278 87.0124 7.67188C86.876 8.08097 86.8078 8.55824 86.8078 9.10369C86.8078 9.64062 86.876 10.1136 87.0124 10.5227C87.153 10.9318 87.3554 11.2514 87.6196 11.4815C87.8881 11.7116 88.2162 11.8267 88.604 11.8267ZM99.9229 17.8864C98.9897 17.8864 98.1907 17.7564 97.5259 17.4964C96.8612 17.2365 96.3391 16.8807 95.9599 16.429C95.5806 15.9773 95.3526 15.4659 95.2759 14.8949L98.2354 14.7287C98.2908 14.929 98.3931 15.1037 98.5423 15.2528C98.6957 15.402 98.8938 15.517 99.1367 15.598C99.3839 15.679 99.6737 15.7195 100.006 15.7195C100.53 15.7195 100.963 15.5916 101.304 15.3359C101.649 15.0845 101.821 14.6435 101.821 14.0128V12.2869H101.713C101.589 12.5895 101.402 12.8601 101.15 13.0987C100.899 13.3374 100.586 13.5249 100.211 13.6612C99.8398 13.7976 99.4137 13.8658 98.9322 13.8658C98.2163 13.8658 97.56 13.6996 96.9634 13.3672C96.3711 13.0305 95.896 12.5107 95.538 11.8075C95.1843 11.1001 95.0075 10.1903 95.0075 9.07812C95.0075 7.93182 95.1907 6.98793 95.5572 6.24645C95.9237 5.50071 96.4031 4.94886 96.9954 4.59091C97.592 4.23295 98.2333 4.05398 98.9194 4.05398C99.435 4.05398 99.8761 4.14347 100.243 4.32244C100.613 4.49716 100.918 4.72301 101.157 5C101.395 5.27699 101.576 5.56463 101.7 5.86293H101.789V4.18182H104.902V14.0384C104.902 14.8693 104.694 15.5703 104.276 16.1413C103.858 16.7124 103.275 17.1449 102.525 17.4389C101.775 17.7372 100.907 17.8864 99.9229 17.8864ZM100.019 11.5902C100.398 11.5902 100.722 11.4901 100.99 11.2898C101.259 11.0895 101.466 10.8018 101.61 10.4268C101.755 10.0518 101.828 9.60227 101.828 9.07812C101.828 8.54545 101.755 8.08736 101.61 7.70384C101.47 7.31605 101.263 7.01776 100.99 6.80895C100.722 6.60014 100.398 6.49574 100.019 6.49574C99.631 6.49574 99.3029 6.60227 99.0344 6.81534C98.766 7.02841 98.5614 7.32883 98.4208 7.71662C98.2844 8.10014 98.2163 8.55398 98.2163 9.07812C98.2163 9.60227 98.2866 10.0518 98.4272 10.4268C98.5678 10.8018 98.7702 11.0895 99.0344 11.2898C99.3029 11.4901 99.631 11.5902 100.019 11.5902ZM111.678 14.1854C110.647 14.1854 109.761 13.9744 109.019 13.5526C108.282 13.1264 107.713 12.5341 107.312 11.7756C106.916 11.0128 106.718 10.1286 106.718 9.12287C106.718 8.11293 106.916 7.22869 107.312 6.47017C107.713 5.70739 108.282 5.11506 109.019 4.69318C109.761 4.26705 110.647 4.05398 111.678 4.05398C112.709 4.05398 113.594 4.26705 114.331 4.69318C115.072 5.11506 115.641 5.70739 116.038 6.47017C116.438 7.22869 116.638 8.11293 116.638 9.12287C116.638 10.1286 116.438 11.0128 116.038 11.7756C115.641 12.5341 115.072 13.1264 114.331 13.5526C113.594 13.9744 112.709 14.1854 111.678 14.1854ZM111.697 11.8267C112.072 11.8267 112.39 11.7116 112.65 11.4815C112.91 11.2514 113.108 10.9318 113.244 10.5227C113.385 10.1136 113.455 9.64062 113.455 9.10369C113.455 8.55824 113.385 8.08097 113.244 7.67188C113.108 7.26278 112.91 6.94318 112.65 6.71307C112.39 6.48295 112.072 6.3679 111.697 6.3679C111.31 6.3679 110.981 6.48295 110.713 6.71307C110.449 6.94318 110.246 7.26278 110.106 7.67188C109.969 8.08097 109.901 8.55824 109.901 9.10369C109.901 9.64062 109.969 10.1136 110.106 10.5227C110.246 10.9318 110.449 11.2514 110.713 11.4815C110.981 11.7116 111.31 11.8267 111.697 11.8267Z" fill="white"/>
</svg>
