<svg width="1052" height="400" viewBox="0 0 1052 400" fill="none" xmlns="http://www.w3.org/2000/svg">
    <path
        d="M95.1135 151.821V175.094H91.5908V155.344H91.4544L85.8862 158.98V155.616L91.693 151.821H95.1135ZM109.511 175.48C107.716 175.473 106.182 174.999 104.909 174.06C103.636 173.12 102.663 171.753 101.988 169.957C101.314 168.162 100.977 165.999 100.977 163.469C100.977 160.946 101.314 158.791 101.988 157.003C102.67 155.215 103.648 153.851 104.92 152.912C106.201 151.973 107.731 151.503 109.511 151.503C111.292 151.503 112.818 151.976 114.091 152.923C115.363 153.863 116.337 155.226 117.011 157.014C117.693 158.795 118.034 160.946 118.034 163.469C118.034 166.007 117.697 168.173 117.023 169.969C116.348 171.757 115.375 173.124 114.102 174.071C112.829 175.01 111.299 175.48 109.511 175.48ZM109.511 172.446C111.087 172.446 112.318 171.677 113.204 170.139C114.098 168.601 114.545 166.378 114.545 163.469C114.545 161.537 114.341 159.904 113.932 158.571C113.53 157.23 112.951 156.215 112.193 155.526C111.443 154.829 110.549 154.48 109.511 154.48C107.943 154.48 106.712 155.253 105.818 156.798C104.924 158.344 104.473 160.567 104.466 163.469C104.466 165.408 104.667 167.048 105.068 168.389C105.477 169.723 106.057 170.734 106.807 171.423C107.557 172.105 108.458 172.446 109.511 172.446ZM130.167 175.48C128.372 175.473 126.838 174.999 125.565 174.06C124.292 173.12 123.319 171.753 122.645 169.957C121.971 168.162 121.633 165.999 121.633 163.469C121.633 160.946 121.971 158.791 122.645 157.003C123.327 155.215 124.304 153.851 125.577 152.912C126.857 151.973 128.387 151.503 130.167 151.503C131.948 151.503 133.474 151.976 134.747 152.923C136.02 153.863 136.993 155.226 137.667 157.014C138.349 158.795 138.69 160.946 138.69 163.469C138.69 166.007 138.353 168.173 137.679 169.969C137.005 171.757 136.031 173.124 134.758 174.071C133.486 175.01 131.955 175.48 130.167 175.48ZM130.167 172.446C131.743 172.446 132.974 171.677 133.861 170.139C134.755 168.601 135.202 166.378 135.202 163.469C135.202 161.537 134.997 159.904 134.588 158.571C134.186 157.23 133.607 156.215 132.849 155.526C132.099 154.829 131.205 154.48 130.167 154.48C128.599 154.48 127.368 155.253 126.474 156.798C125.58 158.344 125.13 160.567 125.122 163.469C125.122 165.408 125.323 167.048 125.724 168.389C126.133 169.723 126.713 170.734 127.463 171.423C128.213 172.105 129.114 172.446 130.167 172.446ZM143.04 175.094V151.821H146.551V162.935H146.835L156.596 151.821H161.017L151.631 162.298L161.051 175.094H156.824L149.301 164.696L146.551 167.855V175.094H143.04ZM168.077 171.185V155.821H171.133V171.185H168.077ZM161.929 165.026V161.98H177.292V165.026H161.929Z"
        fill="white" />
    <path
        d="M58.773 218.095C57.8526 218.095 57.06 217.878 56.3952 217.443C55.7304 217.009 55.2191 216.41 54.8611 215.647C54.5031 214.884 54.3242 214.013 54.3242 213.033C54.3242 212.036 54.5074 211.156 54.8739 210.393C55.2446 209.626 55.7602 209.027 56.4208 208.597C57.0855 208.162 57.8611 207.945 58.7475 207.945C59.4378 207.945 60.06 208.072 60.6139 208.328C61.1679 208.584 61.6217 208.942 61.9754 209.402C62.3291 209.862 62.5486 210.399 62.6338 211.013H61.1253C61.0102 210.565 60.7546 210.169 60.3583 209.824C59.9662 209.474 59.4378 209.3 58.773 209.3C58.185 209.3 57.6693 209.453 57.2262 209.76C56.7872 210.062 56.4442 210.491 56.197 211.045C55.9541 211.594 55.8327 212.24 55.8327 212.982C55.8327 213.74 55.952 214.401 56.1906 214.963C56.4335 215.526 56.7744 215.962 57.2134 216.273C57.6566 216.585 58.1764 216.74 58.773 216.74C59.1651 216.74 59.5209 216.672 59.8405 216.536C60.1601 216.399 60.4307 216.203 60.6523 215.947C60.8739 215.692 61.0316 215.385 61.1253 215.027H62.6338C62.5486 215.607 62.3377 216.129 62.001 216.593C61.6686 217.053 61.2276 217.42 60.6779 217.692C60.1324 217.961 59.4975 218.095 58.773 218.095ZM71.0266 213.876V208.072H72.5351V217.891H71.0266V216.229H70.9243C70.6942 216.727 70.3362 217.151 69.8504 217.501C69.3646 217.846 68.751 218.018 68.0095 218.018C67.3959 218.018 66.8504 217.884 66.3732 217.616C65.8959 217.343 65.5209 216.934 65.2482 216.388C64.9754 215.839 64.8391 215.146 64.8391 214.311V208.072H66.3476V214.209C66.3476 214.925 66.5479 215.496 66.9485 215.922C67.3533 216.348 67.8689 216.561 68.4953 216.561C68.8703 216.561 69.2517 216.465 69.6395 216.273C70.0316 216.082 70.3597 215.788 70.6239 215.391C70.8923 214.995 71.0266 214.49 71.0266 213.876ZM75.2981 217.891V208.072H76.7554V209.607H76.8833C77.0878 209.082 77.4181 208.675 77.8741 208.386C78.33 208.092 78.8776 207.945 79.5168 207.945C80.1645 207.945 80.7036 208.092 81.134 208.386C81.5687 208.675 81.9074 209.082 82.1503 209.607H82.2526C82.504 209.099 82.8812 208.697 83.384 208.398C83.8868 208.096 84.4898 207.945 85.193 207.945C86.0708 207.945 86.7888 208.219 87.3471 208.769C87.9053 209.315 88.1844 210.165 88.1844 211.32V217.891H86.6759V211.32C86.6759 210.595 86.4778 210.077 86.0814 209.766C85.6851 209.455 85.2185 209.3 84.6816 209.3C83.9912 209.3 83.4564 209.509 83.0772 209.926C82.6979 210.339 82.5083 210.864 82.5083 211.499V217.891H80.9742V211.166C80.9742 210.608 80.7931 210.158 80.4309 209.817C80.0687 209.472 79.602 209.3 79.031 209.3C78.639 209.3 78.2725 209.404 77.9316 209.613C77.5949 209.822 77.3222 210.112 77.1134 210.482C76.9089 210.849 76.8066 211.273 76.8066 211.754V217.891H75.2981ZM97.1301 213.876V208.072H98.6386V217.891H97.1301V216.229H97.0278C96.7977 216.727 96.4398 217.151 95.954 217.501C95.4682 217.846 94.8545 218.018 94.113 218.018C93.4994 218.018 92.954 217.884 92.4767 217.616C91.9994 217.343 91.6244 216.934 91.3517 216.388C91.079 215.839 90.9426 215.146 90.9426 214.311V208.072H92.4511V214.209C92.4511 214.925 92.6514 215.496 93.052 215.922C93.4568 216.348 93.9724 216.561 94.5988 216.561C94.9738 216.561 95.3552 216.465 95.743 216.273C96.1351 216.082 96.4632 215.788 96.7274 215.391C96.9959 214.995 97.1301 214.49 97.1301 213.876ZM102.91 204.8V217.891H101.402V204.8H102.91ZM108.562 218.121C107.94 218.121 107.375 218.004 106.868 217.769C106.361 217.531 105.959 217.188 105.66 216.74C105.362 216.288 105.213 215.743 105.213 215.104C105.213 214.541 105.324 214.085 105.545 213.736C105.767 213.382 106.063 213.105 106.434 212.905C106.804 212.705 107.214 212.555 107.661 212.457C108.113 212.355 108.567 212.274 109.022 212.214C109.619 212.138 110.103 212.08 110.473 212.042C110.848 211.999 111.121 211.929 111.292 211.831C111.466 211.733 111.554 211.562 111.554 211.32V211.268C111.554 210.638 111.381 210.148 111.036 209.798C110.695 209.449 110.177 209.274 109.483 209.274C108.763 209.274 108.198 209.432 107.789 209.747C107.38 210.062 107.092 210.399 106.926 210.757L105.494 210.246C105.75 209.649 106.091 209.185 106.517 208.852C106.947 208.516 107.416 208.281 107.923 208.149C108.434 208.013 108.937 207.945 109.432 207.945C109.747 207.945 110.109 207.983 110.518 208.06C110.932 208.132 111.33 208.283 111.714 208.513C112.101 208.744 112.423 209.091 112.679 209.555C112.934 210.02 113.062 210.642 113.062 211.422V217.891H111.554V216.561H111.477C111.375 216.774 111.204 217.002 110.966 217.245C110.727 217.488 110.41 217.695 110.013 217.865C109.617 218.036 109.133 218.121 108.562 218.121ZM108.792 216.766C109.389 216.766 109.892 216.648 110.301 216.414C110.714 216.18 111.025 215.877 111.234 215.506C111.447 215.136 111.554 214.746 111.554 214.337V212.956C111.49 213.033 111.349 213.103 111.132 213.167C110.919 213.227 110.672 213.28 110.39 213.327C110.113 213.369 109.843 213.408 109.579 213.442C109.319 213.472 109.108 213.497 108.946 213.518C108.554 213.57 108.187 213.653 107.846 213.768C107.51 213.879 107.237 214.047 107.028 214.273C106.824 214.494 106.721 214.797 106.721 215.18C106.721 215.705 106.915 216.101 107.303 216.369C107.695 216.634 108.192 216.766 108.792 216.766ZM120.086 208.072V209.351H114.997V208.072H120.086ZM116.48 205.72H117.989V215.078C117.989 215.504 118.051 215.824 118.174 216.037C118.302 216.246 118.464 216.386 118.66 216.459C118.86 216.527 119.071 216.561 119.293 216.561C119.459 216.561 119.595 216.553 119.702 216.536C119.809 216.514 119.894 216.497 119.958 216.484L120.265 217.839C120.162 217.878 120.019 217.916 119.836 217.955C119.653 217.997 119.421 218.018 119.14 218.018C118.713 218.018 118.296 217.927 117.887 217.744C117.482 217.56 117.145 217.281 116.877 216.906C116.613 216.531 116.48 216.058 116.48 215.487V205.72ZM122.355 217.891V208.072H123.863V217.891H122.355ZM123.122 206.436C122.828 206.436 122.574 206.336 122.361 206.136C122.152 205.935 122.048 205.695 122.048 205.413C122.048 205.132 122.152 204.891 122.361 204.691C122.574 204.491 122.828 204.391 123.122 204.391C123.416 204.391 123.667 204.491 123.876 204.691C124.089 204.891 124.196 205.132 124.196 205.413C124.196 205.695 124.089 205.935 123.876 206.136C123.667 206.336 123.416 206.436 123.122 206.436ZM134.655 208.072L131.024 217.891H129.49L125.859 208.072H127.496L130.206 215.896H130.308L133.018 208.072H134.655ZM140.411 218.095C139.465 218.095 138.649 217.886 137.962 217.469C137.281 217.047 136.754 216.459 136.384 215.705C136.017 214.946 135.834 214.064 135.834 213.058C135.834 212.053 136.017 211.166 136.384 210.399C136.754 209.628 137.27 209.027 137.931 208.597C138.595 208.162 139.371 207.945 140.257 207.945C140.769 207.945 141.274 208.03 141.772 208.2C142.271 208.371 142.725 208.648 143.134 209.031C143.543 209.411 143.869 209.913 144.112 210.54C144.355 211.166 144.476 211.937 144.476 212.854V213.493H136.908V212.189H142.942C142.942 211.635 142.831 211.141 142.609 210.706C142.392 210.271 142.081 209.928 141.676 209.677C141.276 209.425 140.803 209.3 140.257 209.3C139.656 209.3 139.136 209.449 138.698 209.747C138.263 210.041 137.928 210.425 137.694 210.898C137.46 211.371 137.342 211.878 137.342 212.419V213.288C137.342 214.03 137.47 214.658 137.726 215.174C137.986 215.685 138.346 216.075 138.806 216.344C139.266 216.608 139.801 216.74 140.411 216.74C140.807 216.74 141.165 216.685 141.484 216.574C141.808 216.459 142.087 216.288 142.322 216.062C142.556 215.832 142.737 215.547 142.865 215.206L144.323 215.615C144.169 216.109 143.911 216.544 143.549 216.919C143.187 217.29 142.739 217.58 142.207 217.788C141.674 217.993 141.075 218.095 140.411 218.095ZM156.103 208.072V209.351H151.015V208.072H156.103ZM152.498 205.72H154.007V215.078C154.007 215.504 154.068 215.824 154.192 216.037C154.32 216.246 154.482 216.386 154.678 216.459C154.878 216.527 155.089 216.561 155.31 216.561C155.477 216.561 155.613 216.553 155.72 216.536C155.826 216.514 155.911 216.497 155.975 216.484L156.282 217.839C156.18 217.878 156.037 217.916 155.854 217.955C155.671 217.997 155.438 218.018 155.157 218.018C154.731 218.018 154.313 217.927 153.904 217.744C153.499 217.56 153.163 217.281 152.894 216.906C152.63 216.531 152.498 216.058 152.498 215.487V205.72ZM158.372 217.891V208.072H159.83V209.555H159.932C160.111 209.07 160.435 208.675 160.904 208.373C161.372 208.07 161.901 207.919 162.489 207.919C162.6 207.919 162.738 207.921 162.904 207.925C163.07 207.93 163.196 207.936 163.281 207.945V209.479C163.23 209.466 163.113 209.447 162.93 209.421C162.751 209.391 162.561 209.376 162.361 209.376C161.884 209.376 161.458 209.477 161.083 209.677C160.712 209.873 160.418 210.146 160.2 210.495C159.987 210.84 159.881 211.234 159.881 211.678V217.891H158.372ZM167.959 218.121C167.337 218.121 166.772 218.004 166.265 217.769C165.758 217.531 165.355 217.188 165.057 216.74C164.758 216.288 164.609 215.743 164.609 215.104C164.609 214.541 164.72 214.085 164.942 213.736C165.163 213.382 165.459 213.105 165.83 212.905C166.201 212.705 166.61 212.555 167.057 212.457C167.509 212.355 167.963 212.274 168.419 212.214C169.016 212.138 169.499 212.08 169.87 212.042C170.245 211.999 170.518 211.929 170.688 211.831C170.863 211.733 170.95 211.562 170.95 211.32V211.268C170.95 210.638 170.778 210.148 170.432 209.798C170.092 209.449 169.574 209.274 168.879 209.274C168.159 209.274 167.594 209.432 167.185 209.747C166.776 210.062 166.489 210.399 166.322 210.757L164.891 210.246C165.146 209.649 165.487 209.185 165.913 208.852C166.344 208.516 166.812 208.281 167.32 208.149C167.831 208.013 168.334 207.945 168.828 207.945C169.143 207.945 169.506 207.983 169.915 208.06C170.328 208.132 170.727 208.283 171.11 208.513C171.498 208.744 171.82 209.091 172.075 209.555C172.331 210.02 172.459 210.642 172.459 211.422V217.891H170.95V216.561H170.874C170.771 216.774 170.601 217.002 170.362 217.245C170.124 217.488 169.806 217.695 169.41 217.865C169.013 218.036 168.53 218.121 167.959 218.121ZM168.189 216.766C168.785 216.766 169.288 216.648 169.697 216.414C170.111 216.18 170.422 215.877 170.631 215.506C170.844 215.136 170.95 214.746 170.95 214.337V212.956C170.886 213.033 170.746 213.103 170.528 213.167C170.315 213.227 170.068 213.28 169.787 213.327C169.51 213.369 169.239 213.408 168.975 213.442C168.715 213.472 168.504 213.497 168.342 213.518C167.95 213.57 167.584 213.653 167.243 213.768C166.906 213.879 166.633 214.047 166.425 214.273C166.22 214.494 166.118 214.797 166.118 215.18C166.118 215.705 166.312 216.101 166.7 216.369C167.092 216.634 167.588 216.766 168.189 216.766ZM178.92 218.095C178.101 218.095 177.379 217.888 176.753 217.475C176.126 217.058 175.636 216.469 175.282 215.711C174.929 214.948 174.752 214.047 174.752 213.007C174.752 211.976 174.929 211.081 175.282 210.322C175.636 209.564 176.128 208.978 176.759 208.565C177.39 208.151 178.118 207.945 178.945 207.945C179.584 207.945 180.089 208.051 180.46 208.264C180.835 208.473 181.121 208.712 181.317 208.98C181.517 209.244 181.672 209.462 181.783 209.632H181.911V204.8H183.42V217.891H181.962V216.382H181.783C181.672 216.561 181.515 216.787 181.31 217.06C181.106 217.328 180.814 217.569 180.434 217.782C180.055 217.991 179.55 218.095 178.92 218.095ZM179.124 216.74C179.729 216.74 180.241 216.582 180.658 216.267C181.076 215.947 181.393 215.506 181.611 214.944C181.828 214.377 181.937 213.723 181.937 212.982C181.937 212.249 181.83 211.607 181.617 211.058C181.404 210.504 181.089 210.073 180.671 209.766C180.253 209.455 179.738 209.3 179.124 209.3C178.485 209.3 177.952 209.464 177.526 209.792C177.104 210.116 176.787 210.557 176.574 211.115C176.365 211.669 176.26 212.291 176.26 212.982C176.26 213.68 176.367 214.315 176.58 214.886C176.797 215.453 177.117 215.905 177.539 216.241C177.965 216.574 178.493 216.74 179.124 216.74ZM186.392 217.891V208.072H187.9V217.891H186.392ZM187.159 206.436C186.865 206.436 186.611 206.336 186.398 206.136C186.189 205.935 186.085 205.695 186.085 205.413C186.085 205.132 186.189 204.891 186.398 204.691C186.611 204.491 186.865 204.391 187.159 204.391C187.453 204.391 187.704 204.491 187.913 204.691C188.126 204.891 188.233 205.132 188.233 205.413C188.233 205.695 188.126 205.935 187.913 206.136C187.704 206.336 187.453 206.436 187.159 206.436ZM192.172 211.984V217.891H190.663V208.072H192.121V209.607H192.249C192.479 209.108 192.828 208.707 193.297 208.405C193.766 208.098 194.371 207.945 195.112 207.945C195.777 207.945 196.359 208.081 196.857 208.354C197.356 208.622 197.744 209.031 198.021 209.581C198.298 210.126 198.436 210.817 198.436 211.652V217.891H196.928V211.754C196.928 210.983 196.727 210.382 196.327 209.952C195.926 209.517 195.376 209.3 194.678 209.3C194.196 209.3 193.766 209.404 193.386 209.613C193.011 209.822 192.715 210.126 192.498 210.527C192.28 210.928 192.172 211.413 192.172 211.984ZM205.156 221.777C204.427 221.777 203.801 221.683 203.276 221.496C202.752 221.312 202.315 221.07 201.966 220.767C201.621 220.469 201.346 220.149 201.141 219.808L202.343 218.964C202.48 219.143 202.652 219.348 202.861 219.578C203.07 219.812 203.355 220.015 203.717 220.185C204.084 220.36 204.563 220.447 205.156 220.447C205.948 220.447 206.602 220.256 207.118 219.872C207.634 219.489 207.891 218.888 207.891 218.07V216.075H207.764C207.653 216.254 207.495 216.476 207.291 216.74C207.09 217 206.801 217.232 206.421 217.437C206.046 217.637 205.539 217.737 204.9 217.737C204.107 217.737 203.396 217.55 202.765 217.175C202.139 216.8 201.642 216.254 201.276 215.538C200.913 214.822 200.732 213.953 200.732 212.93C200.732 211.925 200.909 211.049 201.263 210.303C201.617 209.553 202.109 208.974 202.739 208.565C203.37 208.151 204.099 207.945 204.926 207.945C205.565 207.945 206.072 208.051 206.447 208.264C206.826 208.473 207.116 208.712 207.316 208.98C207.521 209.244 207.678 209.462 207.789 209.632H207.943V208.072H209.4V218.172C209.4 219.016 209.208 219.702 208.825 220.23C208.445 220.763 207.934 221.153 207.291 221.4C206.651 221.651 205.94 221.777 205.156 221.777ZM205.105 216.382C205.71 216.382 206.221 216.244 206.639 215.967C207.056 215.69 207.374 215.291 207.591 214.771C207.808 214.251 207.917 213.629 207.917 212.905C207.917 212.197 207.81 211.573 207.597 211.032C207.384 210.491 207.069 210.067 206.651 209.76C206.234 209.453 205.718 209.3 205.105 209.3C204.465 209.3 203.933 209.462 203.507 209.786C203.085 210.109 202.767 210.544 202.554 211.089C202.345 211.635 202.241 212.24 202.241 212.905C202.241 213.587 202.347 214.19 202.56 214.714C202.778 215.234 203.097 215.643 203.519 215.941C203.945 216.235 204.474 216.382 205.105 216.382ZM80.637 238.072L77.0063 247.891H75.4722L71.8416 238.072H73.4779L76.1882 245.896H76.2904L79.0007 238.072H80.637ZM86.2652 248.095C85.3789 248.095 84.6012 247.884 83.9321 247.462C83.2673 247.04 82.7475 246.45 82.3725 245.692C82.0017 244.933 81.8164 244.047 81.8164 243.033C81.8164 242.01 82.0017 241.117 82.3725 240.354C82.7475 239.592 83.2673 238.999 83.9321 238.577C84.6012 238.156 85.3789 237.945 86.2652 237.945C87.1516 237.945 87.9271 238.156 88.5919 238.577C89.261 238.999 89.7808 239.592 90.1516 240.354C90.5266 241.117 90.7141 242.01 90.7141 243.033C90.7141 244.047 90.5266 244.933 90.1516 245.692C89.7808 246.45 89.261 247.04 88.5919 247.462C87.9271 247.884 87.1516 248.095 86.2652 248.095ZM86.2652 246.74C86.9385 246.74 87.4925 246.567 87.9271 246.222C88.3618 245.877 88.6835 245.423 88.8923 244.861C89.1012 244.298 89.2056 243.689 89.2056 243.033C89.2056 242.376 89.1012 241.765 88.8923 241.198C88.6835 240.631 88.3618 240.173 87.9271 239.824C87.4925 239.474 86.9385 239.3 86.2652 239.3C85.5919 239.3 85.0379 239.474 84.6033 239.824C84.1686 240.173 83.8469 240.631 83.6381 241.198C83.4293 241.765 83.3249 242.376 83.3249 243.033C83.3249 243.689 83.4293 244.298 83.6381 244.861C83.8469 245.423 84.1686 245.877 84.6033 246.222C85.0379 246.567 85.5919 246.74 86.2652 246.74ZM94.5253 234.8V247.891H93.0168V234.8H94.5253ZM103.476 243.876V238.072H104.984V247.891H103.476V246.229H103.374C103.143 246.727 102.785 247.151 102.3 247.501C101.814 247.846 101.2 248.018 100.459 248.018C99.8451 248.018 99.2997 247.884 98.8224 247.616C98.3451 247.343 97.9701 246.934 97.6974 246.388C97.4247 245.839 97.2883 245.146 97.2883 244.311V238.072H98.7968V244.209C98.7968 244.925 98.9971 245.496 99.3977 245.922C99.8025 246.348 100.318 246.561 100.945 246.561C101.32 246.561 101.701 246.465 102.089 246.273C102.481 246.082 102.809 245.788 103.073 245.391C103.342 244.995 103.476 244.49 103.476 243.876ZM107.747 247.891V238.072H109.205V239.607H109.333C109.537 239.082 109.867 238.675 110.323 238.386C110.779 238.092 111.327 237.945 111.966 237.945C112.614 237.945 113.153 238.092 113.583 238.386C114.018 238.675 114.357 239.082 114.6 239.607H114.702C114.953 239.099 115.33 238.697 115.833 238.398C116.336 238.096 116.939 237.945 117.642 237.945C118.52 237.945 119.238 238.219 119.796 238.769C120.355 239.315 120.634 240.165 120.634 241.32V247.891H119.125V241.32C119.125 240.595 118.927 240.077 118.531 239.766C118.134 239.455 117.668 239.3 117.131 239.3C116.44 239.3 115.906 239.509 115.526 239.926C115.147 240.339 114.958 240.864 114.958 241.499V247.891H113.423V241.166C113.423 240.608 113.242 240.158 112.88 239.817C112.518 239.472 112.051 239.3 111.48 239.3C111.088 239.3 110.722 239.404 110.381 239.613C110.044 239.822 109.771 240.112 109.563 240.482C109.358 240.849 109.256 241.273 109.256 241.754V247.891H107.747ZM127.508 248.095C126.562 248.095 125.746 247.886 125.06 247.469C124.378 247.047 123.852 246.459 123.481 245.705C123.115 244.946 122.932 244.064 122.932 243.058C122.932 242.053 123.115 241.166 123.481 240.399C123.852 239.628 124.368 239.027 125.028 238.597C125.693 238.162 126.469 237.945 127.355 237.945C127.866 237.945 128.371 238.03 128.87 238.2C129.368 238.371 129.822 238.648 130.231 239.031C130.64 239.411 130.966 239.913 131.209 240.54C131.452 241.166 131.574 241.937 131.574 242.854V243.493H124.005V242.189H130.04C130.04 241.635 129.929 241.141 129.707 240.706C129.49 240.271 129.179 239.928 128.774 239.677C128.373 239.425 127.9 239.3 127.355 239.3C126.754 239.3 126.234 239.449 125.795 239.747C125.361 240.041 125.026 240.425 124.792 240.898C124.557 241.371 124.44 241.878 124.44 242.419V243.288C124.44 244.03 124.568 244.658 124.824 245.174C125.084 245.685 125.444 246.075 125.904 246.344C126.364 246.608 126.899 246.74 127.508 246.74C127.905 246.74 128.263 246.685 128.582 246.574C128.906 246.459 129.185 246.288 129.42 246.062C129.654 245.832 129.835 245.547 129.963 245.206L131.42 245.615C131.267 246.109 131.009 246.544 130.647 246.919C130.285 247.29 129.837 247.58 129.304 247.788C128.772 247.993 128.173 248.095 127.508 248.095ZM143.201 238.072V239.351H138.113V238.072H143.201ZM139.596 235.72H141.104V245.078C141.104 245.504 141.166 245.824 141.29 246.037C141.417 246.246 141.579 246.386 141.775 246.459C141.976 246.527 142.187 246.561 142.408 246.561C142.574 246.561 142.711 246.553 142.817 246.536C142.924 246.514 143.009 246.497 143.073 246.484L143.38 247.839C143.277 247.878 143.135 247.916 142.951 247.955C142.768 247.997 142.536 248.018 142.255 248.018C141.829 248.018 141.411 247.927 141.002 247.744C140.597 247.56 140.26 247.281 139.992 246.906C139.728 246.531 139.596 246.058 139.596 245.487V235.72ZM149.353 248.095C148.467 248.095 147.689 247.884 147.02 247.462C146.355 247.04 145.835 246.45 145.46 245.692C145.09 244.933 144.904 244.047 144.904 243.033C144.904 242.01 145.09 241.117 145.46 240.354C145.835 239.592 146.355 238.999 147.02 238.577C147.689 238.156 148.467 237.945 149.353 237.945C150.239 237.945 151.015 238.156 151.68 238.577C152.349 238.999 152.869 239.592 153.239 240.354C153.614 241.117 153.802 242.01 153.802 243.033C153.802 244.047 153.614 244.933 153.239 245.692C152.869 246.45 152.349 247.04 151.68 247.462C151.015 247.884 150.239 248.095 149.353 248.095ZM149.353 246.74C150.026 246.74 150.58 246.567 151.015 246.222C151.45 245.877 151.771 245.423 151.98 244.861C152.189 244.298 152.293 243.689 152.293 243.033C152.293 242.376 152.189 241.765 151.98 241.198C151.771 240.631 151.45 240.173 151.015 239.824C150.58 239.474 150.026 239.3 149.353 239.3C148.68 239.3 148.126 239.474 147.691 239.824C147.257 240.173 146.935 240.631 146.726 241.198C146.517 241.765 146.413 242.376 146.413 243.033C146.413 243.689 146.517 244.298 146.726 244.861C146.935 245.423 147.257 245.877 147.691 246.222C148.126 246.567 148.68 246.74 149.353 246.74ZM164.875 248.095C164.056 248.095 163.334 247.888 162.708 247.475C162.081 247.058 161.591 246.469 161.238 245.711C160.884 244.948 160.707 244.047 160.707 243.007C160.707 241.976 160.884 241.081 161.238 240.322C161.591 239.564 162.083 238.978 162.714 238.565C163.345 238.151 164.073 237.945 164.9 237.945C165.539 237.945 166.044 238.051 166.415 238.264C166.79 238.473 167.076 238.712 167.272 238.98C167.472 239.244 167.627 239.462 167.738 239.632H167.866V234.8H169.375V247.891H167.917V246.382H167.738C167.627 246.561 167.47 246.787 167.265 247.06C167.061 247.328 166.769 247.569 166.39 247.782C166.01 247.991 165.505 248.095 164.875 248.095ZM165.079 246.74C165.684 246.74 166.196 246.582 166.613 246.267C167.031 245.947 167.348 245.506 167.566 244.944C167.783 244.377 167.892 243.723 167.892 242.982C167.892 242.249 167.785 241.607 167.572 241.058C167.359 240.504 167.044 240.073 166.626 239.766C166.208 239.455 165.693 239.3 165.079 239.3C164.44 239.3 163.907 239.464 163.481 239.792C163.059 240.116 162.742 240.557 162.529 241.115C162.32 241.669 162.215 242.291 162.215 242.982C162.215 243.68 162.322 244.315 162.535 244.886C162.752 245.453 163.072 245.905 163.494 246.241C163.92 246.574 164.448 246.74 165.079 246.74ZM175.236 248.121C174.614 248.121 174.049 248.004 173.542 247.769C173.035 247.531 172.632 247.188 172.334 246.74C172.036 246.288 171.887 245.743 171.887 245.104C171.887 244.541 171.997 244.085 172.219 243.736C172.441 243.382 172.737 243.105 173.108 242.905C173.478 242.705 173.887 242.555 174.335 242.457C174.787 242.355 175.24 242.274 175.696 242.214C176.293 242.138 176.777 242.08 177.147 242.042C177.522 241.999 177.795 241.929 177.965 241.831C178.14 241.733 178.228 241.562 178.228 241.32V241.268C178.228 240.638 178.055 240.148 177.71 239.798C177.369 239.449 176.851 239.274 176.157 239.274C175.436 239.274 174.872 239.432 174.463 239.747C174.054 240.062 173.766 240.399 173.6 240.757L172.168 240.246C172.424 239.649 172.765 239.185 173.191 238.852C173.621 238.516 174.09 238.281 174.597 238.149C175.108 238.013 175.611 237.945 176.105 237.945C176.421 237.945 176.783 237.983 177.192 238.06C177.605 238.132 178.004 238.283 178.387 238.513C178.775 238.744 179.097 239.091 179.353 239.555C179.608 240.02 179.736 240.642 179.736 241.422V247.891H178.228V246.561H178.151C178.049 246.774 177.878 247.002 177.64 247.245C177.401 247.488 177.083 247.695 176.687 247.865C176.291 248.036 175.807 248.121 175.236 248.121ZM175.466 246.766C176.063 246.766 176.566 246.648 176.975 246.414C177.388 246.18 177.699 245.877 177.908 245.506C178.121 245.136 178.228 244.746 178.228 244.337V242.956C178.164 243.033 178.023 243.103 177.806 243.167C177.593 243.227 177.345 243.28 177.064 243.327C176.787 243.369 176.517 243.408 176.252 243.442C175.992 243.472 175.782 243.497 175.62 243.518C175.228 243.57 174.861 243.653 174.52 243.768C174.184 243.879 173.911 244.047 173.702 244.273C173.497 244.494 173.395 244.797 173.395 245.18C173.395 245.705 173.589 246.101 173.977 246.369C174.369 246.634 174.865 246.766 175.466 246.766ZM186.759 238.072V239.351H181.671V238.072H186.759ZM183.154 235.72H184.663V245.078C184.663 245.504 184.725 245.824 184.848 246.037C184.976 246.246 185.138 246.386 185.334 246.459C185.534 246.527 185.745 246.561 185.967 246.561C186.133 246.561 186.269 246.553 186.376 246.536C186.482 246.514 186.568 246.497 186.632 246.484L186.938 247.839C186.836 247.878 186.693 247.916 186.51 247.955C186.327 247.997 186.095 248.018 185.813 248.018C185.387 248.018 184.97 247.927 184.56 247.744C184.156 247.56 183.819 247.281 183.551 246.906C183.286 246.531 183.154 246.058 183.154 245.487V235.72ZM193.04 248.095C192.094 248.095 191.277 247.886 190.591 247.469C189.91 247.047 189.383 246.459 189.013 245.705C188.646 244.946 188.463 244.064 188.463 243.058C188.463 242.053 188.646 241.166 189.013 240.399C189.383 239.628 189.899 239.027 190.559 238.597C191.224 238.162 192 237.945 192.886 237.945C193.398 237.945 193.902 238.03 194.401 238.2C194.9 238.371 195.353 238.648 195.763 239.031C196.172 239.411 196.498 239.913 196.741 240.54C196.983 241.166 197.105 241.937 197.105 242.854V243.493H189.537V242.189H195.571C195.571 241.635 195.46 241.141 195.238 240.706C195.021 240.271 194.71 239.928 194.305 239.677C193.905 239.425 193.432 239.3 192.886 239.3C192.285 239.3 191.765 239.449 191.326 239.747C190.892 240.041 190.557 240.425 190.323 240.898C190.089 241.371 189.971 241.878 189.971 242.419V243.288C189.971 244.03 190.099 244.658 190.355 245.174C190.615 245.685 190.975 246.075 191.435 246.344C191.895 246.608 192.43 246.74 193.04 246.74C193.436 246.74 193.794 246.685 194.113 246.574C194.437 246.459 194.716 246.288 194.951 246.062C195.185 245.832 195.366 245.547 195.494 245.206L196.951 245.615C196.798 246.109 196.54 246.544 196.178 246.919C195.816 247.29 195.368 247.58 194.836 247.788C194.303 247.993 193.704 248.095 193.04 248.095Z"
        fill="#E5E5E5" />
    <path
        d="M876.104 178V174.977L885.455 165.288C886.454 164.236 887.277 163.314 887.925 162.522C888.581 161.721 889.072 160.961 889.396 160.241C889.719 159.522 889.881 158.757 889.881 157.947C889.881 157.03 889.665 156.238 889.234 155.572C888.802 154.898 888.213 154.38 887.466 154.021C886.719 153.652 885.878 153.467 884.942 153.467C883.953 153.467 883.089 153.67 882.352 154.075C881.614 154.479 881.047 155.051 880.651 155.788C880.255 156.526 880.058 157.39 880.058 158.379H876.077C876.077 156.697 876.464 155.226 877.237 153.967C878.011 152.707 879.072 151.731 880.422 151.038C881.771 150.337 883.305 149.986 885.023 149.986C886.76 149.986 888.289 150.332 889.612 151.025C890.943 151.709 891.982 152.644 892.729 153.832C893.475 155.01 893.849 156.342 893.849 157.826C893.849 158.852 893.655 159.855 893.268 160.835C892.891 161.816 892.229 162.909 891.285 164.114C890.34 165.311 889.027 166.764 887.344 168.473L881.852 174.222V174.424H894.294V178H876.104ZM908.531 178.378C906.839 178.378 905.319 178.054 903.969 177.406C902.629 176.75 901.558 175.85 900.758 174.707C899.957 173.565 899.53 172.26 899.476 170.794H903.524C903.623 171.982 904.149 172.958 905.103 173.722C906.057 174.487 907.199 174.869 908.531 174.869C909.592 174.869 910.532 174.626 911.351 174.141C912.179 173.646 912.826 172.967 913.294 172.103C913.771 171.239 914.009 170.254 914.009 169.148C914.009 168.023 913.766 167.02 913.281 166.138C912.795 165.257 912.125 164.564 911.27 164.06C910.424 163.557 909.453 163.3 908.355 163.291C907.518 163.291 906.677 163.435 905.832 163.723C904.986 164.011 904.302 164.389 903.781 164.857L899.962 164.29L901.513 150.364H916.708V153.94H904.982L904.104 161.672H904.266C904.806 161.15 905.521 160.714 906.412 160.363C907.312 160.012 908.274 159.837 909.3 159.837C910.982 159.837 912.48 160.237 913.793 161.038C915.116 161.838 916.155 162.931 916.911 164.317C917.675 165.693 918.053 167.277 918.044 169.067C918.053 170.857 917.648 172.454 916.83 173.857C916.02 175.261 914.895 176.367 913.456 177.177C912.026 177.978 910.384 178.378 908.531 178.378ZM923.351 178V150.364H927.52V163.561H927.858L939.449 150.364H944.699L933.552 162.805L944.739 178H939.719L930.786 165.653L927.52 169.404V178H923.351ZM953.082 173.358V155.114H956.712V173.358H953.082ZM945.782 166.044V162.428H964.026V166.044H945.782Z"
        fill="white" />
    <path
        d="M841.138 209.182V223H839.546V209.182H841.138ZM848.4 223.216C847.401 223.216 846.54 222.996 845.815 222.555C845.096 222.109 844.54 221.489 844.149 220.692C843.762 219.892 843.569 218.961 843.569 217.899C843.569 216.838 843.762 215.902 844.149 215.092C844.54 214.278 845.085 213.644 845.782 213.19C846.483 212.731 847.302 212.501 848.238 212.501C848.777 212.501 849.31 212.591 849.837 212.771C850.363 212.951 850.842 213.244 851.274 213.648C851.706 214.049 852.05 214.58 852.306 215.241C852.563 215.902 852.691 216.716 852.691 217.683V218.358H844.702V216.982H851.072C851.072 216.397 850.955 215.875 850.721 215.416C850.491 214.957 850.163 214.595 849.736 214.33C849.313 214.065 848.813 213.932 848.238 213.932C847.603 213.932 847.055 214.089 846.591 214.404C846.133 214.714 845.779 215.119 845.532 215.619C845.285 216.118 845.161 216.653 845.161 217.224V218.142C845.161 218.925 845.296 219.588 845.566 220.132C845.84 220.672 846.22 221.084 846.706 221.367C847.192 221.646 847.756 221.786 848.4 221.786C848.818 221.786 849.196 221.727 849.533 221.61C849.875 221.489 850.17 221.309 850.417 221.07C850.664 220.827 850.856 220.526 850.991 220.166L852.529 220.598C852.367 221.12 852.095 221.579 851.712 221.974C851.33 222.366 850.858 222.672 850.296 222.892C849.733 223.108 849.101 223.216 848.4 223.216ZM858.163 223.243C857.506 223.243 856.91 223.119 856.375 222.872C855.839 222.62 855.414 222.258 855.1 221.786C854.785 221.309 854.627 220.733 854.627 220.058C854.627 219.464 854.744 218.983 854.978 218.614C855.212 218.241 855.525 217.949 855.916 217.737C856.307 217.526 856.739 217.368 857.211 217.265C857.688 217.157 858.167 217.071 858.649 217.009C859.278 216.928 859.789 216.867 860.18 216.826C860.576 216.781 860.864 216.707 861.044 216.604C861.228 216.5 861.32 216.32 861.32 216.064V216.01C861.32 215.344 861.138 214.827 860.774 214.458C860.414 214.089 859.868 213.905 859.134 213.905C858.374 213.905 857.778 214.071 857.346 214.404C856.915 214.737 856.611 215.092 856.435 215.47L854.924 214.93C855.194 214.301 855.554 213.81 856.004 213.46C856.458 213.104 856.953 212.857 857.488 212.717C858.028 212.573 858.559 212.501 859.08 212.501C859.413 212.501 859.796 212.542 860.227 212.623C860.664 212.699 861.084 212.859 861.489 213.102C861.898 213.345 862.238 213.711 862.508 214.202C862.778 214.692 862.913 215.349 862.913 216.172V223H861.32V221.597H861.239C861.132 221.821 860.952 222.062 860.7 222.319C860.448 222.575 860.113 222.793 859.694 222.973C859.276 223.153 858.766 223.243 858.163 223.243ZM858.406 221.812C859.035 221.812 859.566 221.689 859.998 221.441C860.434 221.194 860.763 220.875 860.983 220.483C861.208 220.092 861.32 219.68 861.32 219.249V217.791C861.253 217.872 861.105 217.946 860.875 218.014C860.65 218.077 860.389 218.133 860.092 218.183C859.8 218.228 859.514 218.268 859.236 218.304C858.961 218.335 858.739 218.362 858.568 218.385C858.154 218.439 857.767 218.527 857.407 218.648C857.052 218.765 856.764 218.943 856.543 219.181C856.328 219.415 856.22 219.734 856.22 220.139C856.22 220.692 856.424 221.111 856.834 221.394C857.247 221.673 857.771 221.812 858.406 221.812ZM869.732 223.216C868.869 223.216 868.106 222.998 867.445 222.561C866.784 222.121 866.267 221.5 865.893 220.699C865.52 219.894 865.333 218.943 865.333 217.845C865.333 216.757 865.52 215.812 865.893 215.011C866.267 214.211 866.786 213.592 867.452 213.156C868.118 212.72 868.887 212.501 869.759 212.501C870.434 212.501 870.967 212.614 871.359 212.839C871.754 213.059 872.056 213.311 872.263 213.594C872.474 213.873 872.638 214.103 872.755 214.283H872.89V209.182H874.482V223H872.944V221.408H872.755C872.638 221.597 872.472 221.835 872.256 222.123C872.04 222.406 871.732 222.66 871.332 222.885C870.931 223.106 870.398 223.216 869.732 223.216ZM869.948 221.786C870.587 221.786 871.127 221.619 871.568 221.286C872.008 220.949 872.344 220.483 872.573 219.89C872.802 219.291 872.917 218.601 872.917 217.818C872.917 217.045 872.805 216.368 872.58 215.787C872.355 215.203 872.022 214.748 871.581 214.424C871.14 214.096 870.596 213.932 869.948 213.932C869.274 213.932 868.711 214.105 868.262 214.451C867.816 214.793 867.481 215.259 867.256 215.848C867.036 216.433 866.926 217.089 866.926 217.818C866.926 218.556 867.038 219.226 867.263 219.829C867.492 220.427 867.83 220.904 868.275 221.259C868.725 221.61 869.283 221.786 869.948 221.786ZM877.62 223V212.636H879.212V223H877.62ZM878.43 210.909C878.119 210.909 877.852 210.803 877.627 210.592C877.406 210.381 877.296 210.126 877.296 209.83C877.296 209.533 877.406 209.279 877.627 209.067C877.852 208.856 878.119 208.75 878.43 208.75C878.74 208.75 879.005 208.856 879.226 209.067C879.451 209.279 879.563 209.533 879.563 209.83C879.563 210.126 879.451 210.381 879.226 210.592C879.005 210.803 878.74 210.909 878.43 210.909ZM883.721 216.766V223H882.129V212.636H883.667V214.256H883.802C884.045 213.729 884.414 213.307 884.909 212.987C885.403 212.663 886.042 212.501 886.825 212.501C887.526 212.501 888.14 212.645 888.667 212.933C889.193 213.217 889.602 213.648 889.895 214.229C890.187 214.804 890.333 215.533 890.333 216.415V223H888.741V216.523C888.741 215.709 888.529 215.074 888.107 214.62C887.684 214.161 887.104 213.932 886.366 213.932C885.858 213.932 885.403 214.042 885.003 214.262C884.607 214.483 884.295 214.804 884.065 215.227C883.836 215.65 883.721 216.163 883.721 216.766ZM897.426 227.102C896.657 227.102 895.996 227.003 895.443 226.805C894.889 226.612 894.428 226.356 894.059 226.036C893.695 225.721 893.405 225.384 893.189 225.024L894.457 224.134C894.601 224.322 894.784 224.538 895.004 224.781C895.224 225.029 895.526 225.242 895.908 225.422C896.295 225.607 896.801 225.699 897.426 225.699C898.263 225.699 898.953 225.496 899.498 225.092C900.042 224.687 900.314 224.053 900.314 223.189V221.084H900.179C900.062 221.273 899.896 221.507 899.68 221.786C899.468 222.06 899.162 222.305 898.762 222.521C898.366 222.732 897.831 222.838 897.156 222.838C896.32 222.838 895.568 222.64 894.903 222.244C894.242 221.848 893.717 221.273 893.331 220.517C892.948 219.761 892.757 218.844 892.757 217.764C892.757 216.703 892.944 215.778 893.317 214.991C893.69 214.199 894.21 213.588 894.876 213.156C895.541 212.72 896.311 212.501 897.183 212.501C897.858 212.501 898.393 212.614 898.789 212.839C899.189 213.059 899.495 213.311 899.707 213.594C899.923 213.873 900.089 214.103 900.206 214.283H900.368V212.636H901.906V223.297C901.906 224.188 901.704 224.912 901.299 225.469C900.899 226.032 900.359 226.443 899.68 226.704C899.005 226.97 898.254 227.102 897.426 227.102ZM897.372 221.408C898.011 221.408 898.551 221.261 898.992 220.969C899.432 220.677 899.767 220.256 899.997 219.707C900.226 219.159 900.341 218.502 900.341 217.737C900.341 216.991 900.228 216.332 900.004 215.76C899.779 215.189 899.446 214.741 899.005 214.418C898.564 214.094 898.02 213.932 897.372 213.932C896.697 213.932 896.135 214.103 895.685 214.445C895.24 214.786 894.905 215.245 894.68 215.821C894.46 216.397 894.349 217.036 894.349 217.737C894.349 218.457 894.462 219.093 894.687 219.647C894.916 220.195 895.254 220.627 895.699 220.942C896.149 221.252 896.706 221.408 897.372 221.408ZM914.348 227.102C913.579 227.102 912.918 227.003 912.364 226.805C911.811 226.612 911.35 226.356 910.981 226.036C910.617 225.721 910.327 225.384 910.111 225.024L911.379 224.134C911.523 224.322 911.705 224.538 911.926 224.781C912.146 225.029 912.448 225.242 912.83 225.422C913.217 225.607 913.723 225.699 914.348 225.699C915.185 225.699 915.875 225.496 916.419 225.092C916.964 224.687 917.236 224.053 917.236 223.189V221.084H917.101C916.984 221.273 916.818 221.507 916.602 221.786C916.39 222.06 916.084 222.305 915.684 222.521C915.288 222.732 914.753 222.838 914.078 222.838C913.242 222.838 912.49 222.64 911.825 222.244C911.163 221.848 910.639 221.273 910.253 220.517C909.87 219.761 909.679 218.844 909.679 217.764C909.679 216.703 909.866 215.778 910.239 214.991C910.612 214.199 911.132 213.588 911.798 213.156C912.463 212.72 913.233 212.501 914.105 212.501C914.78 212.501 915.315 212.614 915.711 212.839C916.111 213.059 916.417 213.311 916.629 213.594C916.844 213.873 917.011 214.103 917.128 214.283H917.29V212.636H918.828V223.297C918.828 224.188 918.626 224.912 918.221 225.469C917.821 226.032 917.281 226.443 916.602 226.704C915.927 226.97 915.176 227.102 914.348 227.102ZM914.294 221.408C914.933 221.408 915.473 221.261 915.913 220.969C916.354 220.677 916.689 220.256 916.919 219.707C917.148 219.159 917.263 218.502 917.263 217.737C917.263 216.991 917.15 216.332 916.925 215.76C916.701 215.189 916.368 214.741 915.927 214.418C915.486 214.094 914.942 213.932 914.294 213.932C913.619 213.932 913.057 214.103 912.607 214.445C912.162 214.786 911.827 215.245 911.602 215.821C911.382 216.397 911.271 217.036 911.271 217.737C911.271 218.457 911.384 219.093 911.609 219.647C911.838 220.195 912.175 220.627 912.621 220.942C913.071 221.252 913.628 221.408 914.294 221.408ZM923.335 209.182V223H921.743V209.182H923.335ZM930.462 223.216C929.526 223.216 928.705 222.993 927.999 222.548C927.298 222.103 926.749 221.48 926.353 220.679C925.962 219.878 925.766 218.943 925.766 217.872C925.766 216.793 925.962 215.85 926.353 215.045C926.749 214.24 927.298 213.615 927.999 213.169C928.705 212.724 929.526 212.501 930.462 212.501C931.398 212.501 932.216 212.724 932.918 213.169C933.624 213.615 934.173 214.24 934.564 215.045C934.96 215.85 935.158 216.793 935.158 217.872C935.158 218.943 934.96 219.878 934.564 220.679C934.173 221.48 933.624 222.103 932.918 222.548C932.216 222.993 931.398 223.216 930.462 223.216ZM930.462 221.786C931.173 221.786 931.757 221.603 932.216 221.239C932.675 220.875 933.015 220.396 933.235 219.802C933.455 219.208 933.566 218.565 933.566 217.872C933.566 217.179 933.455 216.534 933.235 215.936C933.015 215.337 932.675 214.854 932.216 214.485C931.757 214.116 931.173 213.932 930.462 213.932C929.751 213.932 929.166 214.116 928.708 214.485C928.249 214.854 927.909 215.337 927.689 215.936C927.468 216.534 927.358 217.179 927.358 217.872C927.358 218.565 927.468 219.208 927.689 219.802C927.909 220.396 928.249 220.875 928.708 221.239C929.166 221.603 929.751 221.786 930.462 221.786ZM937.805 223V209.182H939.397V214.283H939.532C939.649 214.103 939.811 213.873 940.018 213.594C940.229 213.311 940.53 213.059 940.922 212.839C941.318 212.614 941.853 212.501 942.528 212.501C943.4 212.501 944.169 212.72 944.835 213.156C945.501 213.592 946.02 214.211 946.394 215.011C946.767 215.812 946.954 216.757 946.954 217.845C946.954 218.943 946.767 219.894 946.394 220.699C946.02 221.5 945.503 222.121 944.842 222.561C944.181 222.998 943.418 223.216 942.555 223.216C941.889 223.216 941.356 223.106 940.955 222.885C940.555 222.66 940.247 222.406 940.031 222.123C939.815 221.835 939.649 221.597 939.532 221.408H939.343V223H937.805ZM939.37 217.818C939.37 218.601 939.485 219.291 939.714 219.89C939.943 220.483 940.279 220.949 940.719 221.286C941.16 221.619 941.7 221.786 942.339 221.786C943.004 221.786 943.56 221.61 944.005 221.259C944.455 220.904 944.792 220.427 945.017 219.829C945.247 219.226 945.361 218.556 945.361 217.818C945.361 217.089 945.249 216.433 945.024 215.848C944.804 215.259 944.468 214.793 944.019 214.451C943.573 214.105 943.013 213.932 942.339 213.932C941.691 213.932 941.147 214.096 940.706 214.424C940.265 214.748 939.932 215.203 939.707 215.787C939.482 216.368 939.37 217.045 939.37 217.818ZM952.439 223.243C951.782 223.243 951.186 223.119 950.651 222.872C950.116 222.62 949.691 222.258 949.376 221.786C949.061 221.309 948.904 220.733 948.904 220.058C948.904 219.464 949.021 218.983 949.254 218.614C949.488 218.241 949.801 217.949 950.192 217.737C950.584 217.526 951.015 217.368 951.488 217.265C951.965 217.157 952.444 217.071 952.925 217.009C953.555 216.928 954.065 216.867 954.457 216.826C954.852 216.781 955.14 216.707 955.32 216.604C955.505 216.5 955.597 216.32 955.597 216.064V216.01C955.597 215.344 955.415 214.827 955.05 214.458C954.69 214.089 954.144 213.905 953.411 213.905C952.651 213.905 952.055 214.071 951.623 214.404C951.191 214.737 950.887 215.092 950.712 215.47L949.201 214.93C949.47 214.301 949.83 213.81 950.28 213.46C950.734 213.104 951.229 212.857 951.764 212.717C952.304 212.573 952.835 212.501 953.357 212.501C953.69 212.501 954.072 212.542 954.504 212.623C954.94 212.699 955.361 212.859 955.765 213.102C956.175 213.345 956.514 213.711 956.784 214.202C957.054 214.692 957.189 215.349 957.189 216.172V223H955.597V221.597H955.516C955.408 221.821 955.228 222.062 954.976 222.319C954.724 222.575 954.389 222.793 953.971 222.973C953.552 223.153 953.042 223.243 952.439 223.243ZM952.682 221.812C953.312 221.812 953.843 221.689 954.274 221.441C954.711 221.194 955.039 220.875 955.259 220.483C955.484 220.092 955.597 219.68 955.597 219.249V217.791C955.529 217.872 955.381 217.946 955.151 218.014C954.927 218.077 954.666 218.133 954.369 218.183C954.076 218.228 953.791 218.268 953.512 218.304C953.238 218.335 953.015 218.362 952.844 218.385C952.43 218.439 952.043 218.527 951.683 218.648C951.328 218.765 951.04 218.943 950.82 219.181C950.604 219.415 950.496 219.734 950.496 220.139C950.496 220.692 950.701 221.111 951.11 221.394C951.524 221.673 952.048 221.812 952.682 221.812ZM961.688 209.182V223H960.095V209.182H961.688ZM972.998 223.243C972.341 223.243 971.745 223.119 971.21 222.872C970.674 222.62 970.249 222.258 969.935 221.786C969.62 221.309 969.462 220.733 969.462 220.058C969.462 219.464 969.579 218.983 969.813 218.614C970.047 218.241 970.36 217.949 970.751 217.737C971.142 217.526 971.574 217.368 972.046 217.265C972.523 217.157 973.002 217.071 973.484 217.009C974.113 216.928 974.624 216.867 975.015 216.826C975.411 216.781 975.699 216.707 975.879 216.604C976.063 216.5 976.155 216.32 976.155 216.064V216.01C976.155 215.344 975.973 214.827 975.609 214.458C975.249 214.089 974.703 213.905 973.969 213.905C973.209 213.905 972.613 214.071 972.181 214.404C971.75 214.737 971.446 215.092 971.27 215.47L969.759 214.93C970.029 214.301 970.389 213.81 970.839 213.46C971.293 213.104 971.788 212.857 972.323 212.717C972.863 212.573 973.394 212.501 973.915 212.501C974.248 212.501 974.631 212.542 975.062 212.623C975.499 212.699 975.919 212.859 976.324 213.102C976.733 213.345 977.073 213.711 977.343 214.202C977.613 214.692 977.748 215.349 977.748 216.172V223H976.155V221.597H976.074C975.966 221.821 975.787 222.062 975.535 222.319C975.283 222.575 974.948 222.793 974.529 222.973C974.111 223.153 973.6 223.243 972.998 223.243ZM973.241 221.812C973.87 221.812 974.401 221.689 974.833 221.441C975.269 221.194 975.598 220.875 975.818 220.483C976.043 220.092 976.155 219.68 976.155 219.249V217.791C976.088 217.872 975.939 217.946 975.71 218.014C975.485 218.077 975.224 218.133 974.927 218.183C974.635 218.228 974.349 218.268 974.071 218.304C973.796 218.335 973.573 218.362 973.403 218.385C972.989 218.439 972.602 218.527 972.242 218.648C971.887 218.765 971.599 218.943 971.378 219.181C971.163 219.415 971.055 219.734 971.055 220.139C971.055 220.692 971.259 221.111 971.669 221.394C972.082 221.673 972.606 221.812 973.241 221.812ZM982.246 216.766V223H980.654V212.636H982.192V214.256H982.327C982.57 213.729 982.939 213.307 983.434 212.987C983.929 212.663 984.567 212.501 985.35 212.501C986.052 212.501 986.666 212.645 987.192 212.933C987.718 213.217 988.128 213.648 988.42 214.229C988.712 214.804 988.859 215.533 988.859 216.415V223H987.266V216.523C987.266 215.709 987.055 215.074 986.632 214.62C986.209 214.161 985.629 213.932 984.891 213.932C984.383 213.932 983.929 214.042 983.528 214.262C983.133 214.483 982.82 214.804 982.591 215.227C982.361 215.65 982.246 216.163 982.246 216.766ZM995.682 223.216C994.818 223.216 994.056 222.998 993.394 222.561C992.733 222.121 992.216 221.5 991.843 220.699C991.469 219.894 991.283 218.943 991.283 217.845C991.283 216.757 991.469 215.812 991.843 215.011C992.216 214.211 992.735 213.592 993.401 213.156C994.067 212.72 994.836 212.501 995.709 212.501C996.383 212.501 996.916 212.614 997.308 212.839C997.704 213.059 998.005 213.311 998.212 213.594C998.423 213.873 998.587 214.103 998.704 214.283H998.839V209.182H1000.43V223H998.893V221.408H998.704C998.587 221.597 998.421 221.835 998.205 222.123C997.989 222.406 997.681 222.66 997.281 222.885C996.88 223.106 996.347 223.216 995.682 223.216ZM995.898 221.786C996.536 221.786 997.076 221.619 997.517 221.286C997.958 220.949 998.293 220.483 998.522 219.89C998.752 219.291 998.866 218.601 998.866 217.818C998.866 217.045 998.754 216.368 998.529 215.787C998.304 215.203 997.971 214.748 997.53 214.424C997.09 214.096 996.545 213.932 995.898 213.932C995.223 213.932 994.661 214.105 994.211 214.451C993.765 214.793 993.43 215.259 993.205 215.848C992.985 216.433 992.875 217.089 992.875 217.818C992.875 218.556 992.987 219.226 993.212 219.829C993.442 220.427 993.779 220.904 994.224 221.259C994.674 221.61 995.232 221.786 995.898 221.786ZM819.41 239.182V253H817.818V239.182H819.41ZM826.537 253.216C825.602 253.216 824.781 252.993 824.074 252.548C823.373 252.103 822.824 251.48 822.428 250.679C822.037 249.878 821.841 248.943 821.841 247.872C821.841 246.793 822.037 245.85 822.428 245.045C822.824 244.24 823.373 243.615 824.074 243.169C824.781 242.724 825.602 242.501 826.537 242.501C827.473 242.501 828.291 242.724 828.993 243.169C829.699 243.615 830.248 244.24 830.639 245.045C831.035 245.85 831.233 246.793 831.233 247.872C831.233 248.943 831.035 249.878 830.639 250.679C830.248 251.48 829.699 252.103 828.993 252.548C828.291 252.993 827.473 253.216 826.537 253.216ZM826.537 251.786C827.248 251.786 827.833 251.603 828.291 251.239C828.75 250.875 829.09 250.396 829.31 249.802C829.531 249.208 829.641 248.565 829.641 247.872C829.641 247.179 829.531 246.534 829.31 245.936C829.09 245.337 828.75 244.854 828.291 244.485C827.833 244.116 827.248 243.932 826.537 243.932C825.826 243.932 825.242 244.116 824.783 244.485C824.324 244.854 823.984 245.337 823.764 245.936C823.544 246.534 823.433 247.179 823.433 247.872C823.433 248.565 823.544 249.208 823.764 249.802C823.984 250.396 824.324 250.875 824.783 251.239C825.242 251.603 825.826 251.786 826.537 251.786ZM837.874 253.216C836.902 253.216 836.066 252.987 835.364 252.528C834.662 252.069 834.123 251.437 833.745 250.632C833.367 249.827 833.178 248.907 833.178 247.872C833.178 246.82 833.371 245.891 833.758 245.086C834.15 244.276 834.694 243.644 835.391 243.19C836.093 242.731 836.911 242.501 837.847 242.501C838.576 242.501 839.232 242.636 839.817 242.906C840.402 243.176 840.881 243.554 841.254 244.04C841.628 244.526 841.859 245.092 841.949 245.74H840.357C840.236 245.268 839.966 244.849 839.547 244.485C839.134 244.116 838.576 243.932 837.874 243.932C837.253 243.932 836.709 244.094 836.241 244.418C835.778 244.737 835.416 245.189 835.155 245.774C834.899 246.354 834.77 247.036 834.77 247.818C834.77 248.619 834.896 249.316 835.148 249.91C835.405 250.504 835.764 250.965 836.228 251.293C836.696 251.621 837.244 251.786 837.874 251.786C838.288 251.786 838.663 251.714 839.001 251.57C839.338 251.426 839.624 251.219 839.858 250.949C840.092 250.679 840.258 250.355 840.357 249.977H841.949C841.859 250.589 841.637 251.14 841.281 251.63C840.931 252.116 840.465 252.503 839.885 252.791C839.309 253.074 838.639 253.216 837.874 253.216ZM847.327 253.243C846.67 253.243 846.074 253.119 845.539 252.872C845.004 252.62 844.578 252.258 844.264 251.786C843.949 251.309 843.791 250.733 843.791 250.058C843.791 249.464 843.908 248.983 844.142 248.614C844.376 248.241 844.689 247.949 845.08 247.737C845.471 247.526 845.903 247.368 846.375 247.265C846.852 247.157 847.331 247.071 847.813 247.009C848.442 246.928 848.953 246.867 849.344 246.826C849.74 246.781 850.028 246.707 850.208 246.604C850.392 246.5 850.484 246.32 850.484 246.064V246.01C850.484 245.344 850.302 244.827 849.938 244.458C849.578 244.089 849.032 243.905 848.298 243.905C847.538 243.905 846.942 244.071 846.51 244.404C846.079 244.737 845.775 245.092 845.6 245.47L844.088 244.93C844.358 244.301 844.718 243.81 845.168 243.46C845.622 243.104 846.117 242.857 846.652 242.717C847.192 242.573 847.723 242.501 848.244 242.501C848.577 242.501 848.96 242.542 849.391 242.623C849.828 242.699 850.248 242.859 850.653 243.102C851.063 243.345 851.402 243.711 851.672 244.202C851.942 244.692 852.077 245.349 852.077 246.172V253H850.484V251.597H850.404C850.296 251.821 850.116 252.062 849.864 252.319C849.612 252.575 849.277 252.793 848.858 252.973C848.44 253.153 847.93 253.243 847.327 253.243ZM847.57 251.812C848.199 251.812 848.73 251.689 849.162 251.441C849.598 251.194 849.927 250.875 850.147 250.483C850.372 250.092 850.484 249.68 850.484 249.249V247.791C850.417 247.872 850.269 247.946 850.039 248.014C849.814 248.077 849.553 248.133 849.257 248.183C848.964 248.228 848.679 248.268 848.4 248.304C848.125 248.335 847.903 248.362 847.732 248.385C847.318 248.439 846.931 248.527 846.571 248.648C846.216 248.765 845.928 248.943 845.708 249.181C845.492 249.415 845.384 249.734 845.384 250.139C845.384 250.692 845.588 251.111 845.998 251.394C846.411 251.673 846.935 251.812 847.57 251.812ZM856.575 239.182V253H854.983V239.182H856.575ZM869.046 253.216C868.074 253.216 867.238 252.987 866.536 252.528C865.834 252.069 865.295 251.437 864.917 250.632C864.539 249.827 864.35 248.907 864.35 247.872C864.35 246.82 864.543 245.891 864.93 245.086C865.322 244.276 865.866 243.644 866.563 243.19C867.265 242.731 868.083 242.501 869.019 242.501C869.748 242.501 870.404 242.636 870.989 242.906C871.574 243.176 872.053 243.554 872.426 244.04C872.8 244.526 873.031 245.092 873.121 245.74H871.529C871.407 245.268 871.138 244.849 870.719 244.485C870.305 244.116 869.748 243.932 869.046 243.932C868.425 243.932 867.881 244.094 867.413 244.418C866.95 244.737 866.588 245.189 866.327 245.774C866.07 246.354 865.942 247.036 865.942 247.818C865.942 248.619 866.068 249.316 866.32 249.91C866.576 250.504 866.936 250.965 867.4 251.293C867.867 251.621 868.416 251.786 869.046 251.786C869.46 251.786 869.835 251.714 870.173 251.57C870.51 251.426 870.796 251.219 871.03 250.949C871.263 250.679 871.43 250.355 871.529 249.977H873.121C873.031 250.589 872.809 251.14 872.453 251.63C872.102 252.116 871.637 252.503 871.057 252.791C870.481 253.074 869.811 253.216 869.046 253.216ZM875.449 253V242.636H876.987V244.202H877.095C877.284 243.689 877.626 243.273 878.121 242.953C878.616 242.634 879.173 242.474 879.794 242.474C879.911 242.474 880.057 242.477 880.233 242.481C880.408 242.486 880.541 242.492 880.631 242.501V244.121C880.577 244.107 880.453 244.087 880.26 244.06C880.071 244.029 879.871 244.013 879.659 244.013C879.155 244.013 878.706 244.118 878.31 244.33C877.918 244.537 877.608 244.825 877.379 245.194C877.154 245.558 877.041 245.974 877.041 246.442V253H875.449ZM883.859 256.886C883.589 256.886 883.349 256.864 883.137 256.819C882.926 256.778 882.78 256.738 882.699 256.697L883.104 255.294C883.49 255.393 883.832 255.429 884.129 255.402C884.426 255.375 884.689 255.242 884.919 255.004C885.153 254.77 885.366 254.39 885.56 253.864L885.856 253.054L882.024 242.636H883.751L886.612 250.895H886.72L889.581 242.636H891.308L886.909 254.511C886.711 255.047 886.466 255.49 886.174 255.841C885.881 256.196 885.542 256.459 885.155 256.63C884.772 256.801 884.341 256.886 883.859 256.886ZM893.41 256.886V242.636H894.948V244.283H895.137C895.254 244.103 895.416 243.873 895.623 243.594C895.834 243.311 896.136 243.059 896.527 242.839C896.923 242.614 897.458 242.501 898.133 242.501C899.006 242.501 899.775 242.72 900.44 243.156C901.106 243.592 901.626 244.211 901.999 245.011C902.372 245.812 902.559 246.757 902.559 247.845C902.559 248.943 902.372 249.894 901.999 250.699C901.626 251.5 901.108 252.121 900.447 252.561C899.786 252.998 899.024 253.216 898.16 253.216C897.494 253.216 896.961 253.106 896.561 252.885C896.161 252.66 895.852 252.406 895.636 252.123C895.421 251.835 895.254 251.597 895.137 251.408H895.002V256.886H893.41ZM894.975 247.818C894.975 248.601 895.09 249.291 895.319 249.89C895.549 250.483 895.884 250.949 896.325 251.286C896.766 251.619 897.305 251.786 897.944 251.786C898.61 251.786 899.165 251.61 899.611 251.259C900.06 250.904 900.398 250.427 900.623 249.829C900.852 249.226 900.967 248.556 900.967 247.818C900.967 247.089 900.854 246.433 900.629 245.848C900.409 245.259 900.074 244.793 899.624 244.451C899.179 244.105 898.619 243.932 897.944 243.932C897.296 243.932 896.752 244.096 896.311 244.424C895.87 244.748 895.538 245.203 895.313 245.787C895.088 246.368 894.975 247.045 894.975 247.818ZM909.495 242.636V243.986H904.124V242.636H909.495ZM905.69 240.153H907.282V250.031C907.282 250.481 907.347 250.818 907.478 251.043C907.613 251.264 907.784 251.412 907.991 251.489C908.202 251.561 908.425 251.597 908.659 251.597C908.834 251.597 908.978 251.588 909.09 251.57C909.203 251.547 909.293 251.529 909.36 251.516L909.684 252.946C909.576 252.987 909.425 253.027 909.232 253.067C909.039 253.112 908.793 253.135 908.497 253.135C908.047 253.135 907.606 253.038 907.174 252.845C906.747 252.651 906.391 252.357 906.108 251.961C905.829 251.565 905.69 251.066 905.69 250.463V240.153ZM915.989 253.216C915.054 253.216 914.233 252.993 913.527 252.548C912.825 252.103 912.276 251.48 911.88 250.679C911.489 249.878 911.293 248.943 911.293 247.872C911.293 246.793 911.489 245.85 911.88 245.045C912.276 244.24 912.825 243.615 913.527 243.169C914.233 242.724 915.054 242.501 915.989 242.501C916.925 242.501 917.744 242.724 918.445 243.169C919.151 243.615 919.7 244.24 920.092 245.045C920.487 245.85 920.685 246.793 920.685 247.872C920.685 248.943 920.487 249.878 920.092 250.679C919.7 251.48 919.151 252.103 918.445 252.548C917.744 252.993 916.925 253.216 915.989 253.216ZM915.989 251.786C916.7 251.786 917.285 251.603 917.744 251.239C918.202 250.875 918.542 250.396 918.762 249.802C918.983 249.208 919.093 248.565 919.093 247.872C919.093 247.179 918.983 246.534 918.762 245.936C918.542 245.337 918.202 244.854 917.744 244.485C917.285 244.116 916.7 243.932 915.989 243.932C915.279 243.932 914.694 244.116 914.235 244.485C913.776 244.854 913.437 245.337 913.216 245.936C912.996 246.534 912.886 247.179 912.886 247.872C912.886 248.565 912.996 249.208 913.216 249.802C913.437 250.396 913.776 250.875 914.235 251.239C914.694 251.603 915.279 251.786 915.989 251.786ZM932.805 253.216C931.806 253.216 930.945 252.996 930.221 252.555C929.501 252.109 928.946 251.489 928.554 250.692C928.167 249.892 927.974 248.961 927.974 247.899C927.974 246.838 928.167 245.902 928.554 245.092C928.946 244.278 929.49 243.644 930.187 243.19C930.889 242.731 931.707 242.501 932.643 242.501C933.183 242.501 933.716 242.591 934.242 242.771C934.768 242.951 935.247 243.244 935.679 243.648C936.111 244.049 936.455 244.58 936.712 245.241C936.968 245.902 937.096 246.716 937.096 247.683V248.358H929.107V246.982H935.477C935.477 246.397 935.36 245.875 935.126 245.416C934.897 244.957 934.568 244.595 934.141 244.33C933.718 244.065 933.219 243.932 932.643 243.932C932.009 243.932 931.46 244.089 930.997 244.404C930.538 244.714 930.185 245.119 929.937 245.619C929.69 246.118 929.566 246.653 929.566 247.224V248.142C929.566 248.925 929.701 249.588 929.971 250.132C930.245 250.672 930.626 251.084 931.111 251.367C931.597 251.646 932.162 251.786 932.805 251.786C933.223 251.786 933.601 251.727 933.938 251.61C934.28 251.489 934.575 251.309 934.822 251.07C935.07 250.827 935.261 250.526 935.396 250.166L936.934 250.598C936.772 251.12 936.5 251.579 936.118 251.974C935.735 252.366 935.263 252.672 934.701 252.892C934.139 253.108 933.507 253.216 932.805 253.216ZM940.428 242.636L942.91 246.874L945.393 242.636H947.229L943.882 247.818L947.229 253H945.393L942.91 248.979L940.428 253H938.592L941.885 247.818L938.592 242.636H940.428ZM953.284 253.216C952.313 253.216 951.476 252.987 950.774 252.528C950.073 252.069 949.533 251.437 949.155 250.632C948.777 249.827 948.588 248.907 948.588 247.872C948.588 246.82 948.782 245.891 949.168 245.086C949.56 244.276 950.104 243.644 950.801 243.19C951.503 242.731 952.322 242.501 953.257 242.501C953.986 242.501 954.643 242.636 955.227 242.906C955.812 243.176 956.291 243.554 956.665 244.04C957.038 244.526 957.27 245.092 957.36 245.74H955.767C955.646 245.268 955.376 244.849 954.958 244.485C954.544 244.116 953.986 243.932 953.284 243.932C952.663 243.932 952.119 244.094 951.651 244.418C951.188 244.737 950.826 245.189 950.565 245.774C950.309 246.354 950.181 247.036 950.181 247.818C950.181 248.619 950.306 249.316 950.558 249.91C950.815 250.504 951.175 250.965 951.638 251.293C952.106 251.621 952.654 251.786 953.284 251.786C953.698 251.786 954.074 251.714 954.411 251.57C954.748 251.426 955.034 251.219 955.268 250.949C955.502 250.679 955.668 250.355 955.767 249.977H957.36C957.27 250.589 957.047 251.14 956.692 251.63C956.341 252.116 955.875 252.503 955.295 252.791C954.719 253.074 954.049 253.216 953.284 253.216ZM961.28 246.766V253H959.687V239.182H961.28V244.256H961.415C961.657 243.72 962.022 243.295 962.508 242.98C962.998 242.661 963.65 242.501 964.464 242.501C965.17 242.501 965.789 242.643 966.32 242.926C966.851 243.205 967.262 243.635 967.554 244.215C967.851 244.791 968 245.524 968 246.415V253H966.407V246.523C966.407 245.7 966.194 245.063 965.766 244.613C965.344 244.159 964.757 243.932 964.005 243.932C963.484 243.932 963.016 244.042 962.602 244.262C962.193 244.483 961.869 244.804 961.63 245.227C961.397 245.65 961.28 246.163 961.28 246.766ZM973.963 253.243C973.306 253.243 972.71 253.119 972.175 252.872C971.639 252.62 971.214 252.258 970.899 251.786C970.584 251.309 970.427 250.733 970.427 250.058C970.427 249.464 970.544 248.983 970.778 248.614C971.012 248.241 971.324 247.949 971.716 247.737C972.107 247.526 972.539 247.368 973.011 247.265C973.488 247.157 973.967 247.071 974.448 247.009C975.078 246.928 975.589 246.867 975.98 246.826C976.376 246.781 976.664 246.707 976.844 246.604C977.028 246.5 977.12 246.32 977.12 246.064V246.01C977.12 245.344 976.938 244.827 976.574 244.458C976.214 244.089 975.667 243.905 974.934 243.905C974.174 243.905 973.578 244.071 973.146 244.404C972.714 244.737 972.411 245.092 972.235 245.47L970.724 244.93C970.994 244.301 971.354 243.81 971.803 243.46C972.258 243.104 972.753 242.857 973.288 242.717C973.828 242.573 974.358 242.501 974.88 242.501C975.213 242.501 975.595 242.542 976.027 242.623C976.464 242.699 976.884 242.859 977.289 243.102C977.698 243.345 978.038 243.711 978.308 244.202C978.578 244.692 978.713 245.349 978.713 246.172V253H977.12V251.597H977.039C976.931 251.821 976.751 252.062 976.5 252.319C976.248 252.575 975.913 252.793 975.494 252.973C975.076 253.153 974.565 253.243 973.963 253.243ZM974.205 251.812C974.835 251.812 975.366 251.689 975.798 251.441C976.234 251.194 976.562 250.875 976.783 250.483C977.008 250.092 977.12 249.68 977.12 249.249V247.791C977.053 247.872 976.904 247.946 976.675 248.014C976.45 248.077 976.189 248.133 975.892 248.183C975.6 248.228 975.314 248.268 975.035 248.304C974.761 248.335 974.538 248.362 974.367 248.385C973.954 248.439 973.567 248.527 973.207 248.648C972.852 248.765 972.564 248.943 972.343 249.181C972.127 249.415 972.019 249.734 972.019 250.139C972.019 250.692 972.224 251.111 972.633 251.394C973.047 251.673 973.571 251.812 974.205 251.812ZM983.211 246.766V253H981.619V242.636H983.157V244.256H983.292C983.535 243.729 983.904 243.307 984.399 242.987C984.894 242.663 985.532 242.501 986.315 242.501C987.017 242.501 987.631 242.645 988.157 242.933C988.683 243.217 989.093 243.648 989.385 244.229C989.677 244.804 989.823 245.533 989.823 246.415V253H988.231V246.523C988.231 245.709 988.02 245.074 987.597 244.62C987.174 244.161 986.594 243.932 985.856 243.932C985.348 243.932 984.894 244.042 984.493 244.262C984.097 244.483 983.785 244.804 983.555 245.227C983.326 245.65 983.211 246.163 983.211 246.766ZM996.916 257.102C996.147 257.102 995.486 257.003 994.933 256.805C994.379 256.612 993.918 256.356 993.55 256.036C993.185 255.721 992.895 255.384 992.679 255.024L993.948 254.134C994.092 254.322 994.274 254.538 994.494 254.781C994.715 255.029 995.016 255.242 995.398 255.422C995.785 255.607 996.291 255.699 996.916 255.699C997.753 255.699 998.444 255.496 998.988 255.092C999.532 254.687 999.804 254.053 999.804 253.189V251.084H999.669C999.552 251.273 999.386 251.507 999.17 251.786C998.959 252.06 998.653 252.305 998.252 252.521C997.857 252.732 997.321 252.838 996.647 252.838C995.81 252.838 995.059 252.64 994.393 252.244C993.732 251.848 993.208 251.273 992.821 250.517C992.439 249.761 992.247 248.844 992.247 247.764C992.247 246.703 992.434 245.778 992.807 244.991C993.181 244.199 993.7 243.588 994.366 243.156C995.032 242.72 995.801 242.501 996.674 242.501C997.348 242.501 997.884 242.614 998.279 242.839C998.68 243.059 998.986 243.311 999.197 243.594C999.413 243.873 999.579 244.103 999.696 244.283H999.858V242.636H1001.4V253.297C1001.4 254.188 1001.19 254.912 1000.79 255.469C1000.39 256.032 999.849 256.443 999.17 256.704C998.495 256.97 997.744 257.102 996.916 257.102ZM996.862 251.408C997.501 251.408 998.041 251.261 998.482 250.969C998.923 250.677 999.258 250.256 999.487 249.707C999.716 249.159 999.831 248.502 999.831 247.737C999.831 246.991 999.719 246.332 999.494 245.76C999.269 245.189 998.936 244.741 998.495 244.418C998.054 244.094 997.51 243.932 996.862 243.932C996.188 243.932 995.625 244.103 995.176 244.445C994.73 244.786 994.395 245.245 994.17 245.821C993.95 246.397 993.84 247.036 993.84 247.737C993.84 248.457 993.952 249.093 994.177 249.647C994.406 250.195 994.744 250.627 995.189 250.942C995.639 251.252 996.197 251.408 996.862 251.408ZM1008.66 253.216C1007.66 253.216 1006.8 252.996 1006.07 252.555C1005.35 252.109 1004.8 251.489 1004.41 250.692C1004.02 249.892 1003.83 248.961 1003.83 247.899C1003.83 246.838 1004.02 245.902 1004.41 245.092C1004.8 244.278 1005.34 243.644 1006.04 243.19C1006.74 242.731 1007.56 242.501 1008.49 242.501C1009.03 242.501 1009.57 242.591 1010.09 242.771C1010.62 242.951 1011.1 243.244 1011.53 243.648C1011.96 244.049 1012.31 244.58 1012.56 245.241C1012.82 245.902 1012.95 246.716 1012.95 247.683V248.358H1004.96V246.982H1011.33C1011.33 246.397 1011.21 245.875 1010.98 245.416C1010.75 244.957 1010.42 244.595 1009.99 244.33C1009.57 244.065 1009.07 243.932 1008.49 243.932C1007.86 243.932 1007.31 244.089 1006.85 244.404C1006.39 244.714 1006.04 245.119 1005.79 245.619C1005.54 246.118 1005.42 246.653 1005.42 247.224V248.142C1005.42 248.925 1005.55 249.588 1005.82 250.132C1006.1 250.672 1006.48 251.084 1006.96 251.367C1007.45 251.646 1008.01 251.786 1008.66 251.786C1009.07 251.786 1009.45 251.727 1009.79 251.61C1010.13 251.489 1010.43 251.309 1010.67 251.07C1010.92 250.827 1011.11 250.526 1011.25 250.166L1012.79 250.598C1012.62 251.12 1012.35 251.579 1011.97 251.974C1011.59 252.366 1011.11 252.672 1010.55 252.892C1009.99 253.108 1009.36 253.216 1008.66 253.216ZM1022.71 244.957L1021.28 245.362C1021.19 245.124 1021.06 244.892 1020.88 244.667C1020.71 244.438 1020.48 244.249 1020.18 244.1C1019.88 243.952 1019.5 243.878 1019.04 243.878C1018.41 243.878 1017.88 244.024 1017.45 244.316C1017.04 244.604 1016.83 244.971 1016.83 245.416C1016.83 245.812 1016.97 246.125 1017.26 246.354C1017.55 246.583 1018 246.775 1018.61 246.928L1020.15 247.305C1021.07 247.53 1021.76 247.874 1022.22 248.338C1022.67 248.797 1022.9 249.388 1022.9 250.112C1022.9 250.706 1022.73 251.237 1022.39 251.705C1022.05 252.172 1021.58 252.541 1020.97 252.811C1020.36 253.081 1019.66 253.216 1018.85 253.216C1017.79 253.216 1016.92 252.987 1016.23 252.528C1015.53 252.069 1015.1 251.399 1014.91 250.517L1016.42 250.139C1016.57 250.697 1016.84 251.115 1017.24 251.394C1017.64 251.673 1018.17 251.812 1018.82 251.812C1019.57 251.812 1020.16 251.655 1020.59 251.34C1021.03 251.021 1021.25 250.638 1021.25 250.193C1021.25 249.833 1021.13 249.532 1020.88 249.289C1020.62 249.042 1020.24 248.857 1019.72 248.736L1017.99 248.331C1017.04 248.106 1016.34 247.757 1015.9 247.285C1015.46 246.808 1015.23 246.212 1015.23 245.497C1015.23 244.912 1015.4 244.395 1015.73 243.945C1016.06 243.496 1016.51 243.142 1017.08 242.886C1017.66 242.63 1018.31 242.501 1019.04 242.501C1020.07 242.501 1020.87 242.726 1021.46 243.176C1022.05 243.626 1022.46 244.22 1022.71 244.957Z"
        fill="#E5E5E5" />
    <path
        d="M475.445 164.636V193H471.151V168.93H470.985L464.199 173.362V169.262L471.276 164.636H475.445ZM486.923 189.122L486.715 190.632C486.576 191.74 486.341 192.894 486.008 194.094C485.685 195.304 485.348 196.425 484.997 197.46C484.656 198.494 484.374 199.315 484.153 199.925H481.217C481.337 199.352 481.503 198.577 481.715 197.598C481.928 196.629 482.135 195.544 482.338 194.343C482.541 193.143 482.694 191.92 482.795 190.673L482.934 189.122H486.923ZM492.715 193V189.898L502.313 179.954C503.338 178.874 504.182 177.927 504.847 177.115C505.521 176.293 506.024 175.513 506.357 174.774C506.689 174.036 506.855 173.251 506.855 172.42C506.855 171.478 506.634 170.665 506.191 169.982C505.747 169.29 505.143 168.759 504.376 168.39C503.61 168.011 502.747 167.822 501.786 167.822C500.771 167.822 499.884 168.029 499.127 168.445C498.37 168.86 497.789 169.447 497.382 170.204C496.976 170.961 496.773 171.847 496.773 172.863H492.687C492.687 171.136 493.084 169.627 493.878 168.334C494.672 167.042 495.762 166.04 497.147 165.329C498.532 164.609 500.106 164.249 501.87 164.249C503.651 164.249 505.221 164.604 506.578 165.315C507.945 166.017 509.011 166.977 509.778 168.196C510.544 169.405 510.927 170.772 510.927 172.295C510.927 173.348 510.729 174.377 510.332 175.384C509.944 176.39 509.265 177.512 508.296 178.749C507.326 179.977 505.978 181.468 504.252 183.222L498.615 189.122V189.33H511.384V193H492.715ZM526.508 193.471C524.319 193.462 522.45 192.885 520.899 191.74C519.348 190.595 518.161 188.928 517.339 186.74C516.518 184.552 516.107 181.916 516.107 178.832C516.107 175.757 516.518 173.131 517.339 170.952C518.17 168.773 519.361 167.111 520.912 165.966C522.473 164.821 524.338 164.249 526.508 164.249C528.677 164.249 530.538 164.826 532.089 165.98C533.64 167.125 534.827 168.787 535.648 170.966C536.479 173.135 536.895 175.757 536.895 178.832C536.895 181.925 536.484 184.566 535.662 186.754C534.84 188.933 533.654 190.599 532.103 191.754C530.552 192.898 528.687 193.471 526.508 193.471ZM526.508 189.773C528.428 189.773 529.928 188.836 531.009 186.962C532.098 185.087 532.643 182.377 532.643 178.832C532.643 176.478 532.394 174.488 531.895 172.863C531.406 171.229 530.699 169.991 529.776 169.151C528.862 168.302 527.773 167.877 526.508 167.877C524.596 167.877 523.096 168.819 522.007 170.702C520.917 172.586 520.368 175.296 520.359 178.832C520.359 181.196 520.603 183.195 521.093 184.829C521.591 186.454 522.297 187.686 523.212 188.527C524.126 189.358 525.224 189.773 526.508 189.773ZM551.682 193.471C549.494 193.462 547.625 192.885 546.073 191.74C544.522 190.595 543.336 188.928 542.514 186.74C541.692 184.552 541.282 181.916 541.282 178.832C541.282 175.757 541.692 173.131 542.514 170.952C543.345 168.773 544.536 167.111 546.087 165.966C547.648 164.821 549.513 164.249 551.682 164.249C553.852 164.249 555.713 164.826 557.264 165.98C558.815 167.125 560.001 168.787 560.823 170.966C561.654 173.135 562.07 175.757 562.07 178.832C562.07 181.925 561.659 184.566 560.837 186.754C560.015 188.933 558.829 190.599 557.278 191.754C555.727 192.898 553.861 193.471 551.682 193.471ZM551.682 189.773C553.603 189.773 555.103 188.836 556.184 186.962C557.273 185.087 557.818 182.377 557.818 178.832C557.818 176.478 557.568 174.488 557.07 172.863C556.581 171.229 555.874 169.991 554.951 169.151C554.037 168.302 552.947 167.877 551.682 167.877C549.771 167.877 548.271 168.819 547.181 170.702C546.092 172.586 545.543 175.296 545.533 178.832C545.533 181.196 545.778 183.195 546.267 184.829C546.766 186.454 547.472 187.686 548.386 188.527C549.3 189.358 550.399 189.773 551.682 189.773ZM575.375 188.236V169.511H579.101V188.236H575.375ZM567.883 180.729V177.018H586.607V180.729H567.883Z"
        fill="white" />
    <path
        d="M457.494 238.193C456.624 238.193 455.876 237.988 455.248 237.577C454.62 237.167 454.137 236.601 453.799 235.881C453.461 235.161 453.292 234.338 453.292 233.412C453.292 232.47 453.465 231.639 453.811 230.919C454.161 230.194 454.648 229.629 455.272 229.222C455.9 228.812 456.633 228.607 457.47 228.607C458.122 228.607 458.709 228.727 459.232 228.969C459.756 229.21 460.184 229.548 460.518 229.983C460.852 230.418 461.06 230.925 461.14 231.504H459.715C459.607 231.082 459.365 230.707 458.991 230.381C458.621 230.051 458.122 229.886 457.494 229.886C456.938 229.886 456.451 230.031 456.033 230.321C455.618 230.607 455.294 231.011 455.061 231.534C454.831 232.054 454.717 232.663 454.717 233.364C454.717 234.08 454.829 234.704 455.055 235.235C455.284 235.766 455.606 236.179 456.021 236.473C456.439 236.766 456.93 236.913 457.494 236.913C457.864 236.913 458.2 236.849 458.502 236.72C458.804 236.591 459.059 236.406 459.269 236.165C459.478 235.923 459.627 235.634 459.715 235.295H461.14C461.06 235.843 460.86 236.336 460.542 236.775C460.229 237.209 459.812 237.555 459.293 237.813C458.778 238.066 458.178 238.193 457.494 238.193ZM463.223 238V228.727H464.599V230.128H464.696C464.865 229.669 465.171 229.297 465.613 229.011C466.056 228.725 466.555 228.582 467.111 228.582C467.215 228.582 467.346 228.584 467.503 228.588C467.66 228.592 467.779 228.598 467.859 228.607V230.055C467.811 230.043 467.7 230.025 467.527 230.001C467.358 229.973 467.179 229.959 466.99 229.959C466.539 229.959 466.137 230.053 465.782 230.243C465.432 230.428 465.155 230.685 464.949 231.015C464.748 231.341 464.648 231.714 464.648 232.132V238H463.223ZM470.748 241.477C470.506 241.477 470.291 241.457 470.102 241.417C469.913 241.381 469.782 241.344 469.71 241.308L470.072 240.053C470.418 240.141 470.724 240.173 470.989 240.149C471.255 240.125 471.49 240.006 471.696 239.793C471.905 239.584 472.096 239.244 472.269 238.773L472.535 238.048L469.106 228.727H470.651L473.211 236.116H473.308L475.867 228.727H477.413L473.477 239.352C473.299 239.831 473.08 240.228 472.819 240.542C472.557 240.859 472.253 241.095 471.907 241.248C471.565 241.401 471.178 241.477 470.748 241.477ZM479.293 241.477V228.727H480.67V230.2H480.839C480.943 230.039 481.088 229.834 481.273 229.585C481.462 229.331 481.732 229.106 482.082 228.908C482.436 228.707 482.915 228.607 483.519 228.607C484.3 228.607 484.988 228.802 485.584 229.192C486.179 229.583 486.644 230.136 486.978 230.852C487.312 231.569 487.479 232.414 487.479 233.388C487.479 234.37 487.312 235.221 486.978 235.941C486.644 236.658 486.181 237.213 485.59 237.608C484.998 237.998 484.316 238.193 483.543 238.193C482.947 238.193 482.471 238.095 482.112 237.897C481.754 237.696 481.479 237.469 481.285 237.215C481.092 236.958 480.943 236.744 480.839 236.575H480.718V241.477H479.293ZM480.694 233.364C480.694 234.064 480.796 234.682 481.002 235.217C481.207 235.748 481.507 236.165 481.901 236.467C482.296 236.764 482.778 236.913 483.35 236.913C483.946 236.913 484.443 236.756 484.841 236.442C485.244 236.125 485.545 235.698 485.747 235.163C485.952 234.623 486.054 234.024 486.054 233.364C486.054 232.712 485.954 232.124 485.753 231.601C485.555 231.074 485.256 230.657 484.853 230.351C484.455 230.041 483.954 229.886 483.35 229.886C482.77 229.886 482.283 230.033 481.889 230.327C481.495 230.617 481.197 231.023 480.996 231.547C480.794 232.066 480.694 232.671 480.694 233.364ZM493.685 228.727V229.935H488.88V228.727H493.685ZM490.28 226.506H491.705V235.344C491.705 235.746 491.763 236.048 491.88 236.249C492.001 236.446 492.154 236.579 492.339 236.648C492.528 236.712 492.727 236.744 492.937 236.744C493.094 236.744 493.222 236.736 493.323 236.72C493.424 236.7 493.504 236.684 493.564 236.672L493.854 237.952C493.758 237.988 493.623 238.024 493.45 238.06C493.277 238.101 493.057 238.121 492.792 238.121C492.389 238.121 491.995 238.034 491.608 237.861C491.226 237.688 490.908 237.424 490.655 237.07C490.405 236.716 490.28 236.269 490.28 235.73V226.506ZM499.496 238.193C498.659 238.193 497.924 237.994 497.292 237.596C496.664 237.197 496.173 236.64 495.819 235.923C495.469 235.207 495.294 234.37 495.294 233.412C495.294 232.446 495.469 231.603 495.819 230.882C496.173 230.162 496.664 229.603 497.292 229.204C497.924 228.806 498.659 228.607 499.496 228.607C500.333 228.607 501.065 228.806 501.693 229.204C502.325 229.603 502.816 230.162 503.166 230.882C503.52 231.603 503.697 232.446 503.697 233.412C503.697 234.37 503.52 235.207 503.166 235.923C502.816 236.64 502.325 237.197 501.693 237.596C501.065 237.994 500.333 238.193 499.496 238.193ZM499.496 236.913C500.132 236.913 500.655 236.75 501.065 236.424C501.476 236.098 501.78 235.67 501.977 235.138C502.174 234.607 502.273 234.032 502.273 233.412C502.273 232.792 502.174 232.215 501.977 231.679C501.78 231.144 501.476 230.711 501.065 230.381C500.655 230.051 500.132 229.886 499.496 229.886C498.86 229.886 498.337 230.051 497.926 230.381C497.516 230.711 497.212 231.144 497.015 231.679C496.817 232.215 496.719 232.792 496.719 233.412C496.719 234.032 496.817 234.607 497.015 235.138C497.212 235.67 497.516 236.098 497.926 236.424C498.337 236.75 498.86 236.913 499.496 236.913ZM511.185 232.036V233.364H505.776V232.036H511.185ZM516.42 238.217C515.833 238.217 515.299 238.107 514.82 237.885C514.342 237.66 513.961 237.336 513.679 236.913C513.398 236.487 513.257 235.972 513.257 235.368C513.257 234.837 513.362 234.406 513.571 234.076C513.78 233.742 514.06 233.48 514.41 233.291C514.76 233.102 515.146 232.961 515.569 232.869C515.996 232.772 516.424 232.696 516.855 232.639C517.418 232.567 517.875 232.512 518.225 232.476C518.579 232.436 518.837 232.37 518.998 232.277C519.163 232.184 519.246 232.023 519.246 231.794V231.746C519.246 231.15 519.083 230.687 518.757 230.357C518.435 230.027 517.946 229.862 517.29 229.862C516.609 229.862 516.076 230.011 515.69 230.309C515.303 230.607 515.032 230.925 514.875 231.263L513.523 230.78C513.764 230.216 514.086 229.778 514.488 229.464C514.895 229.146 515.338 228.924 515.817 228.8C516.3 228.671 516.774 228.607 517.241 228.607C517.539 228.607 517.881 228.643 518.268 228.715C518.658 228.784 519.034 228.926 519.396 229.144C519.763 229.361 520.067 229.689 520.308 230.128C520.55 230.567 520.67 231.154 520.67 231.891V238H519.246V236.744H519.173C519.077 236.946 518.916 237.161 518.69 237.39C518.465 237.62 518.165 237.815 517.791 237.976C517.416 238.137 516.96 238.217 516.42 238.217ZM516.638 236.938C517.201 236.938 517.676 236.827 518.062 236.605C518.453 236.384 518.746 236.098 518.944 235.748C519.145 235.398 519.246 235.03 519.246 234.643V233.339C519.185 233.412 519.052 233.478 518.847 233.539C518.646 233.595 518.412 233.645 518.147 233.69C517.885 233.73 517.63 233.766 517.38 233.798C517.135 233.826 516.935 233.851 516.782 233.871C516.412 233.919 516.066 233.998 515.744 234.106C515.426 234.211 515.169 234.37 514.971 234.583C514.778 234.792 514.682 235.078 514.682 235.44C514.682 235.935 514.865 236.31 515.231 236.563C515.601 236.813 516.07 236.938 516.638 236.938ZM529.839 230.804L528.559 231.166C528.479 230.953 528.36 230.746 528.203 230.544C528.05 230.339 527.841 230.17 527.575 230.037C527.309 229.904 526.969 229.838 526.555 229.838C525.987 229.838 525.514 229.969 525.136 230.23C524.762 230.488 524.575 230.816 524.575 231.214C524.575 231.569 524.703 231.848 524.961 232.054C525.219 232.259 525.621 232.43 526.168 232.567L527.545 232.905C528.374 233.106 528.992 233.414 529.398 233.828C529.805 234.239 530.008 234.768 530.008 235.416C530.008 235.947 529.855 236.422 529.549 236.841C529.247 237.259 528.825 237.589 528.281 237.831C527.738 238.072 527.106 238.193 526.386 238.193C525.44 238.193 524.657 237.988 524.037 237.577C523.418 237.167 523.025 236.567 522.86 235.778L524.212 235.44C524.341 235.939 524.585 236.314 524.943 236.563C525.305 236.813 525.778 236.938 526.362 236.938C527.026 236.938 527.553 236.797 527.943 236.515C528.338 236.229 528.535 235.887 528.535 235.489C528.535 235.167 528.422 234.897 528.197 234.68C527.971 234.458 527.625 234.293 527.158 234.185L525.613 233.822C524.764 233.621 524.14 233.309 523.742 232.887C523.347 232.46 523.15 231.927 523.15 231.287C523.15 230.764 523.297 230.301 523.591 229.898C523.888 229.496 524.293 229.18 524.804 228.951C525.319 228.721 525.903 228.607 526.555 228.607C527.472 228.607 528.193 228.808 528.716 229.21C529.243 229.613 529.618 230.144 529.839 230.804ZM538.721 230.804L537.441 231.166C537.36 230.953 537.242 230.746 537.085 230.544C536.932 230.339 536.722 230.17 536.457 230.037C536.191 229.904 535.851 229.838 535.437 229.838C534.869 229.838 534.396 229.969 534.018 230.23C533.644 230.488 533.456 230.816 533.456 231.214C533.456 231.569 533.585 231.848 533.843 232.054C534.1 232.259 534.503 232.43 535.05 232.567L536.427 232.905C537.256 233.106 537.874 233.414 538.28 233.828C538.686 234.239 538.89 234.768 538.89 235.416C538.89 235.947 538.737 236.422 538.431 236.841C538.129 237.259 537.706 237.589 537.163 237.831C536.62 238.072 535.988 238.193 535.268 238.193C534.322 238.193 533.539 237.988 532.919 237.577C532.299 237.167 531.907 236.567 531.742 235.778L533.094 235.44C533.223 235.939 533.467 236.314 533.825 236.563C534.187 236.813 534.66 236.938 535.243 236.938C535.907 236.938 536.435 236.797 536.825 236.515C537.22 236.229 537.417 235.887 537.417 235.489C537.417 235.167 537.304 234.897 537.079 234.68C536.853 234.458 536.507 234.293 536.04 234.185L534.495 233.822C533.646 233.621 533.022 233.309 532.623 232.887C532.229 232.46 532.032 231.927 532.032 231.287C532.032 230.764 532.179 230.301 532.472 229.898C532.77 229.496 533.175 229.18 533.686 228.951C534.201 228.721 534.785 228.607 535.437 228.607C536.354 228.607 537.075 228.808 537.598 229.21C538.125 229.613 538.499 230.144 538.721 230.804ZM544.922 238.193C544.029 238.193 543.258 237.996 542.61 237.602C541.966 237.203 541.469 236.648 541.119 235.935C540.773 235.219 540.6 234.386 540.6 233.436C540.6 232.486 540.773 231.649 541.119 230.925C541.469 230.196 541.956 229.629 542.58 229.222C543.208 228.812 543.94 228.607 544.777 228.607C545.26 228.607 545.737 228.687 546.208 228.848C546.679 229.009 547.108 229.271 547.494 229.633C547.88 229.991 548.188 230.466 548.418 231.058C548.647 231.649 548.762 232.378 548.762 233.243V233.847H541.614V232.615H547.313C547.313 232.092 547.208 231.625 546.999 231.214C546.794 230.804 546.5 230.48 546.117 230.243C545.739 230.005 545.292 229.886 544.777 229.886C544.21 229.886 543.719 230.027 543.304 230.309C542.894 230.587 542.578 230.949 542.356 231.396C542.135 231.842 542.024 232.321 542.024 232.832V233.653C542.024 234.354 542.145 234.947 542.387 235.434C542.632 235.917 542.972 236.286 543.407 236.539C543.842 236.789 544.347 236.913 544.922 236.913C545.296 236.913 545.634 236.861 545.936 236.756C546.242 236.648 546.506 236.487 546.727 236.273C546.949 236.056 547.12 235.786 547.24 235.464L548.617 235.851C548.472 236.318 548.228 236.728 547.886 237.082C547.544 237.433 547.122 237.706 546.619 237.903C546.115 238.097 545.55 238.193 544.922 238.193ZM554.962 228.727V229.935H550.156V228.727H554.962ZM551.557 226.506H552.981V235.344C552.981 235.746 553.04 236.048 553.157 236.249C553.277 236.446 553.43 236.579 553.615 236.648C553.804 236.712 554.004 236.744 554.213 236.744C554.37 236.744 554.499 236.736 554.599 236.72C554.7 236.7 554.78 236.684 554.841 236.672L555.131 237.952C555.034 237.988 554.899 238.024 554.726 238.06C554.553 238.101 554.334 238.121 554.068 238.121C553.666 238.121 553.271 238.034 552.885 237.861C552.503 237.688 552.185 237.424 551.931 237.07C551.681 236.716 551.557 236.269 551.557 235.73V226.506ZM561.886 241.477V228.727H563.262V230.2H563.431C563.536 230.039 563.681 229.834 563.866 229.585C564.055 229.331 564.325 229.106 564.675 228.908C565.029 228.707 565.508 228.607 566.112 228.607C566.893 228.607 567.581 228.802 568.176 229.192C568.772 229.583 569.237 230.136 569.571 230.852C569.905 231.569 570.072 232.414 570.072 233.388C570.072 234.37 569.905 235.221 569.571 235.941C569.237 236.658 568.774 237.213 568.182 237.608C567.591 237.998 566.909 238.193 566.136 238.193C565.54 238.193 565.063 238.095 564.705 237.897C564.347 237.696 564.071 237.469 563.878 237.215C563.685 236.958 563.536 236.744 563.431 236.575H563.311V241.477H561.886ZM563.286 233.364C563.286 234.064 563.389 234.682 563.594 235.217C563.8 235.748 564.099 236.165 564.494 236.467C564.888 236.764 565.371 236.913 565.943 236.913C566.538 236.913 567.035 236.756 567.434 236.442C567.836 236.125 568.138 235.698 568.339 235.163C568.545 234.623 568.647 234.024 568.647 233.364C568.647 232.712 568.547 232.124 568.345 231.601C568.148 231.074 567.848 230.657 567.446 230.351C567.047 230.041 566.546 229.886 565.943 229.886C565.363 229.886 564.876 230.033 564.482 230.327C564.087 230.617 563.79 231.023 563.588 231.547C563.387 232.066 563.286 232.671 563.286 233.364ZM574.974 238.217C574.386 238.217 573.853 238.107 573.374 237.885C572.895 237.66 572.515 237.336 572.233 236.913C571.951 236.487 571.811 235.972 571.811 235.368C571.811 234.837 571.915 234.406 572.125 234.076C572.334 233.742 572.614 233.48 572.964 233.291C573.314 233.102 573.7 232.961 574.123 232.869C574.549 232.772 574.978 232.696 575.409 232.639C575.972 232.567 576.429 232.512 576.779 232.476C577.133 232.436 577.391 232.37 577.552 232.277C577.717 232.184 577.799 232.023 577.799 231.794V231.746C577.799 231.15 577.636 230.687 577.31 230.357C576.988 230.027 576.499 229.862 575.843 229.862C575.163 229.862 574.63 230.011 574.244 230.309C573.857 230.607 573.585 230.925 573.429 231.263L572.076 230.78C572.318 230.216 572.64 229.778 573.042 229.464C573.449 229.146 573.891 228.924 574.37 228.8C574.853 228.671 575.328 228.607 575.795 228.607C576.093 228.607 576.435 228.643 576.821 228.715C577.212 228.784 577.588 228.926 577.95 229.144C578.316 229.361 578.62 229.689 578.862 230.128C579.103 230.567 579.224 231.154 579.224 231.891V238H577.799V236.744H577.727C577.63 236.946 577.469 237.161 577.244 237.39C577.018 237.62 576.719 237.815 576.344 237.976C575.97 238.137 575.513 238.217 574.974 238.217ZM575.191 236.938C575.755 236.938 576.23 236.827 576.616 236.605C577.006 236.384 577.3 236.098 577.497 235.748C577.699 235.398 577.799 235.03 577.799 234.643V233.339C577.739 233.412 577.606 233.478 577.401 233.539C577.2 233.595 576.966 233.645 576.701 233.69C576.439 233.73 576.183 233.766 575.934 233.798C575.688 233.826 575.489 233.851 575.336 233.871C574.966 233.919 574.62 233.998 574.298 234.106C573.98 234.211 573.722 234.37 573.525 234.583C573.332 234.792 573.235 235.078 573.235 235.44C573.235 235.935 573.418 236.31 573.785 236.563C574.155 236.813 574.624 236.938 575.191 236.938ZM581.824 238V228.727H583.249V238H581.824ZM582.549 227.182C582.271 227.182 582.032 227.087 581.83 226.898C581.633 226.709 581.535 226.482 581.535 226.216C581.535 225.95 581.633 225.723 581.83 225.534C582.032 225.345 582.271 225.25 582.549 225.25C582.827 225.25 583.064 225.345 583.261 225.534C583.462 225.723 583.563 225.95 583.563 226.216C583.563 226.482 583.462 226.709 583.261 226.898C583.064 227.087 582.827 227.182 582.549 227.182ZM585.859 238V228.727H587.235V230.128H587.332C587.501 229.669 587.806 229.297 588.249 229.011C588.692 228.725 589.191 228.582 589.746 228.582C589.851 228.582 589.982 228.584 590.139 228.588C590.296 228.592 590.414 228.598 590.495 228.607V230.055C590.447 230.043 590.336 230.025 590.163 230.001C589.994 229.973 589.815 229.959 589.626 229.959C589.175 229.959 588.772 230.053 588.418 230.243C588.068 230.428 587.79 230.685 587.585 231.015C587.384 231.341 587.283 231.714 587.283 232.132V238H585.859ZM598.752 230.804L597.472 231.166C597.392 230.953 597.273 230.746 597.116 230.544C596.963 230.339 596.754 230.17 596.488 230.037C596.222 229.904 595.882 229.838 595.468 229.838C594.9 229.838 594.427 229.969 594.049 230.23C593.675 230.488 593.488 230.816 593.488 231.214C593.488 231.569 593.617 231.848 593.874 232.054C594.132 232.259 594.534 232.43 595.081 232.567L596.458 232.905C597.287 233.106 597.905 233.414 598.311 233.828C598.718 234.239 598.921 234.768 598.921 235.416C598.921 235.947 598.768 236.422 598.462 236.841C598.16 237.259 597.738 237.589 597.194 237.831C596.651 238.072 596.019 238.193 595.299 238.193C594.353 238.193 593.57 237.988 592.95 237.577C592.331 237.167 591.938 236.567 591.773 235.778L593.126 235.44C593.254 235.939 593.498 236.314 593.856 236.563C594.218 236.813 594.691 236.938 595.275 236.938C595.939 236.938 596.466 236.797 596.856 236.515C597.251 236.229 597.448 235.887 597.448 235.489C597.448 235.167 597.335 234.897 597.11 234.68C596.885 234.458 596.538 234.293 596.072 234.185L594.526 233.822C593.677 233.621 593.053 233.309 592.655 232.887C592.26 232.46 592.063 231.927 592.063 231.287C592.063 230.764 592.21 230.301 592.504 229.898C592.802 229.496 593.206 229.18 593.717 228.951C594.232 228.721 594.816 228.607 595.468 228.607C596.385 228.607 597.106 228.808 597.629 229.21C598.156 229.613 598.531 230.144 598.752 230.804Z"
        fill="#E5E5E5" />
    <rect opacity="0.3" x="351" width="2" height="400" fill="url(#paint0_linear_0_369)" />
    <rect opacity="0.3" x="704" width="2" height="400" fill="url(#paint1_linear_0_369)" />
    <rect opacity="0.3" y="93" width="1052" height="2" fill="url(#paint2_linear_0_369)" />
    <rect opacity="0.3" y="310" width="1052" height="2" fill="url(#paint3_linear_0_369)" />
    <defs>
        <linearGradient id="paint0_linear_0_369" x1="351" y1="0" x2="355" y2="0.0199995" gradientUnits="userSpaceOnUse">
            <stop stop-color="#665DCD" stop-opacity="0.5" />
            <stop offset="0.4476" stop-color="#5FA4E6" />
            <stop offset="1" stop-color="#D2AB67" stop-opacity="0.5" />
        </linearGradient>
        <linearGradient id="paint1_linear_0_369" x1="704" y1="0" x2="708" y2="0.0199995" gradientUnits="userSpaceOnUse">
            <stop stop-color="#665DCD" stop-opacity="0.5" />
            <stop offset="0.4476" stop-color="#5FA4E6" />
            <stop offset="1" stop-color="#D2AB67" stop-opacity="0.5" />
        </linearGradient>
        <linearGradient id="paint2_linear_0_369" x1="0" y1="93" x2="0.00760454" y2="97" gradientUnits="userSpaceOnUse">
            <stop stop-color="#665DCD" stop-opacity="0.5" />
            <stop offset="0.4476" stop-color="#5FA4E6" />
            <stop offset="1" stop-color="#D2AB67" stop-opacity="0.5" />
        </linearGradient>
        <linearGradient id="paint3_linear_0_369" x1="0" y1="310" x2="0.00760454" y2="314"
            gradientUnits="userSpaceOnUse">
            <stop stop-color="#665DCD" stop-opacity="0.5" />
            <stop offset="0.4476" stop-color="#5FA4E6" />
            <stop offset="1" stop-color="#D2AB67" stop-opacity="0.5" />
        </linearGradient>
    </defs>
</svg>