<svg width="20" height="20" viewBox="0 0 20 20" fill="none" xmlns="http://www.w3.org/2000/svg">
    <path fill-rule="evenodd" clip-rule="evenodd"
        d="M10.0003 1.04175C7.8142 1.04175 6.04199 2.81395 6.04199 5.00008C6.04199 7.18621 7.8142 8.95842 10.0003 8.95842C12.1865 8.95842 13.9587 7.18621 13.9587 5.00008C13.9587 2.81395 12.1865 1.04175 10.0003 1.04175ZM7.29199 5.00008C7.29199 3.50431 8.50455 2.29175 10.0003 2.29175C11.4961 2.29175 12.7087 3.50431 12.7087 5.00008C12.7087 6.49585 11.4961 7.70842 10.0003 7.70842C8.50455 7.70842 7.29199 6.49585 7.29199 5.00008Z"
        fill="white" />
    <path fill-rule="evenodd" clip-rule="evenodd"
        d="M10.0003 10.2084C8.30088 10.2084 6.73159 10.6007 5.56545 11.2671C4.41699 11.9233 3.54199 12.9252 3.54199 14.1667C3.54199 15.4083 4.41699 16.4102 5.56545 17.0664C6.73159 17.7328 8.30088 18.1251 10.0003 18.1251C11.6998 18.1251 13.2691 17.7328 14.4352 17.0664C15.5837 16.4102 16.4587 15.4083 16.4587 14.1667C16.4587 12.9252 15.5837 11.9233 14.4352 11.2671C13.2691 10.6007 11.6998 10.2084 10.0003 10.2084ZM4.79199 14.1667C4.79199 13.5674 5.22283 12.9025 6.18562 12.3524C7.13073 11.8123 8.47811 11.4584 10.0003 11.4584C11.5225 11.4584 12.8699 11.8123 13.815 12.3524C14.7778 12.9025 15.2087 13.5674 15.2087 14.1667C15.2087 14.7661 14.7778 15.431 13.815 15.9811C12.8699 16.5212 11.5225 16.8751 10.0003 16.8751C8.47811 16.8751 7.13073 16.5212 6.18562 15.9811C5.22283 15.431 4.79199 14.7661 4.79199 14.1667Z"
        fill="white" />
</svg>