<svg width="18" height="18" viewBox="0 0 18 18" fill="none" xmlns="http://www.w3.org/2000/svg">
    <path fill-rule="evenodd" clip-rule="evenodd"
        d="M8.58334 1.29175C4.55626 1.29175 1.29167 4.55634 1.29167 8.58341C1.29167 12.6105 4.55626 15.8751 8.58334 15.8751C12.6104 15.8751 15.875 12.6105 15.875 8.58341C15.875 4.55634 12.6104 1.29175 8.58334 1.29175ZM0.0416718 8.58341C0.0416718 3.86598 3.86591 0.041748 8.58334 0.041748C13.3008 0.041748 17.125 3.86598 17.125 8.58341C17.125 13.3008 13.3008 17.1251 8.58334 17.1251C3.86591 17.1251 0.0416718 13.3008 0.0416718 8.58341ZM15.2247 15.2248C15.4688 14.9807 15.8645 14.9807 16.1086 15.2248L17.7753 16.8915C18.0194 17.1356 18.0194 17.5313 17.7753 17.7754C17.5312 18.0194 17.1355 18.0194 16.8914 17.7754L15.2247 16.1087C14.9807 15.8646 14.9807 15.4689 15.2247 15.2248Z"
        fill="white" />
</svg>