<svg width="101" height="34" viewBox="0 0 101 34" fill="none" xmlns="http://www.w3.org/2000/svg">
<g opacity="0.6">
<g clip-path="url(#clip0_0_300)">
<mask id="mask0_0_300" style="mask-type:luminance" maskUnits="userSpaceOnUse" x="0" y="0" width="100" height="30">
<path d="M0.24707 0.952637H99.2471V29.2336H0.24707V0.952637Z" fill="white"/>
</mask>
<g mask="url(#mask0_0_300)">
<path d="M34.4955 16.6806C33.6525 16.2146 33.2085 15.8376 33.2085 15.3046C33.2085 14.6176 33.8085 14.1956 34.7615 14.1956C35.8715 14.1956 36.8465 14.6616 36.8465 14.6616L37.6235 12.2886C37.6235 12.2886 36.9135 11.7336 34.8055 11.7336C31.8775 11.7336 29.8375 13.4196 29.8375 15.7706C29.8375 17.1016 30.7915 18.1216 32.0555 18.8536C33.0755 19.4306 33.4305 19.8526 33.4305 20.4516C33.4305 21.0946 32.9205 21.6046 31.9665 21.6046C30.5465 21.6046 29.2165 20.8726 29.2165 20.8726L28.3955 23.2466C28.3955 23.2466 29.6375 24.0666 31.7005 24.0666C34.7175 24.0666 36.8685 22.5806 36.8685 19.9186C36.9135 18.4546 35.8045 17.4346 34.4955 16.6806ZM46.5175 11.6896C45.0325 11.6896 43.8785 12.3996 42.9695 13.4636L42.9245 13.4416L44.2115 6.6986H40.8395L37.5795 23.8456H40.9285L42.0375 17.9896C42.4815 15.7706 43.6125 14.4176 44.6775 14.4176C45.4315 14.4176 45.7195 14.9276 45.7195 15.6596C45.7195 16.1256 45.6755 16.6796 45.5645 17.1466L44.3005 23.8666H47.6505L48.9585 16.9466C49.1092 16.224 49.1909 15.4887 49.2025 14.7506C49.2465 12.8206 48.2695 11.6896 46.5175 11.6896ZM56.8335 11.6886C52.7965 11.6886 50.1125 15.3266 50.1125 19.3866C50.1125 21.9816 51.7095 24.0886 54.7265 24.0886C58.6965 24.0886 61.3585 20.5396 61.3585 16.3916C61.3805 13.9736 59.9835 11.6886 56.8335 11.6886ZM55.1915 21.4936C54.0385 21.4936 53.5725 20.5176 53.5725 19.2976C53.5725 17.3676 54.5705 14.2396 56.3895 14.2396C57.5875 14.2396 57.9645 15.2596 57.9645 16.2586C57.9645 18.3436 56.9665 21.4936 55.1915 21.4936ZM69.9635 11.6886C67.7015 11.6886 66.4145 13.6856 66.4145 13.6856H66.3705L66.5705 11.8886H63.5975C63.409 13.381 63.1796 14.8678 62.9095 16.3476L60.5805 28.5916H63.9305L64.8615 23.6236H64.9285C64.9285 23.6236 65.6165 24.0666 66.9025 24.0666C70.8515 24.0666 73.4245 20.0296 73.4245 15.9486C73.4245 13.7086 72.4255 11.6886 69.9635 11.6886ZM66.7695 21.5606C65.9045 21.5606 65.3945 21.0726 65.3945 21.0726L65.9495 17.9446C66.3485 15.8596 67.4355 14.4616 68.5895 14.4616C69.6095 14.4616 69.9195 15.4156 69.9195 16.3026C69.9195 18.4546 68.6325 21.5606 66.7695 21.5606ZM78.2175 6.8756C77.1535 6.8756 76.2875 7.7186 76.2875 8.8276C76.2875 9.8256 76.9085 10.5136 77.8625 10.5136H77.9075C78.9495 10.5136 79.8595 9.8036 79.8815 8.5616C79.9035 7.5636 79.2385 6.8756 78.2175 6.8756ZM73.5145 23.8446H76.8865L79.1705 11.9546H75.7775L73.5145 23.8446ZM87.6885 11.9336H85.3595L85.4695 11.3786C85.6695 10.2246 86.3355 9.2046 87.4665 9.2046C88.0665 9.2046 88.5315 9.3816 88.5315 9.3816L89.1975 6.7646C89.1975 6.7646 88.6205 6.4766 87.3775 6.4766C86.1805 6.4766 85.0045 6.8086 84.0955 7.5856C82.9415 8.5616 82.4095 9.9586 82.1435 11.3786L82.0535 11.9326H80.5015L80.0135 14.4626H81.5665L79.7915 23.8446H83.1415L84.9155 14.4616H87.2225L87.6885 11.9326V11.9336ZM95.7645 11.9556C95.7645 11.9556 93.6565 17.2346 92.7245 20.1186H92.6805C92.6145 19.1866 91.8605 11.9556 91.8605 11.9556H88.3335L90.3515 22.8686C90.3965 23.1126 90.3735 23.2686 90.2855 23.4236C89.8467 24.2308 89.223 24.9227 88.4655 25.4426C87.8455 25.9076 87.1355 26.1966 86.5805 26.3956L87.5125 29.2356C88.2005 29.0796 89.5975 28.5256 90.7955 27.4156C92.3255 25.9746 93.7455 23.7786 95.1875 20.7616L99.2915 11.9556H95.7645ZM16.8395 4.2356C16.8395 4.2356 16.5295 4.3236 16.0185 4.4796C15.9118 4.14398 15.778 3.81757 15.6185 3.5036C15.0435 2.3936 14.1775 1.7936 13.1575 1.7936C13.0915 1.7936 13.0245 1.7936 12.9365 1.8166C12.9135 1.7716 12.8695 1.7496 12.8465 1.7056C12.4035 1.2176 11.8265 0.995599 11.1395 1.0176C9.80848 1.0616 8.47748 2.0156 7.41248 3.7236C6.65848 4.9216 6.08248 6.4306 5.92648 7.6056C4.39648 8.0716 3.33148 8.4046 3.30848 8.4266C2.53248 8.6706 2.51048 8.6926 2.42148 9.4246C2.35448 9.9806 0.313477 25.5966 0.313477 25.5966L17.0835 28.5026V4.2136C16.9495 4.2136 16.8835 4.2356 16.8395 4.2356ZM12.9575 5.4326C12.0695 5.6996 11.0935 6.0096 10.1405 6.2976C10.4065 5.2556 10.9385 4.2126 11.5605 3.5256C11.8035 3.2816 12.1365 2.9926 12.5135 2.8156C12.8905 3.6136 12.9795 4.7006 12.9575 5.4326ZM11.1375 1.9286C11.4485 1.9286 11.7155 1.9946 11.9375 2.1286C11.5815 2.3056 11.2275 2.5936 10.8945 2.9266C10.0515 3.8366 9.40848 5.2556 9.14148 6.6086C8.34348 6.8526 7.54448 7.0966 6.81248 7.3186C7.30048 5.1886 9.09748 1.9726 11.1385 1.9286H11.1375ZM8.56548 14.1286C8.65348 15.5486 12.4025 15.8586 12.6245 19.2086C12.7795 21.8486 11.2275 23.6446 8.98648 23.7786C6.28048 23.9556 4.79448 22.3586 4.79448 22.3586L5.37048 19.9186C5.37048 19.9186 6.85748 21.0486 8.05448 20.9606C8.83148 20.9166 9.11948 20.2726 9.09748 19.8296C8.98648 17.9656 5.92548 18.0766 5.72548 15.0156C5.54848 12.4426 7.23448 9.8476 10.9605 9.6036C12.4025 9.5136 13.1345 9.8696 13.1345 9.8696L12.2915 13.0636C12.2915 13.0636 11.3375 12.6196 10.2065 12.7086C8.56548 12.8196 8.54248 13.8626 8.56548 14.1286ZM13.8445 5.1666C13.8445 4.5016 13.7555 3.5466 13.4445 2.7486C14.4655 2.9486 14.9545 4.0796 15.1745 4.7676C14.7765 4.8776 14.3325 5.0106 13.8445 5.1666ZM17.5925 28.4586L24.5575 26.7286C24.5575 26.7286 21.5635 6.4746 21.5405 6.3416C21.5321 6.28193 21.5032 6.22706 21.4586 6.18651C21.414 6.14596 21.3567 6.12229 21.2965 6.1196C21.1865 6.1196 19.2335 6.0756 19.2335 6.0756C19.2335 6.0756 18.0365 4.9216 17.5925 4.4786V28.4586Z" fill="white"/>
</g>
</g>
</g>
<defs>
<clipPath id="clip0_0_300">
<rect width="100" height="30" fill="white" transform="translate(0.1875 0.09375)"/>
</clipPath>
</defs>
</svg>
