<svg width="17" height="17" viewBox="0 0 17 17" fill="none" xmlns="http://www.w3.org/2000/svg">
<path d="M8.31536 14.1017C8.41405 14.1012 8.51162 14.0808 8.60219 14.0416C8.69276 14.0024 8.77446 13.9453 8.84236 13.8737L13.0124 9.70369C13.1714 9.53769 13.2414 9.36669 13.2414 9.18869C13.2414 8.78269 12.9554 8.49069 12.5684 8.49069C12.3654 8.49069 12.1934 8.57269 12.0664 8.70069L10.6194 10.1277L8.93736 11.9687L9.02636 10.4967V2.80269C9.02636 2.37769 8.73436 2.08569 8.31536 2.08569C7.90236 2.08569 7.61036 2.37769 7.61036 2.80269L7.61036 10.4967L7.70036 11.9687L6.01736 10.1287L4.57036 8.69969C4.50498 8.63291 4.42686 8.57991 4.34064 8.54384C4.25441 8.50777 4.16183 8.48936 4.06836 8.48969C3.68136 8.48969 3.39536 8.78269 3.39536 9.18869C3.39536 9.36669 3.46536 9.53869 3.61136 9.68969L7.79436 13.8737C7.86134 13.9446 7.94189 14.0013 8.03122 14.0405C8.12055 14.0796 8.21783 14.1005 8.31536 14.1017Z" fill="white" fill-opacity="0.4"/>
</svg>
