<svg width="15" height="15" viewBox="0 0 15 15" fill="none" xmlns="http://www.w3.org/2000/svg">
<path d="M12.8195 7.48701C12.8191 7.40066 12.8012 7.31529 12.7669 7.23604C12.7326 7.15679 12.6826 7.0853 12.62 7.02588L8.97123 3.37713C8.82598 3.23801 8.67636 3.17676 8.52061 3.17676C8.16536 3.17676 7.90986 3.42701 7.90986 3.76563C7.90986 3.94326 7.98161 4.09376 8.09361 4.20488L9.34223 5.47101L10.9531 6.94276L9.66511 6.86488H2.93286C2.56098 6.86488 2.30548 7.12038 2.30548 7.48701C2.30548 7.84838 2.56098 8.10388 2.93286 8.10388H9.66511L10.9531 8.02513L9.34311 9.49776L8.09273 10.7639C8.03429 10.8211 7.98792 10.8894 7.95636 10.9649C7.9248 11.0403 7.90869 11.1214 7.90898 11.2031C7.90898 11.5418 8.16536 11.792 8.52061 11.792C8.67636 11.792 8.82686 11.7308 8.95898 11.603L12.62 7.94288C12.682 7.88427 12.7316 7.8138 12.7659 7.73563C12.8002 7.65747 12.8184 7.57235 12.8195 7.48701Z" fill="white"/>
</svg>
