<svg width="18" height="18" viewBox="0 0 18 18" fill="none" xmlns="http://www.w3.org/2000/svg">
<path d="M7.25122 5.83917C8.02574 4.44976 8.413 3.75506 8.99197 3.75506C9.57095 3.75506 9.95821 4.44976 10.7327 5.83917L10.9331 6.19863C11.1532 6.59345 11.2632 6.79087 11.4348 6.92112C11.6064 7.05138 11.8201 7.09973 12.2475 7.19643L12.6366 7.28447C14.1406 7.62477 14.8926 7.79492 15.0715 8.37026C15.2505 8.94559 14.7378 9.54509 13.7125 10.7441L13.4472 11.0543C13.1558 11.395 13.0101 11.5654 12.9446 11.7761C12.8791 11.9869 12.9011 12.2142 12.9451 12.6688L12.9852 13.0826C13.1403 14.6824 13.2178 15.4822 12.7494 15.8378C12.281 16.1934 11.5768 15.8692 10.1686 15.2208L9.80432 15.0531C9.40415 14.8688 9.20406 14.7767 8.99197 14.7767C8.77988 14.7767 8.5798 14.8688 8.17963 15.0531L7.81531 15.2208C6.4071 15.8692 5.70299 16.1934 5.23459 15.8378C4.76619 15.4822 4.8437 14.6824 4.99872 13.0826L5.03882 12.6688C5.08287 12.2142 5.1049 11.9869 5.03936 11.7761C4.97382 11.5654 4.82813 11.395 4.53676 11.0543L4.2715 10.7441C3.24616 9.5451 2.73349 8.94559 2.9124 8.37026C3.09131 7.79492 3.84332 7.62477 5.34734 7.28447L5.73645 7.19643C6.16384 7.09973 6.37754 7.05138 6.54912 6.92112C6.72071 6.79087 6.83075 6.59345 7.05085 6.19863L7.25122 5.83917Z" fill="#FFB31F"/>
<path d="M3.50122 1.9569C3.52279 1.8808 3.65787 1.88034 3.67995 1.95629C3.78081 2.30311 3.96783 2.81575 4.25064 3.09665C4.53344 3.37755 5.04733 3.5611 5.39482 3.65961C5.47092 3.68119 5.47138 3.81626 5.39543 3.83835C5.04861 3.93921 4.53597 4.12623 4.25507 4.40903C3.97417 4.69183 3.79062 5.20573 3.6921 5.55322C3.67053 5.62931 3.53546 5.62977 3.51337 5.55382C3.41251 5.207 3.22549 4.69436 2.94269 4.41346C2.65988 4.13256 2.14599 3.94901 1.7985 3.8505C1.7224 3.82893 1.72195 3.69385 1.7979 3.67176C2.14472 3.57091 2.65735 3.38389 2.93825 3.10108C3.21916 2.81828 3.40271 2.30439 3.50122 1.9569Z" fill="#FFB31F"/>
<path fill-rule="evenodd" clip-rule="evenodd" d="M13.6679 2.49615C13.9659 2.49615 14.2074 2.73771 14.2074 3.03568V3.21553H14.3873C14.6853 3.21553 14.9268 3.45708 14.9268 3.75506C14.9268 4.05303 14.6853 4.29459 14.3873 4.29459H14.2074V4.47443C14.2074 4.77241 13.9659 5.01396 13.6679 5.01396C13.3699 5.01396 13.1284 4.77241 13.1284 4.47443V4.29459H12.9485C12.6506 4.29459 12.409 4.05303 12.409 3.75506C12.409 3.45708 12.6506 3.21553 12.9485 3.21553H13.1284V3.03568C13.1284 2.73771 13.3699 2.49615 13.6679 2.49615Z" fill="#FFB31F"/>
</svg>
