<svg width="130" height="101" viewBox="0 0 130 101" fill="none" xmlns="http://www.w3.org/2000/svg">
    <g clip-path="url(#clip0_0_445)">
        <path
            d="M89.5 40.7561C89.5 24.1876 76.0685 10.7561 59.5 10.7561C42.9315 10.7561 29.5 24.1876 29.5 40.7561H89.5Z"
            fill="#63EC9A" />
        <path
            d="M35.0001 62.7558C34.9602 79.3242 48.3593 92.788 64.9278 92.8279C81.4962 92.8678 94.96 79.4687 94.9999 62.9002L35.0001 62.7558Z"
            fill="#63EC9A" />
        <path
            d="M64.5 40.8281C70.5709 40.8281 75.5 45.7572 75.5 51.8281C75.5 57.899 70.5709 62.8281 64.5 62.8281C58.4291 62.8281 53.5 57.899 53.5 51.8281C53.5 45.7572 58.4291 40.8281 64.5 40.8281Z"
            fill="#FFD526" />
    </g>
    <defs>
        <clipPath id="clip0_0_445">
            <rect width="130" height="100" fill="white" transform="translate(0 0.828125)" />
        </clipPath>
    </defs>
</svg>