<svg width="132" height="28" viewBox="0 0 132 28" fill="none" xmlns="http://www.w3.org/2000/svg">
<g opacity="0.6">
<g clip-path="url(#clip0_0_280)">
<mask id="mask0_0_280" style="mask-type:luminance" maskUnits="userSpaceOnUse" x="1" y="0" width="131" height="25">
<path d="M1.42877 0.09375H131.429V24.0938H1.42877V0.09375Z" fill="white"/>
</mask>
<g mask="url(#mask0_0_280)">
<path opacity="0.2" d="M5.08226 6.6677C5.85152 6.6677 6.58928 6.36211 7.13323 5.81816C7.67718 5.27421 7.98276 4.53646 7.98276 3.7672C7.98276 2.99794 7.67718 2.26019 7.13323 1.71624C6.58928 1.17229 5.85152 0.866699 5.08226 0.866699C4.313 0.866699 3.57525 1.17229 3.0313 1.71624C2.48735 2.26019 2.18176 2.99794 2.18176 3.7672C2.18176 4.53646 2.48735 5.27421 3.0313 5.81816C3.57525 6.36211 4.313 6.6677 5.08226 6.6677Z" fill="white"/>
<path d="M5.08179 15.3166C5.46275 15.3166 5.83999 15.2416 6.19195 15.0958C6.54392 14.95 6.86372 14.7363 7.1331 14.467C7.40249 14.1976 7.61617 13.8778 7.76196 13.5258C7.90775 13.1738 7.98279 12.7966 7.98279 12.4156C7.98279 12.0347 7.90775 11.6574 7.76196 11.3055C7.61617 10.9535 7.40249 10.6337 7.1331 10.3643C6.86372 10.0949 6.54392 9.88126 6.19195 9.73547C5.83999 9.58969 5.46275 9.51465 5.08179 9.51465C4.31239 9.51465 3.57451 9.82029 3.03047 10.3643C2.48643 10.9084 2.18079 11.6463 2.18079 12.4156C2.18079 13.185 2.48643 13.9229 3.03047 14.467C3.57451 15.011 4.31239 15.3166 5.08179 15.3166Z" fill="white"/>
<path opacity="0.2" d="M5.08226 24.1267C5.85152 24.1267 6.58928 23.8211 7.13323 23.2771C7.67718 22.7332 7.98276 21.9954 7.98276 21.2262C7.98276 20.4569 7.67718 19.7192 7.13323 19.1752C6.58928 18.6313 5.85152 18.3257 5.08226 18.3257C4.313 18.3257 3.57525 18.6313 3.0313 19.1752C2.48735 19.7192 2.18176 20.4569 2.18176 21.2262C2.18176 21.9954 2.48735 22.7332 3.0313 23.2771C3.57525 23.8211 4.313 24.1267 5.08226 24.1267Z" fill="white"/>
<path d="M13.7838 15.3166C14.1648 15.3166 14.542 15.2416 14.894 15.0958C15.2459 14.95 15.5657 14.7363 15.8351 14.467C16.1045 14.1976 16.3182 13.8778 16.464 13.5258C16.6098 13.1738 16.6848 12.7966 16.6848 12.4156C16.6848 12.0347 16.6098 11.6574 16.464 11.3055C16.3182 10.9535 16.1045 10.6337 15.8351 10.3643C15.5657 10.0949 15.2459 9.88126 14.894 9.73547C14.542 9.58969 14.1648 9.51465 13.7838 9.51465C13.0144 9.51465 12.2765 9.82029 11.7325 10.3643C11.1885 10.9084 10.8828 11.6463 10.8828 12.4156C10.8828 13.185 11.1885 13.9229 11.7325 14.467C12.2765 15.011 13.0144 15.3166 13.7838 15.3166ZM13.7838 24.1266C14.5531 24.1266 15.2908 23.8211 15.8348 23.2771C16.3787 22.7332 16.6843 21.9954 16.6843 21.2261C16.6843 20.4569 16.3787 19.7191 15.8348 19.1752C15.2908 18.6312 14.5531 18.3256 13.7838 18.3256C13.0146 18.3256 12.2768 18.6312 11.7328 19.1752C11.1889 19.7191 10.8833 20.4569 10.8833 21.2261C10.8833 21.9954 11.1889 22.7332 11.7328 23.2771C12.2768 23.8211 13.0146 24.1266 13.7838 24.1266Z" fill="white"/>
<path opacity="0.2" d="M13.7834 6.6677C14.5527 6.6677 15.2904 6.36211 15.8344 5.81816C16.3783 5.27421 16.6839 4.53646 16.6839 3.7672C16.6839 2.99794 16.3783 2.26019 15.8344 1.71624C15.2904 1.17229 14.5527 0.866699 13.7834 0.866699C13.0142 0.866699 12.2764 1.17229 11.7325 1.71624C11.1885 2.26019 10.8829 2.99794 10.8829 3.7672C10.8829 4.53646 11.1885 5.27421 11.7325 5.81816C12.2764 6.36211 13.0142 6.6677 13.7834 6.6677ZM22.3784 6.6677C23.1477 6.6677 23.8854 6.36211 24.4294 5.81816C24.9733 5.27421 25.2789 4.53646 25.2789 3.7672C25.2789 2.99794 24.9733 2.26019 24.4294 1.71624C23.8854 1.17229 23.1477 0.866699 22.3784 0.866699C21.6092 0.866699 20.8714 1.17229 20.3275 1.71624C19.7835 2.26019 19.4779 2.99794 19.4779 3.7672C19.4779 4.53646 19.7835 5.27421 20.3275 5.81816C20.8714 6.36211 21.6092 6.6677 22.3784 6.6677Z" fill="white"/>
<path d="M22.3788 15.3166C22.7597 15.3166 23.137 15.2416 23.4889 15.0958C23.8409 14.95 24.1607 14.7363 24.4301 14.467C24.6995 14.1976 24.9132 13.8778 25.059 13.5258C25.2047 13.1738 25.2798 12.7966 25.2798 12.4156C25.2798 12.0347 25.2047 11.6574 25.059 11.3055C24.9132 10.9535 24.6995 10.6337 24.4301 10.3643C24.1607 10.0949 23.8409 9.88126 23.4889 9.73547C23.137 9.58969 22.7597 9.51465 22.3788 9.51465C21.6094 9.51465 20.8715 9.82029 20.3275 10.3643C19.7834 10.9084 19.4778 11.6463 19.4778 12.4156C19.4778 13.185 19.7834 13.9229 20.3275 14.467C20.8715 15.011 21.6094 15.3166 22.3788 15.3166Z" fill="white"/>
<path opacity="0.2" d="M22.3791 24.1267C23.1484 24.1267 23.8862 23.8211 24.4301 23.2771C24.974 22.7332 25.2796 21.9954 25.2796 21.2262C25.2796 20.4569 24.974 19.7192 24.4301 19.1752C23.8862 18.6313 23.1484 18.3257 22.3791 18.3257C21.6099 18.3257 20.8721 18.6313 20.3282 19.1752C19.7842 19.7192 19.4786 20.4569 19.4786 21.2262C19.4786 21.9954 19.7842 22.7332 20.3282 23.2771C20.8721 23.8211 21.6099 24.1267 22.3791 24.1267Z" fill="white"/>
<path d="M42.6988 21.8696C43.5188 21.8696 44.1858 21.7926 44.9788 21.6396V18.6676C44.4928 18.8476 43.9548 18.8976 43.4428 18.8976C42.1878 18.8976 41.7268 18.2836 41.7268 17.1046V11.0596H44.9798V8.0886H41.7258V3.6826H38.1398V8.0886H35.8098V11.0596H38.1398V17.4376C38.1398 20.2556 39.6248 21.8696 42.6988 21.8696ZM50.8358 21.8696C52.7568 21.8696 54.0378 21.2296 54.6788 20.2296C54.7288 20.6656 54.8828 21.2546 55.0888 21.6136H58.3158C58.1358 20.9986 58.0078 20.0256 58.0078 19.3846V12.3666C58.0078 9.4716 55.9338 7.8326 52.4238 7.8326C49.7598 7.8326 47.6858 8.8316 46.5328 10.2916L48.5828 12.3146C49.5038 11.2906 50.6828 10.7526 52.1168 10.7526C53.8588 10.7526 54.6268 11.3416 54.6268 12.2126C54.6268 12.9556 54.1148 13.4676 51.3478 13.4676C48.6848 13.4676 45.9948 14.5696 45.9948 17.6426C45.9948 20.4866 48.0448 21.8696 50.8358 21.8696ZM51.5528 19.1546C50.1698 19.1546 49.5298 18.5646 49.5298 17.5146C49.5298 16.5926 50.2978 15.9776 51.5798 15.9776C53.6278 15.9776 54.1918 15.8496 54.6268 15.4146V16.5156C54.6268 17.9756 53.3968 19.1546 51.5528 19.1546ZM60.3388 6.3726H64.0788V3.0166H60.3388V6.3736V6.3726ZM60.4158 21.6126H64.0028V8.0896H60.4158V21.6136V21.6126ZM66.6148 21.6136H70.2008V3.4266H66.6148V21.6136ZM77.6548 21.8696C81.5998 21.8696 83.6228 19.7946 83.6228 17.6176C83.6228 15.6446 82.6238 14.1846 79.3458 13.5956C77.0398 13.1856 75.6058 12.6736 75.6058 11.8796C75.6058 11.1876 76.4258 10.7016 77.8088 10.7016C79.0388 10.7016 80.0628 11.1116 80.8308 12.0076L83.1108 10.0866C81.9578 8.6516 80.0628 7.8326 77.8088 7.8326C74.3508 7.8326 72.1988 9.6766 72.1988 11.9306C72.1988 14.3906 74.4528 15.4906 76.8868 15.9266C78.9098 16.2856 80.0368 16.6696 80.0368 17.5406C80.0368 18.2836 79.2428 18.8986 77.7318 18.8986C76.2458 18.8986 75.0928 18.2066 74.5548 17.1816L71.5328 18.6166C72.2758 20.4606 74.8118 21.8696 77.6548 21.8696ZM91.6408 21.8696C94.2028 21.8696 96.0468 20.8446 97.4308 18.5396L94.5608 17.0796C94.0228 18.1556 93.1518 18.8986 91.6408 18.8986C89.3608 18.8986 88.1308 17.0536 88.1308 14.8256C88.1308 12.5966 89.4378 10.8036 91.6408 10.8036C93.0238 10.8036 93.9468 11.5466 94.4838 12.6736L97.3788 11.1366C96.4048 9.0106 94.4838 7.8326 91.6408 7.8326C86.9538 7.8326 84.5458 11.2646 84.5458 14.8256C84.5458 18.6936 87.4658 21.8696 91.6408 21.8696ZM103.142 21.8696C105.063 21.8696 106.344 21.2296 106.985 20.2296C107.036 20.6656 107.19 21.2546 107.394 21.6136H110.622C110.443 20.9986 110.315 20.0256 110.315 19.3846V12.3666C110.315 9.4716 108.24 7.8326 104.731 7.8326C102.067 7.8326 99.9908 8.8316 98.8388 10.2916L100.889 12.3146C101.81 11.2906 102.989 10.7526 104.423 10.7526C106.165 10.7526 106.933 11.3416 106.933 12.2126C106.933 12.9556 106.421 13.4676 103.655 13.4676C100.991 13.4676 98.3008 14.5696 98.3008 17.6426C98.3008 20.4866 100.351 21.8696 103.142 21.8696ZM103.86 19.1546C102.476 19.1546 101.836 18.5646 101.836 17.5146C101.836 16.5926 102.604 15.9776 103.885 15.9776C105.934 15.9776 106.498 15.8496 106.933 15.4146V16.5156C106.933 17.9756 105.704 19.1546 103.86 19.1546ZM112.422 21.6136H116.008V3.4266H112.422V21.6136ZM124.615 21.8696C127.254 21.8696 129.38 20.8196 130.557 18.9496L127.842 17.2076C127.126 18.3346 126.177 18.9496 124.615 18.9496C122.848 18.9496 121.567 17.9756 121.234 16.0796H131.429V14.8256C131.429 11.2656 129.251 7.8326 124.589 7.8326C120.159 7.8326 117.75 11.2906 117.75 14.8506C117.75 19.9226 121.567 21.8696 124.615 21.8696ZM121.362 13.2626C121.926 11.5466 123.103 10.7526 124.667 10.7526C126.434 10.7526 127.509 11.8026 127.868 13.2626H121.362Z" fill="white"/>
</g>
</g>
</g>
<defs>
<clipPath id="clip0_0_280">
<rect width="131" height="24" fill="white" transform="translate(0.96875 0.09375)"/>
</clipPath>
</defs>
</svg>
