<svg width="40" height="40" viewBox="0 0 40 40" fill="none" xmlns="http://www.w3.org/2000/svg">
<circle cx="20" cy="20" r="20" fill="#F1F1F1"/>
<path d="M31.25 13.1328C30.406 13.4995 29.513 13.7412 28.5992 13.85C29.5595 13.2877 30.2817 12.3943 30.6303 11.3375C29.7224 11.8684 28.7307 12.2409 27.6978 12.4391C27.2629 11.9832 26.7397 11.6206 26.1603 11.3732C25.5808 11.1258 24.9571 10.9988 24.327 11C21.7761 11 19.7117 13.0344 19.7117 15.5422C19.7099 15.891 19.7499 16.2388 19.8308 16.5781C18.0016 16.4924 16.2104 16.0258 14.5719 15.2081C12.9333 14.3904 11.4835 13.2398 10.3152 11.8297C9.90527 12.5207 9.6885 13.3091 9.6875 14.1125C9.6875 15.6875 10.5092 17.0797 11.75 17.8953C11.0149 17.8779 10.2948 17.6833 9.65094 17.3281V17.3844C9.65094 19.5875 11.2447 21.4203 13.3541 21.8375C12.9574 21.9432 12.5486 21.9968 12.1381 21.9969C11.8468 21.9974 11.5562 21.9691 11.2705 21.9125C11.8569 23.7172 13.5636 25.0297 15.5853 25.0672C13.9425 26.3333 11.9256 27.0175 9.85156 27.0125C9.48341 27.012 9.11561 26.99 8.75 26.9469C10.8599 28.2942 13.3126 29.0068 15.8159 29C24.3172 29 28.9616 22.0766 28.9616 16.0719C28.9616 15.875 28.9564 15.6781 28.947 15.4859C29.8485 14.8447 30.6283 14.0479 31.25 13.1328Z" fill="#06030E"/>
</svg>
