<svg width="18" height="18" viewBox="0 0 18 18" fill="none" xmlns="http://www.w3.org/2000/svg">
    <path fill-rule="evenodd" clip-rule="evenodd"
        d="M8.95251 0.0417482H9.04814C10.9718 0.0417375 12.4793 0.041729 13.6556 0.19987C14.8595 0.361737 15.8095 0.69952 16.5552 1.4452C17.3009 2.19087 17.6387 3.14089 17.8005 4.34484C17.9587 5.52108 17.9587 7.02861 17.9587 8.95227V9.04789C17.9587 10.9716 17.9587 12.4791 17.8005 13.6553C17.6387 14.8593 17.3009 15.8093 16.5552 16.555C15.8095 17.3006 14.8595 17.6384 13.6556 17.8003C12.4793 17.9584 10.9718 17.9584 9.04814 17.9584H8.95252C7.02885 17.9584 5.52132 17.9584 4.34508 17.8003C3.14113 17.6384 2.19111 17.3006 1.44544 16.555C0.699764 15.8093 0.361981 14.8593 0.200114 13.6553C0.0419731 12.4791 0.0419816 10.9716 0.0419924 9.0479V8.95227C0.0419816 7.0286 0.0419731 5.52107 0.200114 4.34484C0.361981 3.14089 0.699764 2.19087 1.44544 1.4452C2.19111 0.69952 3.14113 0.361737 4.34508 0.19987C5.52132 0.041729 7.02885 0.0417375 8.95251 0.0417482ZM4.51164 1.43872C3.4463 1.58195 2.80404 1.85436 2.32932 2.32908C1.85461 2.80379 1.5822 3.44606 1.43897 4.5114C1.29332 5.59471 1.29199 7.01823 1.29199 9.00008C1.29199 10.9819 1.29332 12.4055 1.43897 13.4888C1.5822 14.5541 1.85461 15.1964 2.32932 15.6711C2.80404 16.1458 3.4463 16.4182 4.51164 16.5614C5.59495 16.7071 7.01847 16.7084 9.00033 16.7084C10.9822 16.7084 12.4057 16.7071 13.489 16.5614C14.5543 16.4182 15.1966 16.1458 15.6713 15.6711C16.146 15.1964 16.4185 14.5541 16.5617 13.4888C16.7073 12.4055 16.7087 10.9819 16.7087 9.00008C16.7087 7.01823 16.7073 5.59471 16.5617 4.5114C16.4185 3.44606 16.146 2.80379 15.6713 2.32908C15.1966 1.85436 14.5543 1.58195 13.489 1.43872C12.4057 1.29308 10.9822 1.29175 9.00033 1.29175C7.01847 1.29175 5.59495 1.29308 4.51164 1.43872ZM7.33692 3.37524C7.68209 3.37817 7.95953 3.66035 7.9566 4.00552C7.95059 4.71443 7.92865 5.31935 7.83031 5.82135C7.72856 6.34081 7.53733 6.79352 7.16554 7.1653C6.79376 7.53708 6.34105 7.72832 5.8216 7.83007C5.31959 7.9284 4.71467 7.95035 4.00576 7.95636C3.6606 7.95928 3.37841 7.68184 3.37549 7.33668C3.37256 6.99151 3.65 6.70933 3.99517 6.7064C4.7084 6.70036 5.20654 6.67679 5.58132 6.60338C5.93864 6.53339 6.13643 6.42665 6.28166 6.28142C6.42689 6.13619 6.53363 5.9384 6.60363 5.58107C6.67704 5.20629 6.7006 4.70815 6.70665 3.99492C6.70957 3.64976 6.99176 3.37232 7.33692 3.37524ZM10.6617 3.37524C11.0069 3.37232 11.289 3.64976 11.292 3.99492C11.298 4.70815 11.3216 5.20629 11.395 5.58107C11.465 5.9384 11.5717 6.13619 11.717 6.28142C11.8622 6.42665 12.06 6.53339 12.4173 6.60338C12.7921 6.67679 13.2902 6.70036 14.0035 6.7064C14.3486 6.70933 14.6261 6.99151 14.6231 7.33668C14.6202 7.68184 14.338 7.95928 13.9929 7.95636C13.2839 7.95035 12.679 7.9284 12.177 7.83007C11.6576 7.72832 11.2049 7.53708 10.8331 7.1653C10.4613 6.79352 10.2701 6.34081 10.1683 5.82135C10.07 5.31935 10.048 4.71443 10.042 4.00552C10.0391 3.66035 10.3165 3.37817 10.6617 3.37524ZM3.37549 10.6614C3.37841 10.3163 3.6606 10.0388 4.00576 10.0418C4.71467 10.0478 5.31959 10.0697 5.8216 10.1681C6.34105 10.2698 6.79376 10.461 7.16554 10.8328C7.53733 11.2046 7.72856 11.6573 7.83031 12.1768C7.92865 12.6788 7.95059 13.2837 7.9566 13.9926C7.95953 14.3378 7.68209 14.62 7.33692 14.6229C6.99176 14.6258 6.70957 14.3484 6.70665 14.0032C6.7006 13.29 6.67704 12.7918 6.60363 12.4171C6.53363 12.0597 6.42689 11.8619 6.28166 11.7167C6.13643 11.5715 5.93864 11.4647 5.58131 11.3947C5.20654 11.3213 4.70839 11.2978 3.99517 11.2917C3.65 11.2888 3.37256 11.0066 3.37549 10.6614ZM14.6231 10.6614C14.6261 11.0066 14.3486 11.2888 14.0035 11.2917C13.2902 11.2978 12.7921 11.3213 12.4173 11.3947C12.06 11.4647 11.8622 11.5715 11.717 11.7167C11.5717 11.8619 11.465 12.0597 11.395 12.4171C11.3216 12.7918 11.298 13.29 11.292 14.0032C11.289 14.3484 11.0069 14.6258 10.6617 14.6229C10.3165 14.62 10.0391 14.3378 10.042 13.9926C10.048 13.2837 10.07 12.6788 10.1683 12.1768C10.2701 11.6573 10.4613 11.2046 10.8331 10.8328C11.2049 10.461 11.6576 10.2698 12.177 10.1681C12.679 10.0697 13.2839 10.0478 13.9929 10.0418C14.338 10.0388 14.6202 10.3163 14.6231 10.6614Z"
        fill="white" />
</svg>